<svg width="517" height="226" viewBox="0 0 517 226" fill="none" xmlns="http://www.w3.org/2000/svg">
<rect width="517" height="226" fill="#F7F8FD"/>
<path opacity="0.61" d="M42.437 37.207H36.599L35.633 40H32.546L37.817 25.321H41.24L46.511 40H43.403L42.437 37.207ZM41.639 34.855L39.518 28.723L37.397 34.855H41.639ZM57.5322 25.342V27.715H51.4212V31.474H56.1042V33.805H51.4212V40H48.4812V25.342H57.5322ZM69.592 25.342V27.715H65.686V40H62.746V27.715H58.84V25.342H69.592ZM74.6771 27.715V31.39H79.6121V33.721H74.6771V37.606H80.2421V40H71.7371V25.321H80.2421V27.715H74.6771ZM90.4738 40L87.2398 34.288H85.8538V40H82.9138V25.342H88.4158C89.5498 25.342 90.5158 25.545 91.3138 25.951C92.1118 26.343 92.7068 26.882 93.0988 27.568C93.5048 28.24 93.7078 28.996 93.7078 29.836C93.7078 30.802 93.4278 31.677 92.8678 32.461C92.3078 33.231 91.4748 33.763 90.3688 34.057L93.8758 40H90.4738ZM85.8538 32.083H88.3108C89.1088 32.083 89.7038 31.894 90.0958 31.516C90.4878 31.124 90.6838 30.585 90.6838 29.899C90.6838 29.227 90.4878 28.709 90.0958 28.345C89.7038 27.967 89.1088 27.778 88.3108 27.778H85.8538V32.083Z" fill="#646464"/>
</svg>
