<svg width="517" height="218" viewBox="0 0 517 218" fill="none" xmlns="http://www.w3.org/2000/svg">
<rect width="517" height="218" fill="#EBEBEB"/>
<path opacity="0.61" d="M41.765 35.482C42.591 35.636 43.27 36.049 43.802 36.721C44.334 37.393 44.6 38.163 44.6 39.031C44.6 39.815 44.404 40.508 44.012 41.11C43.634 41.698 43.081 42.16 42.353 42.496C41.625 42.832 40.764 43 39.77 43H33.449V28.342H39.497C40.491 28.342 41.345 28.503 42.059 28.825C42.787 29.147 43.333 29.595 43.697 30.169C44.075 30.743 44.264 31.394 44.264 32.122C44.264 32.976 44.033 33.69 43.571 34.264C43.123 34.838 42.521 35.244 41.765 35.482ZM36.389 34.39H39.077C39.777 34.39 40.316 34.236 40.694 33.928C41.072 33.606 41.261 33.151 41.261 32.563C41.261 31.975 41.072 31.52 40.694 31.198C40.316 30.876 39.777 30.715 39.077 30.715H36.389V34.39ZM39.35 40.606C40.064 40.606 40.617 40.438 41.009 40.102C41.415 39.766 41.618 39.29 41.618 38.674C41.618 38.044 41.408 37.554 40.988 37.204C40.568 36.84 40.001 36.658 39.287 36.658H36.389V40.606H39.35ZM49.8831 30.715V34.39H54.8181V36.721H49.8831V40.606H55.4481V43H46.9431V28.321H55.4481V30.715H49.8831ZM67.1709 28.342V30.715H61.0599V34.474H65.7429V36.805H61.0599V43H58.1199V28.342H67.1709ZM76.0596 43.147C74.6876 43.147 73.4276 42.825 72.2796 42.181C71.1316 41.537 70.2216 40.648 69.5496 39.514C68.8776 38.366 68.5416 37.071 68.5416 35.629C68.5416 34.201 68.8776 32.92 69.5496 31.786C70.2216 30.638 71.1316 29.742 72.2796 29.098C73.4276 28.454 74.6876 28.132 76.0596 28.132C77.4456 28.132 78.7056 28.454 79.8396 29.098C80.9876 29.742 81.8906 30.638 82.5486 31.786C83.2206 32.92 83.5566 34.201 83.5566 35.629C83.5566 37.071 83.2206 38.366 82.5486 39.514C81.8906 40.648 80.9876 41.537 79.8396 42.181C78.6916 42.825 77.4316 43.147 76.0596 43.147ZM76.0596 40.522C76.9416 40.522 77.7186 40.326 78.3906 39.934C79.0626 39.528 79.5876 38.954 79.9656 38.212C80.3436 37.47 80.5326 36.609 80.5326 35.629C80.5326 34.649 80.3436 33.795 79.9656 33.067C79.5876 32.325 79.0626 31.758 78.3906 31.366C77.7186 30.974 76.9416 30.778 76.0596 30.778C75.1776 30.778 74.3936 30.974 73.7076 31.366C73.0356 31.758 72.5106 32.325 72.1326 33.067C71.7546 33.795 71.5656 34.649 71.5656 35.629C71.5656 36.609 71.7546 37.47 72.1326 38.212C72.5106 38.954 73.0356 39.528 73.7076 39.934C74.3936 40.326 75.1776 40.522 76.0596 40.522ZM93.3039 43L90.0699 37.288H88.6839V43H85.7439V28.342H91.2459C92.3799 28.342 93.3459 28.545 94.1439 28.951C94.9419 29.343 95.5369 29.882 95.9289 30.568C96.3349 31.24 96.5379 31.996 96.5379 32.836C96.5379 33.802 96.2579 34.677 95.6979 35.461C95.1379 36.231 94.3049 36.763 93.1989 37.057L96.7059 43H93.3039ZM88.6839 35.083H91.1409C91.9389 35.083 92.5339 34.894 92.9259 34.516C93.3179 34.124 93.5139 33.585 93.5139 32.899C93.5139 32.227 93.3179 31.709 92.9259 31.345C92.5339 30.967 91.9389 30.778 91.1409 30.778H88.6839V35.083ZM102.137 30.715V34.39H107.072V36.721H102.137V40.606H107.702V43H99.197V28.321H107.702V30.715H102.137Z" fill="#646464"/>
</svg>
