<svg width="19" height="19" viewBox="0 0 19 19" fill="none" xmlns="http://www.w3.org/2000/svg">
<path d="M15.4472 2.48578C15.496 2.52773 15.496 2.52773 15.5458 2.57053C16.0419 3.00718 16.4908 3.47108 16.8828 4.00336C16.9088 4.0382 16.9347 4.07304 16.9615 4.10894C17.3177 4.60214 17.6081 5.1356 17.8672 5.685C17.8886 5.73031 17.9101 5.77562 17.9322 5.8223C18.9315 8.04039 18.9029 10.5663 18.0761 12.8265C17.9801 13.0795 17.8692 13.3199 17.7441 13.56C17.7147 13.6181 17.6853 13.6763 17.6558 13.7345C17.4746 14.0887 17.2788 14.4254 17.0469 14.7495C17.0187 14.7888 16.9906 14.8282 16.9616 14.8688C16.4574 15.5571 15.8818 16.2005 15.2012 16.7182C15.1749 16.7383 15.1486 16.7584 15.1216 16.7791C14.677 17.1168 14.2211 17.4067 13.7246 17.6616C13.6948 17.6772 13.665 17.6928 13.6342 17.7089C11.548 18.7941 9.0099 18.9842 6.77138 18.2832C5.68717 17.9366 4.68519 17.4404 3.79881 16.7182C3.77704 16.7005 3.75527 16.6829 3.73284 16.6647C1.77349 15.0635 0.586739 12.8223 0.330265 10.3097C0.268461 9.59455 0.281887 8.85536 0.394512 8.14594C0.400474 8.1081 0.406435 8.07026 0.412577 8.03128C0.71007 6.22287 1.50467 4.68246 2.69139 3.30609C2.71809 3.27426 2.74479 3.24243 2.7723 3.20964C2.91049 3.04658 3.056 2.90357 3.2193 2.76568C3.27834 2.71509 3.33613 2.663 3.39266 2.60963C6.27553 -0.105117 10.9249 -0.403133 15.4472 2.48578ZM13.6063 5.75735C13.5799 5.78373 13.5535 5.8101 13.5263 5.83728C13.4388 5.92471 13.3514 6.01229 13.264 6.09987C13.201 6.16296 13.1379 6.22604 13.0748 6.28911C12.9042 6.45967 12.7338 6.63035 12.5634 6.80106C12.385 6.9797 12.2065 7.15822 12.028 7.33675C11.6903 7.67453 11.3528 8.01242 11.0153 8.35035C10.6309 8.73519 10.2464 9.11992 9.86187 9.50464C9.07119 10.2957 8.28065 11.087 7.49022 11.8784C7.32483 11.8021 7.21271 11.6928 7.08683 11.5637C7.06333 11.54 7.03983 11.5162 7.01562 11.4917C6.96468 11.4402 6.91384 11.3886 6.86308 11.3369C6.78257 11.255 6.70177 11.1733 6.62087 11.0918C6.39094 10.8598 6.16147 10.6274 5.93238 10.3947C5.79213 10.2522 5.65147 10.1102 5.51056 9.96836C5.4571 9.91439 5.40379 9.86027 5.35065 9.80598C5.27607 9.72981 5.20098 9.65417 5.12577 9.57862C5.10419 9.55632 5.08262 9.53403 5.06039 9.51106C4.88073 9.33232 4.67838 9.19925 4.42686 9.14954C4.15374 9.15323 3.94191 9.20576 3.73584 9.39243C3.55555 9.59216 3.49033 9.80402 3.49911 10.0715C3.54636 10.3875 3.77705 10.6089 3.99415 10.8241C4.02605 10.8564 4.05796 10.8886 4.09082 10.9218C4.1958 11.0277 4.30137 11.133 4.40699 11.2383C4.48048 11.312 4.55395 11.3857 4.62739 11.4595C4.78117 11.6137 4.93524 11.7676 5.08954 11.9212C5.26745 12.0985 5.44467 12.2763 5.62157 12.4546C5.79241 12.6266 5.96382 12.7981 6.13547 12.9694C6.20816 13.042 6.2807 13.1149 6.35308 13.1878C6.45437 13.2898 6.55629 13.3912 6.65841 13.4924C6.68804 13.5225 6.71766 13.5526 6.74819 13.5836C6.95475 13.7863 7.14146 13.9148 7.43927 13.938C7.47131 13.9342 7.50335 13.9304 7.53636 13.9266C7.56861 13.9236 7.60086 13.9205 7.63409 13.9174C7.9055 13.8396 8.0979 13.6205 8.29145 13.4263C8.32172 13.3962 8.35199 13.3661 8.38318 13.3352C8.48435 13.2346 8.58523 13.1338 8.68611 13.0329C8.75866 12.9607 8.83124 12.8885 8.90383 12.8162C9.10079 12.6202 9.29749 12.4238 9.49411 12.2274C9.61695 12.1047 9.73985 11.9821 9.86277 11.8595C10.2033 11.5197 10.5438 11.1799 10.884 10.8398C10.9058 10.818 10.9275 10.7963 10.9499 10.7739C10.994 10.7298 11.0381 10.6858 11.0822 10.6417C11.1041 10.6198 11.1259 10.598 11.1485 10.5754C11.1704 10.5535 11.1923 10.5316 11.2149 10.5091C11.5701 10.154 11.9257 9.79948 12.2816 9.44513C12.6473 9.08103 13.0125 8.71655 13.3774 8.35167C13.5822 8.14693 13.7871 7.94235 13.9925 7.73819C14.1855 7.54623 14.3781 7.35375 14.5703 7.1609C14.6409 7.09022 14.7116 7.01972 14.7826 6.9494C14.8795 6.85336 14.9757 6.75671 15.0718 6.65988C15.1141 6.61839 15.1141 6.61839 15.1572 6.57607C15.3538 6.37603 15.4746 6.1881 15.4971 5.90001C15.4637 5.61557 15.3795 5.43686 15.1627 5.24408C14.5329 4.78134 14.0448 5.31665 13.6063 5.75735Z" fill="#6FD43F"/>
</svg>
