<svg width="585" height="392" viewBox="0 0 585 392" fill="none" xmlns="http://www.w3.org/2000/svg">
<g clip-path="url(#clip0_343_2)">
<rect x="57" y="53" width="455" height="516" rx="10" fill="#D9D9D9"/>
<rect x="375" y="29" width="174" height="170" rx="10" fill="white"/>
<rect x="388" y="136" width="30" height="47" rx="7" fill="#E4E4E4"/>
<rect x="425" y="119" width="30" height="64" rx="7" fill="#E4E4E4"/>
<rect x="497" y="103" width="30" height="80" rx="7" fill="#E4E4E4"/>
<rect x="461" y="88" width="30" height="95" rx="7" fill="#FF1A1A"/>
<path d="M396.88 75.575H394.045V78.485H392.065V75.575H389.23V73.745H392.065V70.835H394.045V73.745H396.88V75.575ZM398.647 71V69.065H402.262V80H400.102V71H398.647ZM404.997 77.63C405.957 76.83 406.722 76.165 407.292 75.635C407.862 75.095 408.337 74.535 408.717 73.955C409.097 73.375 409.287 72.805 409.287 72.245C409.287 71.735 409.167 71.335 408.927 71.045C408.687 70.755 408.317 70.61 407.817 70.61C407.317 70.61 406.932 70.78 406.662 71.12C406.392 71.45 406.252 71.905 406.242 72.485H404.202C404.242 71.285 404.597 70.375 405.267 69.755C405.947 69.135 406.807 68.825 407.847 68.825C408.987 68.825 409.862 69.13 410.472 69.74C411.082 70.34 411.387 71.135 411.387 72.125C411.387 72.905 411.177 73.65 410.757 74.36C410.337 75.07 409.857 75.69 409.317 76.22C408.777 76.74 408.072 77.37 407.202 78.11H411.627V79.85H404.217V78.29L404.997 77.63ZM414.12 80.105C413.74 80.105 413.425 79.99 413.175 79.76C412.935 79.52 412.815 79.225 412.815 78.875C412.815 78.525 412.935 78.235 413.175 78.005C413.425 77.765 413.74 77.645 414.12 77.645C414.49 77.645 414.795 77.765 415.035 78.005C415.275 78.235 415.395 78.525 415.395 78.875C415.395 79.225 415.275 79.52 415.035 79.76C414.795 79.99 414.49 80.105 414.12 80.105ZM424.197 70.88H419.337V73.445C419.547 73.185 419.847 72.975 420.237 72.815C420.627 72.645 421.042 72.56 421.482 72.56C422.282 72.56 422.937 72.735 423.447 73.085C423.957 73.435 424.327 73.885 424.557 74.435C424.787 74.975 424.902 75.555 424.902 76.175C424.902 77.325 424.572 78.25 423.912 78.95C423.262 79.65 422.332 80 421.122 80C419.982 80 419.072 79.715 418.392 79.145C417.712 78.575 417.327 77.83 417.237 76.91H419.277C419.367 77.31 419.567 77.63 419.877 77.87C420.197 78.11 420.602 78.23 421.092 78.23C421.682 78.23 422.127 78.045 422.427 77.675C422.727 77.305 422.877 76.815 422.877 76.205C422.877 75.585 422.722 75.115 422.412 74.795C422.112 74.465 421.667 74.3 421.077 74.3C420.657 74.3 420.307 74.405 420.027 74.615C419.747 74.825 419.547 75.105 419.427 75.455H417.417V69.035H424.197V70.88ZM426.26 71.75C426.26 70.99 426.48 70.395 426.92 69.965C427.37 69.535 427.945 69.32 428.645 69.32C429.345 69.32 429.915 69.535 430.355 69.965C430.805 70.395 431.03 70.99 431.03 71.75C431.03 72.52 430.805 73.12 430.355 73.55C429.915 73.98 429.345 74.195 428.645 74.195C427.945 74.195 427.37 73.98 426.92 73.55C426.48 73.12 426.26 72.52 426.26 71.75ZM435.89 69.5L429.995 80H427.955L433.835 69.5H435.89ZM428.63 70.58C428.08 70.58 427.805 70.97 427.805 71.75C427.805 72.54 428.08 72.935 428.63 72.935C428.9 72.935 429.11 72.84 429.26 72.65C429.41 72.45 429.485 72.15 429.485 71.75C429.485 70.97 429.2 70.58 428.63 70.58ZM432.845 77.735C432.845 76.965 433.065 76.37 433.505 75.95C433.955 75.52 434.53 75.305 435.23 75.305C435.93 75.305 436.495 75.52 436.925 75.95C437.365 76.37 437.585 76.965 437.585 77.735C437.585 78.505 437.365 79.105 436.925 79.535C436.495 79.965 435.93 80.18 435.23 80.18C434.52 80.18 433.945 79.965 433.505 79.535C433.065 79.105 432.845 78.505 432.845 77.735ZM435.215 76.565C434.645 76.565 434.36 76.955 434.36 77.735C434.36 78.525 434.645 78.92 435.215 78.92C435.775 78.92 436.055 78.525 436.055 77.735C436.055 76.955 435.775 76.565 435.215 76.565Z" fill="#FF1A1A"/>
<path d="M397.048 45.926L393.72 55H391.51L388.182 45.926H390.132L392.628 53.141L395.111 45.926H397.048ZM399.062 46.94C398.742 46.94 398.473 46.8403 398.256 46.641C398.048 46.433 397.944 46.1773 397.944 45.874C397.944 45.5707 398.048 45.3193 398.256 45.12C398.473 44.912 398.742 44.808 399.062 44.808C399.383 44.808 399.647 44.912 399.855 45.12C400.072 45.3193 400.18 45.5707 400.18 45.874C400.18 46.1773 400.072 46.433 399.855 46.641C399.647 46.8403 399.383 46.94 399.062 46.94ZM399.959 47.798V55H398.139V47.798H399.959ZM404.513 55.117C403.924 55.117 403.395 55.013 402.927 54.805C402.459 54.5883 402.087 54.298 401.809 53.934C401.541 53.57 401.393 53.167 401.367 52.725H403.2C403.235 53.0023 403.369 53.232 403.603 53.414C403.846 53.596 404.145 53.687 404.5 53.687C404.847 53.687 405.116 53.6177 405.306 53.479C405.506 53.3403 405.605 53.1627 405.605 52.946C405.605 52.712 405.484 52.5387 405.241 52.426C405.007 52.3047 404.63 52.1747 404.11 52.036C403.573 51.906 403.131 51.7717 402.784 51.633C402.446 51.4943 402.152 51.282 401.9 50.996C401.658 50.71 401.536 50.3243 401.536 49.839C401.536 49.4403 401.649 49.0763 401.874 48.747C402.108 48.4177 402.438 48.1577 402.862 47.967C403.296 47.7763 403.803 47.681 404.383 47.681C405.241 47.681 405.926 47.8977 406.437 48.331C406.949 48.7557 407.23 49.332 407.282 50.06H405.54C405.514 49.774 405.393 49.5487 405.176 49.384C404.968 49.2107 404.687 49.124 404.331 49.124C404.002 49.124 403.746 49.1847 403.564 49.306C403.391 49.4273 403.304 49.5963 403.304 49.813C403.304 50.0557 403.426 50.242 403.668 50.372C403.911 50.4933 404.288 50.619 404.799 50.749C405.319 50.879 405.748 51.0133 406.086 51.152C406.424 51.2907 406.715 51.5073 406.957 51.802C407.209 52.088 407.339 52.4693 407.347 52.946C407.347 53.362 407.23 53.7347 406.996 54.064C406.771 54.3933 406.442 54.6533 406.008 54.844C405.584 55.026 405.085 55.117 404.513 55.117ZM409.764 46.94C409.444 46.94 409.175 46.8403 408.958 46.641C408.75 46.433 408.646 46.1773 408.646 45.874C408.646 45.5707 408.75 45.3193 408.958 45.12C409.175 44.912 409.444 44.808 409.764 44.808C410.085 44.808 410.349 44.912 410.557 45.12C410.774 45.3193 410.882 45.5707 410.882 45.874C410.882 46.1773 410.774 46.433 410.557 46.641C410.349 46.8403 410.085 46.94 409.764 46.94ZM410.661 47.798V55H408.841V47.798H410.661ZM414.579 49.293V52.777C414.579 53.0197 414.635 53.1973 414.748 53.31C414.869 53.414 415.068 53.466 415.346 53.466H416.191V55H415.047C413.513 55 412.746 54.2547 412.746 52.764V49.293H411.888V47.798H412.746V46.017H414.579V47.798H416.191V49.293H414.579ZM420.698 55.117C420.004 55.117 419.38 54.9653 418.826 54.662C418.271 54.35 417.833 53.9123 417.513 53.349C417.201 52.7857 417.045 52.1357 417.045 51.399C417.045 50.6623 417.205 50.0123 417.526 49.449C417.855 48.8857 418.301 48.4523 418.865 48.149C419.428 47.837 420.056 47.681 420.75 47.681C421.443 47.681 422.071 47.837 422.635 48.149C423.198 48.4523 423.64 48.8857 423.961 49.449C424.29 50.0123 424.455 50.6623 424.455 51.399C424.455 52.1357 424.286 52.7857 423.948 53.349C423.618 53.9123 423.168 54.35 422.596 54.662C422.032 54.9653 421.4 55.117 420.698 55.117ZM420.698 53.531C421.027 53.531 421.335 53.453 421.621 53.297C421.915 53.1323 422.149 52.8897 422.323 52.569C422.496 52.2483 422.583 51.8583 422.583 51.399C422.583 50.7143 422.401 50.19 422.037 49.826C421.681 49.4533 421.244 49.267 420.724 49.267C420.204 49.267 419.766 49.4533 419.411 49.826C419.064 50.19 418.891 50.7143 418.891 51.399C418.891 52.0837 419.06 52.6123 419.398 52.985C419.744 53.349 420.178 53.531 420.698 53.531ZM427.61 48.916C427.844 48.5347 428.147 48.2357 428.52 48.019C428.901 47.8023 429.334 47.694 429.82 47.694V49.605H429.339C428.767 49.605 428.333 49.7393 428.039 50.008C427.753 50.2767 427.61 50.7447 427.61 51.412V55H425.79V47.798H427.61V48.916ZM436.262 49.293V52.777C436.262 53.0197 436.318 53.1973 436.431 53.31C436.552 53.414 436.752 53.466 437.029 53.466H437.874V55H436.73C435.196 55 434.429 54.2547 434.429 52.764V49.293H433.571V47.798H434.429V46.017H436.262V47.798H437.874V49.293H436.262ZM442.381 55.117C441.688 55.117 441.064 54.9653 440.509 54.662C439.954 54.35 439.517 53.9123 439.196 53.349C438.884 52.7857 438.728 52.1357 438.728 51.399C438.728 50.6623 438.888 50.0123 439.209 49.449C439.538 48.8857 439.985 48.4523 440.548 48.149C441.111 47.837 441.74 47.681 442.433 47.681C443.126 47.681 443.755 47.837 444.318 48.149C444.881 48.4523 445.323 48.8857 445.644 49.449C445.973 50.0123 446.138 50.6623 446.138 51.399C446.138 52.1357 445.969 52.7857 445.631 53.349C445.302 53.9123 444.851 54.35 444.279 54.662C443.716 54.9653 443.083 55.117 442.381 55.117ZM442.381 53.531C442.71 53.531 443.018 53.453 443.304 53.297C443.599 53.1323 443.833 52.8897 444.006 52.569C444.179 52.2483 444.266 51.8583 444.266 51.399C444.266 50.7143 444.084 50.19 443.72 49.826C443.365 49.4533 442.927 49.267 442.407 49.267C441.887 49.267 441.449 49.4533 441.094 49.826C440.747 50.19 440.574 50.7143 440.574 51.399C440.574 52.0837 440.743 52.6123 441.081 52.985C441.428 53.349 441.861 53.531 442.381 53.531ZM450.129 50.45C450.129 49.5573 450.328 48.76 450.727 48.058C451.134 47.3473 451.684 46.797 452.378 46.407C453.08 46.0083 453.864 45.809 454.731 45.809C455.745 45.809 456.633 46.069 457.396 46.589C458.158 47.109 458.691 47.8283 458.995 48.747H456.902C456.694 48.3137 456.399 47.9887 456.018 47.772C455.645 47.5553 455.212 47.447 454.718 47.447C454.189 47.447 453.717 47.5727 453.301 47.824C452.893 48.0667 452.573 48.4133 452.339 48.864C452.113 49.3147 452.001 49.8433 452.001 50.45C452.001 51.048 452.113 51.5767 452.339 52.036C452.573 52.4867 452.893 52.8377 453.301 53.089C453.717 53.3317 454.189 53.453 454.718 53.453C455.212 53.453 455.645 53.3447 456.018 53.128C456.399 52.9027 456.694 52.5733 456.902 52.14H458.995C458.691 53.0673 458.158 53.791 457.396 54.311C456.642 54.8223 455.753 55.078 454.731 55.078C453.864 55.078 453.08 54.883 452.378 54.493C451.684 54.0943 451.134 53.544 450.727 52.842C450.328 52.14 450.129 51.3427 450.129 50.45ZM462.369 45.38V55H460.549V45.38H462.369ZM465.091 46.94C464.77 46.94 464.501 46.8403 464.285 46.641C464.077 46.433 463.973 46.1773 463.973 45.874C463.973 45.5707 464.077 45.3193 464.285 45.12C464.501 44.912 464.77 44.808 465.091 44.808C465.411 44.808 465.676 44.912 465.884 45.12C466.1 45.3193 466.209 45.5707 466.209 45.874C466.209 46.1773 466.1 46.433 465.884 46.641C465.676 46.8403 465.411 46.94 465.091 46.94ZM465.988 47.798V55H464.168V47.798H465.988ZM474.481 51.243C474.481 51.503 474.463 51.737 474.429 51.945H469.164C469.207 52.465 469.389 52.8723 469.71 53.167C470.03 53.4617 470.425 53.609 470.893 53.609C471.569 53.609 472.05 53.3187 472.336 52.738H474.299C474.091 53.4313 473.692 54.0033 473.103 54.454C472.513 54.896 471.79 55.117 470.932 55.117C470.238 55.117 469.614 54.9653 469.06 54.662C468.514 54.35 468.085 53.9123 467.773 53.349C467.469 52.7857 467.318 52.1357 467.318 51.399C467.318 50.6537 467.469 49.9993 467.773 49.436C468.076 48.8727 468.501 48.4393 469.047 48.136C469.593 47.8327 470.221 47.681 470.932 47.681C471.616 47.681 472.227 47.8283 472.765 48.123C473.311 48.4177 473.731 48.838 474.026 49.384C474.329 49.9213 474.481 50.541 474.481 51.243ZM472.596 50.723C472.587 50.255 472.418 49.8823 472.089 49.605C471.759 49.319 471.356 49.176 470.88 49.176C470.429 49.176 470.048 49.3147 469.736 49.592C469.432 49.8607 469.246 50.2377 469.177 50.723H472.596ZM479.8 47.694C480.658 47.694 481.351 47.967 481.88 48.513C482.409 49.0503 482.673 49.8043 482.673 50.775V55H480.853V51.022C480.853 50.45 480.71 50.0123 480.424 49.709C480.138 49.397 479.748 49.241 479.254 49.241C478.751 49.241 478.353 49.397 478.058 49.709C477.772 50.0123 477.629 50.45 477.629 51.022V55H475.809V47.798H477.629V48.695C477.872 48.383 478.179 48.1403 478.552 47.967C478.933 47.785 479.349 47.694 479.8 47.694ZM486.523 49.293V52.777C486.523 53.0197 486.579 53.1973 486.692 53.31C486.813 53.414 487.013 53.466 487.29 53.466H488.135V55H486.991C485.457 55 484.69 54.2547 484.69 52.764V49.293H483.832V47.798H484.69V46.017H486.523V47.798H488.135V49.293H486.523ZM492.1 50.45C492.1 49.5573 492.299 48.76 492.698 48.058C493.105 47.3473 493.655 46.797 494.349 46.407C495.051 46.0083 495.835 45.809 496.702 45.809C497.716 45.809 498.604 46.069 499.367 46.589C500.129 47.109 500.662 47.8283 500.966 48.747H498.873C498.665 48.3137 498.37 47.9887 497.989 47.772C497.616 47.5553 497.183 47.447 496.689 47.447C496.16 47.447 495.688 47.5727 495.272 47.824C494.864 48.0667 494.544 48.4133 494.31 48.864C494.084 49.3147 493.972 49.8433 493.972 50.45C493.972 51.048 494.084 51.5767 494.31 52.036C494.544 52.4867 494.864 52.8377 495.272 53.089C495.688 53.3317 496.16 53.453 496.689 53.453C497.183 53.453 497.616 53.3447 497.989 53.128C498.37 52.9027 498.665 52.5733 498.873 52.14H500.966C500.662 53.0673 500.129 53.791 499.367 54.311C498.613 54.8223 497.724 55.078 496.702 55.078C495.835 55.078 495.051 54.883 494.349 54.493C493.655 54.0943 493.105 53.544 492.698 52.842C492.299 52.14 492.1 51.3427 492.1 50.45ZM505.718 55.117C505.025 55.117 504.401 54.9653 503.846 54.662C503.291 54.35 502.854 53.9123 502.533 53.349C502.221 52.7857 502.065 52.1357 502.065 51.399C502.065 50.6623 502.225 50.0123 502.546 49.449C502.875 48.8857 503.322 48.4523 503.885 48.149C504.448 47.837 505.077 47.681 505.77 47.681C506.463 47.681 507.092 47.837 507.655 48.149C508.218 48.4523 508.66 48.8857 508.981 49.449C509.31 50.0123 509.475 50.6623 509.475 51.399C509.475 52.1357 509.306 52.7857 508.968 53.349C508.639 53.9123 508.188 54.35 507.616 54.662C507.053 54.9653 506.42 55.117 505.718 55.117ZM505.718 53.531C506.047 53.531 506.355 53.453 506.641 53.297C506.936 53.1323 507.17 52.8897 507.343 52.569C507.516 52.2483 507.603 51.8583 507.603 51.399C507.603 50.7143 507.421 50.19 507.057 49.826C506.702 49.4533 506.264 49.267 505.744 49.267C505.224 49.267 504.786 49.4533 504.431 49.826C504.084 50.19 503.911 50.7143 503.911 51.399C503.911 52.0837 504.08 52.6123 504.418 52.985C504.765 53.349 505.198 53.531 505.718 53.531ZM514.801 47.694C515.659 47.694 516.352 47.967 516.881 48.513C517.41 49.0503 517.674 49.8043 517.674 50.775V55H515.854V51.022C515.854 50.45 515.711 50.0123 515.425 49.709C515.139 49.397 514.749 49.241 514.255 49.241C513.752 49.241 513.354 49.397 513.059 49.709C512.773 50.0123 512.63 50.45 512.63 51.022V55H510.81V47.798H512.63V48.695C512.873 48.383 513.18 48.1403 513.553 47.967C513.934 47.785 514.35 47.694 514.801 47.694ZM522.408 53.323L524.228 47.798H526.165L523.5 55H521.29L518.638 47.798H520.588L522.408 53.323ZM527.993 55.091C527.664 55.091 527.391 54.9913 527.174 54.792C526.966 54.584 526.862 54.3283 526.862 54.025C526.862 53.7217 526.966 53.4703 527.174 53.271C527.391 53.063 527.664 52.959 527.993 52.959C528.314 52.959 528.578 53.063 528.786 53.271C528.994 53.4703 529.098 53.7217 529.098 54.025C529.098 54.3283 528.994 54.584 528.786 54.792C528.578 54.9913 528.314 55.091 527.993 55.091Z" fill="#1F1D1D"/>
<rect y="254" width="237.111" height="44" rx="22" fill="white"/>
<path d="M24.344 270.276V281.444H22.104V270.276H24.344ZM31.4691 272.452C32.5251 272.452 33.3785 272.788 34.0291 273.46C34.6798 274.122 35.0051 275.05 35.0051 276.244V281.444H32.7651V276.548C32.7651 275.844 32.5891 275.306 32.2371 274.932C31.8851 274.548 31.4051 274.356 30.7971 274.356C30.1785 274.356 29.6878 274.548 29.3251 274.932C28.9731 275.306 28.7971 275.844 28.7971 276.548V281.444H26.5571V272.58H28.7971V273.684C29.0958 273.3 29.4745 273.002 29.9331 272.788C30.4025 272.564 30.9145 272.452 31.4691 272.452ZM36.5592 277.012C36.5592 276.095 36.7459 275.295 37.1193 274.612C37.4926 273.919 38.0099 273.386 38.6713 273.012C39.3326 272.628 40.0899 272.436 40.9433 272.436C42.0419 272.436 42.9486 272.714 43.6633 273.268C44.3886 273.812 44.8739 274.58 45.1193 275.572H42.7033C42.5753 275.188 42.3566 274.89 42.0473 274.676C41.7486 274.452 41.3753 274.34 40.9273 274.34C40.2873 274.34 39.7806 274.575 39.4073 275.044C39.0339 275.503 38.8473 276.159 38.8473 277.012C38.8473 277.855 39.0339 278.511 39.4073 278.98C39.7806 279.439 40.2873 279.668 40.9273 279.668C41.8339 279.668 42.4259 279.263 42.7033 278.452H45.1193C44.8739 279.412 44.3886 280.175 43.6633 280.74C42.9379 281.306 42.0313 281.588 40.9433 281.588C40.0899 281.588 39.3326 281.402 38.6713 281.028C38.0099 280.644 37.4926 280.111 37.1193 279.428C36.7459 278.735 36.5592 277.93 36.5592 277.012ZM49.0003 273.956C49.2883 273.487 49.6616 273.119 50.1203 272.852C50.5896 272.586 51.1229 272.452 51.7203 272.452V274.804H51.1283C50.4243 274.804 49.8909 274.97 49.5283 275.3C49.1763 275.631 49.0003 276.207 49.0003 277.028V281.444H46.7603V272.58H49.0003V273.956ZM61.469 276.82C61.469 277.14 61.4477 277.428 61.405 277.684H54.925C54.9783 278.324 55.2023 278.826 55.597 279.188C55.9917 279.551 56.477 279.732 57.053 279.732C57.885 279.732 58.477 279.375 58.829 278.66H61.245C60.989 279.514 60.4983 280.218 59.773 280.772C59.0477 281.316 58.157 281.588 57.101 281.588C56.2477 281.588 55.4797 281.402 54.797 281.028C54.125 280.644 53.597 280.106 53.213 279.412C52.8397 278.719 52.653 277.919 52.653 277.012C52.653 276.095 52.8397 275.29 53.213 274.596C53.5863 273.903 54.109 273.37 54.781 272.996C55.453 272.623 56.2263 272.436 57.101 272.436C57.9437 272.436 58.6957 272.618 59.357 272.98C60.029 273.343 60.5463 273.86 60.909 274.532C61.2823 275.194 61.469 275.956 61.469 276.82ZM59.149 276.18C59.1383 275.604 58.9303 275.146 58.525 274.804C58.1197 274.452 57.6237 274.276 57.037 274.276C56.4823 274.276 56.013 274.447 55.629 274.788C55.2557 275.119 55.0263 275.583 54.941 276.18H59.149ZM62.528 276.98C62.528 276.084 62.704 275.29 63.056 274.596C63.4187 273.903 63.904 273.37 64.512 272.996C65.1307 272.623 65.8187 272.436 66.576 272.436C67.2373 272.436 67.8133 272.57 68.304 272.836C68.8053 273.103 69.2053 273.439 69.504 273.844V272.58H71.76V281.444H69.504V280.148C69.216 280.564 68.816 280.911 68.304 281.188C67.8027 281.455 67.2213 281.588 66.56 281.588C65.8133 281.588 65.1307 281.396 64.512 281.012C63.904 280.628 63.4187 280.09 63.056 279.396C62.704 278.692 62.528 277.887 62.528 276.98ZM69.504 277.012C69.504 276.468 69.3973 276.004 69.184 275.62C68.9707 275.226 68.6827 274.927 68.32 274.724C67.9573 274.511 67.568 274.404 67.152 274.404C66.736 274.404 66.352 274.506 66 274.708C65.648 274.911 65.36 275.21 65.136 275.604C64.9227 275.988 64.816 276.447 64.816 276.98C64.816 277.514 64.9227 277.983 65.136 278.388C65.36 278.783 65.648 279.087 66 279.3C66.3627 279.514 66.7467 279.62 67.152 279.62C67.568 279.62 67.9573 279.519 68.32 279.316C68.6827 279.103 68.9707 278.804 69.184 278.42C69.3973 278.026 69.504 277.556 69.504 277.012ZM77.3398 281.588C76.6144 281.588 75.9638 281.46 75.3878 281.204C74.8118 280.938 74.3531 280.58 74.0118 280.132C73.6811 279.684 73.4998 279.188 73.4678 278.644H75.7238C75.7664 278.986 75.9318 279.268 76.2198 279.492C76.5184 279.716 76.8864 279.828 77.3238 279.828C77.7504 279.828 78.0811 279.743 78.3158 279.572C78.5611 279.402 78.6838 279.183 78.6838 278.916C78.6838 278.628 78.5344 278.415 78.2358 278.276C77.9478 278.127 77.4838 277.967 76.8438 277.796C76.1824 277.636 75.6384 277.471 75.2118 277.3C74.7958 277.13 74.4331 276.868 74.1238 276.516C73.8251 276.164 73.6758 275.69 73.6758 275.092C73.6758 274.602 73.8144 274.154 74.0918 273.748C74.3798 273.343 74.7851 273.023 75.3078 272.788C75.8411 272.554 76.4651 272.436 77.1798 272.436C78.2358 272.436 79.0784 272.703 79.7078 273.236C80.3371 273.759 80.6838 274.468 80.7478 275.364H78.6038C78.5718 275.012 78.4224 274.735 78.1558 274.532C77.8998 274.319 77.5531 274.212 77.1158 274.212C76.7104 274.212 76.3958 274.287 76.1718 274.436C75.9584 274.586 75.8518 274.794 75.8518 275.06C75.8518 275.359 76.0011 275.588 76.2998 275.748C76.5984 275.898 77.0624 276.052 77.6918 276.212C78.3318 276.372 78.8598 276.538 79.2758 276.708C79.6918 276.879 80.0491 277.146 80.3478 277.508C80.6571 277.86 80.8171 278.33 80.8278 278.916C80.8278 279.428 80.6838 279.887 80.3958 280.292C80.1184 280.698 79.7131 281.018 79.1798 281.252C78.6571 281.476 78.0438 281.588 77.3398 281.588ZM90.9065 276.82C90.9065 277.14 90.8852 277.428 90.8425 277.684H84.3625C84.4158 278.324 84.6398 278.826 85.0345 279.188C85.4292 279.551 85.9145 279.732 86.4905 279.732C87.3225 279.732 87.9145 279.375 88.2665 278.66H90.6825C90.4265 279.514 89.9358 280.218 89.2105 280.772C88.4852 281.316 87.5945 281.588 86.5385 281.588C85.6852 281.588 84.9172 281.402 84.2345 281.028C83.5625 280.644 83.0345 280.106 82.6505 279.412C82.2772 278.719 82.0905 277.919 82.0905 277.012C82.0905 276.095 82.2772 275.29 82.6505 274.596C83.0238 273.903 83.5465 273.37 84.2185 272.996C84.8905 272.623 85.6638 272.436 86.5385 272.436C87.3812 272.436 88.1332 272.618 88.7945 272.98C89.4665 273.343 89.9838 273.86 90.3465 274.532C90.7198 275.194 90.9065 275.956 90.9065 276.82ZM88.5865 276.18C88.5758 275.604 88.3678 275.146 87.9625 274.804C87.5572 274.452 87.0612 274.276 86.4745 274.276C85.9198 274.276 85.4505 274.447 85.0665 274.788C84.6932 275.119 84.4638 275.583 84.3785 276.18H88.5865ZM106.386 270.276L102.29 281.444H99.57L95.474 270.276H97.874L100.946 279.156L104.002 270.276H106.386ZM108.865 271.524C108.47 271.524 108.14 271.402 107.873 271.156C107.617 270.9 107.489 270.586 107.489 270.212C107.489 269.839 107.617 269.53 107.873 269.284C108.14 269.028 108.47 268.9 108.865 268.9C109.26 268.9 109.585 269.028 109.841 269.284C110.108 269.53 110.241 269.839 110.241 270.212C110.241 270.586 110.108 270.9 109.841 271.156C109.585 271.402 109.26 271.524 108.865 271.524ZM109.969 272.58V281.444H107.729V272.58H109.969ZM115.574 281.588C114.849 281.588 114.198 281.46 113.622 281.204C113.046 280.938 112.587 280.58 112.246 280.132C111.915 279.684 111.734 279.188 111.702 278.644H113.958C114.001 278.986 114.166 279.268 114.454 279.492C114.753 279.716 115.121 279.828 115.558 279.828C115.985 279.828 116.315 279.743 116.55 279.572C116.795 279.402 116.918 279.183 116.918 278.916C116.918 278.628 116.769 278.415 116.47 278.276C116.182 278.127 115.718 277.967 115.078 277.796C114.417 277.636 113.873 277.471 113.446 277.3C113.03 277.13 112.667 276.868 112.358 276.516C112.059 276.164 111.91 275.69 111.91 275.092C111.91 274.602 112.049 274.154 112.326 273.748C112.614 273.343 113.019 273.023 113.542 272.788C114.075 272.554 114.699 272.436 115.414 272.436C116.47 272.436 117.313 272.703 117.942 273.236C118.571 273.759 118.918 274.468 118.982 275.364H116.838C116.806 275.012 116.657 274.735 116.39 274.532C116.134 274.319 115.787 274.212 115.35 274.212C114.945 274.212 114.63 274.287 114.406 274.436C114.193 274.586 114.086 274.794 114.086 275.06C114.086 275.359 114.235 275.588 114.534 275.748C114.833 275.898 115.297 276.052 115.926 276.212C116.566 276.372 117.094 276.538 117.51 276.708C117.926 276.879 118.283 277.146 118.582 277.508C118.891 277.86 119.051 278.33 119.062 278.916C119.062 279.428 118.918 279.887 118.63 280.292C118.353 280.698 117.947 281.018 117.414 281.252C116.891 281.476 116.278 281.588 115.574 281.588ZM122.037 271.524C121.642 271.524 121.312 271.402 121.045 271.156C120.789 270.9 120.661 270.586 120.661 270.212C120.661 269.839 120.789 269.53 121.045 269.284C121.312 269.028 121.642 268.9 122.037 268.9C122.432 268.9 122.757 269.028 123.013 269.284C123.28 269.53 123.413 269.839 123.413 270.212C123.413 270.586 123.28 270.9 123.013 271.156C122.757 271.402 122.432 271.524 122.037 271.524ZM123.141 272.58V281.444H120.901V272.58H123.141ZM127.962 274.42V278.708C127.962 279.007 128.031 279.226 128.17 279.364C128.319 279.492 128.565 279.556 128.906 279.556H129.946V281.444H128.538C126.65 281.444 125.706 280.527 125.706 278.692V274.42H124.65V272.58H125.706V270.388H127.962V272.58H129.946V274.42H127.962ZM134.949 281.588C134.224 281.588 133.573 281.46 132.997 281.204C132.421 280.938 131.962 280.58 131.621 280.132C131.29 279.684 131.109 279.188 131.077 278.644H133.333C133.376 278.986 133.541 279.268 133.829 279.492C134.128 279.716 134.496 279.828 134.933 279.828C135.36 279.828 135.69 279.743 135.925 279.572C136.17 279.402 136.293 279.183 136.293 278.916C136.293 278.628 136.144 278.415 135.845 278.276C135.557 278.127 135.093 277.967 134.453 277.796C133.792 277.636 133.248 277.471 132.821 277.3C132.405 277.13 132.042 276.868 131.733 276.516C131.434 276.164 131.285 275.69 131.285 275.092C131.285 274.602 131.424 274.154 131.701 273.748C131.989 273.343 132.394 273.023 132.917 272.788C133.45 272.554 134.074 272.436 134.789 272.436C135.845 272.436 136.688 272.703 137.317 273.236C137.946 273.759 138.293 274.468 138.357 275.364H136.213C136.181 275.012 136.032 274.735 135.765 274.532C135.509 274.319 135.162 274.212 134.725 274.212C134.32 274.212 134.005 274.287 133.781 274.436C133.568 274.586 133.461 274.794 133.461 275.06C133.461 275.359 133.61 275.588 133.909 275.748C134.208 275.898 134.672 276.052 135.301 276.212C135.941 276.372 136.469 276.538 136.885 276.708C137.301 276.879 137.658 277.146 137.957 277.508C138.266 277.86 138.426 278.33 138.437 278.916C138.437 279.428 138.293 279.887 138.005 280.292C137.728 280.698 137.322 281.018 136.789 281.252C136.266 281.476 135.653 281.588 134.949 281.588ZM143.56 271.844V269.78H147.416V281.444H145.112V271.844H143.56ZM157.469 271.716H152.285V274.452C152.509 274.175 152.829 273.951 153.245 273.78C153.661 273.599 154.104 273.508 154.573 273.508C155.427 273.508 156.125 273.695 156.669 274.068C157.213 274.442 157.608 274.922 157.853 275.508C158.099 276.084 158.221 276.703 158.221 277.364C158.221 278.591 157.869 279.578 157.165 280.324C156.472 281.071 155.48 281.444 154.189 281.444C152.973 281.444 152.003 281.14 151.277 280.532C150.552 279.924 150.141 279.13 150.045 278.148H152.221C152.317 278.575 152.531 278.916 152.861 279.172C153.203 279.428 153.635 279.556 154.157 279.556C154.787 279.556 155.261 279.359 155.581 278.964C155.901 278.57 156.061 278.047 156.061 277.396C156.061 276.735 155.896 276.234 155.565 275.892C155.245 275.54 154.771 275.364 154.141 275.364C153.693 275.364 153.32 275.476 153.021 275.7C152.723 275.924 152.509 276.223 152.381 276.596H150.237V269.748H157.469V271.716ZM159.67 272.644C159.67 271.834 159.905 271.199 160.374 270.74C160.854 270.282 161.467 270.052 162.214 270.052C162.961 270.052 163.569 270.282 164.038 270.74C164.518 271.199 164.758 271.834 164.758 272.644C164.758 273.466 164.518 274.106 164.038 274.564C163.569 275.023 162.961 275.252 162.214 275.252C161.467 275.252 160.854 275.023 160.374 274.564C159.905 274.106 159.67 273.466 159.67 272.644ZM169.942 270.244L163.654 281.444H161.478L167.75 270.244H169.942ZM162.198 271.396C161.611 271.396 161.318 271.812 161.318 272.644C161.318 273.487 161.611 273.908 162.198 273.908C162.486 273.908 162.71 273.807 162.87 273.604C163.03 273.391 163.11 273.071 163.11 272.644C163.11 271.812 162.806 271.396 162.198 271.396ZM166.694 279.028C166.694 278.207 166.929 277.572 167.398 277.124C167.878 276.666 168.491 276.436 169.238 276.436C169.985 276.436 170.587 276.666 171.046 277.124C171.515 277.572 171.75 278.207 171.75 279.028C171.75 279.85 171.515 280.49 171.046 280.948C170.587 281.407 169.985 281.636 169.238 281.636C168.481 281.636 167.867 281.407 167.398 280.948C166.929 280.49 166.694 279.85 166.694 279.028ZM169.222 277.78C168.614 277.78 168.31 278.196 168.31 279.028C168.31 279.871 168.614 280.292 169.222 280.292C169.819 280.292 170.118 279.871 170.118 279.028C170.118 278.196 169.819 277.78 169.222 277.78Z" fill="#1F1D1D"/>
<path d="M208.519 269.098C208.567 269.097 208.616 269.097 208.666 269.096C208.718 269.096 208.771 269.096 208.825 269.096C208.881 269.096 208.937 269.095 208.994 269.095C209.179 269.094 209.364 269.093 209.548 269.093C209.612 269.093 209.676 269.093 209.74 269.092C210.073 269.091 210.407 269.091 210.741 269.091C211.052 269.09 211.362 269.089 211.673 269.087C211.94 269.085 212.207 269.085 212.474 269.084C212.633 269.084 212.793 269.084 212.952 269.083C213.13 269.081 213.308 269.082 213.486 269.082C213.564 269.081 213.564 269.081 213.644 269.08C214.036 269.084 214.272 269.184 214.549 269.46C214.766 269.806 214.793 270.109 214.791 270.507C214.791 270.586 214.791 270.586 214.792 270.666C214.792 270.839 214.792 271.012 214.792 271.185C214.792 271.305 214.792 271.426 214.792 271.546C214.792 271.799 214.792 272.051 214.791 272.303C214.79 272.594 214.791 272.885 214.791 273.176C214.792 273.457 214.792 273.738 214.792 274.019C214.792 274.138 214.792 274.257 214.792 274.376C214.792 274.543 214.792 274.709 214.791 274.876C214.791 274.925 214.792 274.974 214.792 275.024C214.789 275.371 214.75 275.652 214.519 275.926C214.223 276.174 214.022 276.289 213.634 276.283C213.354 276.254 213.109 276.136 212.911 275.938C212.73 275.677 212.667 275.459 212.662 275.146C212.661 275.092 212.66 275.039 212.659 274.984C212.658 274.897 212.658 274.897 212.657 274.809C212.656 274.75 212.655 274.691 212.654 274.63C212.651 274.474 212.649 274.317 212.646 274.16C212.644 274 212.641 273.84 212.639 273.68C212.634 273.367 212.629 273.053 212.624 272.739C212.591 272.772 212.559 272.805 212.525 272.839C211.732 273.637 210.938 274.435 210.144 275.232C209.76 275.617 209.376 276.003 208.992 276.389C208.658 276.726 208.323 277.062 207.988 277.398C207.811 277.575 207.633 277.753 207.457 277.932C207.29 278.1 207.123 278.267 206.956 278.435C206.895 278.496 206.834 278.557 206.773 278.619C206.086 279.315 206.086 279.315 205.579 279.349C205.226 279.348 204.961 279.188 204.72 278.949C204.689 278.917 204.658 278.885 204.626 278.853C204.576 278.802 204.576 278.802 204.524 278.751C204.414 278.641 204.305 278.53 204.196 278.419C204.119 278.342 204.043 278.265 203.966 278.188C203.766 277.986 203.565 277.784 203.365 277.581C203.161 277.374 202.956 277.168 202.751 276.962C202.349 276.558 201.948 276.153 201.548 275.747C201.374 275.82 201.265 275.923 201.133 276.056C201.111 276.078 201.089 276.1 201.067 276.122C200.994 276.195 200.921 276.269 200.849 276.342C200.796 276.395 200.744 276.447 200.692 276.499C200.58 276.612 200.467 276.725 200.355 276.839C200.177 277.018 200 277.196 199.822 277.375C199.38 277.818 198.938 278.263 198.497 278.707C198.154 279.052 197.811 279.397 197.467 279.742C197.29 279.919 197.114 280.097 196.938 280.275C196.828 280.386 196.718 280.496 196.607 280.606C196.556 280.658 196.506 280.709 196.455 280.76C196.385 280.831 196.316 280.9 196.246 280.97C196.207 281.009 196.168 281.049 196.128 281.089C195.877 281.303 195.618 281.388 195.293 281.381C194.958 281.327 194.701 281.16 194.482 280.903C194.314 280.628 194.285 280.309 194.361 279.999C194.513 279.6 194.832 279.326 195.129 279.033C195.191 278.97 195.253 278.908 195.315 278.845C195.483 278.677 195.651 278.509 195.82 278.341C195.997 278.165 196.173 277.988 196.349 277.812C196.645 277.516 196.942 277.22 197.238 276.925C197.581 276.583 197.923 276.241 198.265 275.899C198.594 275.569 198.924 275.239 199.254 274.91C199.394 274.771 199.534 274.63 199.674 274.49C199.839 274.325 200.004 274.16 200.169 273.996C200.23 273.936 200.29 273.875 200.351 273.815C200.433 273.732 200.516 273.65 200.599 273.568C200.623 273.544 200.647 273.52 200.671 273.495C200.91 273.262 201.16 273.149 201.497 273.148C201.543 273.147 201.588 273.146 201.636 273.145C202.012 273.204 202.264 273.428 202.523 273.693C202.556 273.726 202.589 273.759 202.623 273.793C202.732 273.902 202.839 274.011 202.947 274.12C203.023 274.196 203.098 274.272 203.174 274.347C203.371 274.546 203.569 274.745 203.766 274.944C203.968 275.148 204.17 275.351 204.372 275.554C204.768 275.952 205.163 276.351 205.558 276.75C205.86 276.5 206.136 276.226 206.412 275.949C206.464 275.897 206.516 275.845 206.568 275.793C206.707 275.654 206.847 275.514 206.987 275.374C207.133 275.227 207.279 275.081 207.426 274.934C207.702 274.658 207.979 274.381 208.255 274.104C208.57 273.788 208.886 273.473 209.201 273.157C209.849 272.509 210.496 271.86 211.144 271.212C211.094 271.211 211.094 271.211 211.042 271.211C210.723 271.21 210.404 271.208 210.086 271.205C209.922 271.204 209.758 271.202 209.594 271.202C209.405 271.202 209.216 271.2 209.027 271.198C208.969 271.198 208.911 271.198 208.851 271.198C208.487 271.192 208.199 271.139 207.898 270.925C207.616 270.629 207.592 270.341 207.594 269.948C207.624 269.647 207.757 269.484 207.972 269.284C208.162 269.157 208.289 269.099 208.519 269.098Z" fill="#01A371"/>
<rect x="368" y="298" width="204" height="65" rx="10" fill="white"/>
<path d="M391.18 345.305H388.15V348.41H386.56V345.305H383.53V343.865H386.56V340.76H388.15V343.865H391.18V345.305ZM393.383 340.625V339.065H396.503V350H394.778V340.625H393.383ZM400.982 347.03C401.082 347.53 401.297 347.91 401.627 348.17C401.957 348.43 402.402 348.56 402.962 348.56C403.672 348.56 404.192 348.28 404.522 347.72C404.852 347.16 405.017 346.205 405.017 344.855C404.777 345.195 404.437 345.46 403.997 345.65C403.567 345.83 403.097 345.92 402.587 345.92C401.937 345.92 401.347 345.79 400.817 345.53C400.287 345.26 399.867 344.865 399.557 344.345C399.257 343.815 399.107 343.175 399.107 342.425C399.107 341.325 399.427 340.45 400.067 339.8C400.717 339.14 401.607 338.81 402.737 338.81C404.097 338.81 405.062 339.265 405.632 340.175C406.212 341.075 406.502 342.46 406.502 344.33C406.502 345.62 406.392 346.675 406.172 347.495C405.962 348.315 405.592 348.935 405.062 349.355C404.532 349.775 403.797 349.985 402.857 349.985C401.787 349.985 400.962 349.705 400.382 349.145C399.802 348.585 399.477 347.88 399.407 347.03H400.982ZM402.887 344.48C403.487 344.48 403.957 344.295 404.297 343.925C404.647 343.545 404.822 343.045 404.822 342.425C404.822 341.735 404.637 341.2 404.267 340.82C403.907 340.43 403.412 340.235 402.782 340.235C402.152 340.235 401.652 340.435 401.282 340.835C400.922 341.225 400.742 341.74 400.742 342.38C400.742 342.99 400.917 343.495 401.267 343.895C401.627 344.285 402.167 344.48 402.887 344.48ZM409.289 350.105C408.979 350.105 408.719 350 408.509 349.79C408.299 349.58 408.194 349.32 408.194 349.01C408.194 348.7 408.299 348.44 408.509 348.23C408.719 348.02 408.979 347.915 409.289 347.915C409.589 347.915 409.844 348.02 410.054 348.23C410.264 348.44 410.369 348.7 410.369 349.01C410.369 349.32 410.264 349.58 410.054 349.79C409.844 350 409.589 350.105 409.289 350.105ZM419.042 340.535H414.017V343.52C414.227 343.24 414.537 343.005 414.947 342.815C415.367 342.625 415.812 342.53 416.282 342.53C417.122 342.53 417.802 342.71 418.322 343.07C418.852 343.43 419.227 343.885 419.447 344.435C419.677 344.985 419.792 345.565 419.792 346.175C419.792 346.915 419.647 347.575 419.357 348.155C419.077 348.725 418.652 349.175 418.082 349.505C417.522 349.835 416.832 350 416.012 350C414.922 350 414.047 349.73 413.387 349.19C412.727 348.65 412.332 347.935 412.202 347.045H413.867C413.977 347.515 414.222 347.89 414.602 348.17C414.982 348.44 415.457 348.575 416.027 348.575C416.737 348.575 417.267 348.36 417.617 347.93C417.977 347.5 418.157 346.93 418.157 346.22C418.157 345.5 417.977 344.95 417.617 344.57C417.257 344.18 416.727 343.985 416.027 343.985C415.537 343.985 415.122 344.11 414.782 344.36C414.452 344.6 414.212 344.93 414.062 345.35H412.442V339.035H419.042V340.535ZM421.302 341.705C421.302 340.975 421.512 340.405 421.932 339.995C422.362 339.575 422.912 339.365 423.582 339.365C424.252 339.365 424.797 339.575 425.217 339.995C425.647 340.405 425.862 340.975 425.862 341.705C425.862 342.435 425.647 343.01 425.217 343.43C424.797 343.85 424.252 344.06 423.582 344.06C422.912 344.06 422.362 343.85 421.932 343.43C421.512 343.01 421.302 342.435 421.302 341.705ZM430.452 339.56L424.467 350H422.787L428.772 339.56H430.452ZM423.582 340.4C422.952 340.4 422.637 340.835 422.637 341.705C422.637 342.585 422.952 343.025 423.582 343.025C423.882 343.025 424.112 342.92 424.272 342.71C424.442 342.49 424.527 342.155 424.527 341.705C424.527 340.835 424.212 340.4 423.582 340.4ZM427.407 347.84C427.407 347.11 427.617 346.54 428.037 346.13C428.467 345.71 429.017 345.5 429.687 345.5C430.347 345.5 430.887 345.71 431.307 346.13C431.737 346.54 431.952 347.11 431.952 347.84C431.952 348.57 431.737 349.145 431.307 349.565C430.887 349.985 430.347 350.195 429.687 350.195C429.017 350.195 428.467 349.985 428.037 349.565C427.617 349.145 427.407 348.57 427.407 347.84ZM429.672 346.535C429.042 346.535 428.727 346.97 428.727 347.84C428.727 348.71 429.042 349.145 429.672 349.145C430.302 349.145 430.617 348.71 430.617 347.84C430.617 346.97 430.302 346.535 429.672 346.535Z" fill="#FF1A1A"/>
<path d="M389.072 314.926V316.395H386.654V324H384.834V316.395H382.416V314.926H389.072ZM393.598 324.117C392.905 324.117 392.281 323.965 391.726 323.662C391.171 323.35 390.734 322.912 390.413 322.349C390.101 321.786 389.945 321.136 389.945 320.399C389.945 319.662 390.105 319.012 390.426 318.449C390.755 317.886 391.202 317.452 391.765 317.149C392.328 316.837 392.957 316.681 393.65 316.681C394.343 316.681 394.972 316.837 395.535 317.149C396.098 317.452 396.54 317.886 396.861 318.449C397.19 319.012 397.355 319.662 397.355 320.399C397.355 321.136 397.186 321.786 396.848 322.349C396.519 322.912 396.068 323.35 395.496 323.662C394.933 323.965 394.3 324.117 393.598 324.117ZM393.598 322.531C393.927 322.531 394.235 322.453 394.521 322.297C394.816 322.132 395.05 321.89 395.223 321.569C395.396 321.248 395.483 320.858 395.483 320.399C395.483 319.714 395.301 319.19 394.937 318.826C394.582 318.453 394.144 318.267 393.624 318.267C393.104 318.267 392.666 318.453 392.311 318.826C391.964 319.19 391.791 319.714 391.791 320.399C391.791 321.084 391.96 321.612 392.298 321.985C392.645 322.349 393.078 322.531 393.598 322.531ZM400.809 318.293V321.777C400.809 322.02 400.865 322.197 400.978 322.31C401.099 322.414 401.299 322.466 401.576 322.466H402.421V324H401.277C399.743 324 398.976 323.255 398.976 321.764V318.293H398.118V316.798H398.976V315.017H400.809V316.798H402.421V318.293H400.809ZM403.262 320.373C403.262 319.645 403.405 318.999 403.691 318.436C403.986 317.873 404.38 317.439 404.874 317.136C405.377 316.833 405.936 316.681 406.551 316.681C407.088 316.681 407.556 316.789 407.955 317.006C408.362 317.223 408.687 317.496 408.93 317.825V316.798H410.763V324H408.93V322.947C408.696 323.285 408.371 323.567 407.955 323.792C407.548 324.009 407.075 324.117 406.538 324.117C405.931 324.117 405.377 323.961 404.874 323.649C404.38 323.337 403.986 322.899 403.691 322.336C403.405 321.764 403.262 321.11 403.262 320.373ZM408.93 320.399C408.93 319.957 408.843 319.58 408.67 319.268C408.497 318.947 408.263 318.705 407.968 318.54C407.673 318.367 407.357 318.28 407.019 318.28C406.681 318.28 406.369 318.362 406.083 318.527C405.797 318.692 405.563 318.934 405.381 319.255C405.208 319.567 405.121 319.94 405.121 320.373C405.121 320.806 405.208 321.188 405.381 321.517C405.563 321.838 405.797 322.085 406.083 322.258C406.378 322.431 406.69 322.518 407.019 322.518C407.357 322.518 407.673 322.436 407.968 322.271C408.263 322.098 408.497 321.855 408.67 321.543C408.843 321.222 408.93 320.841 408.93 320.399ZM414.361 314.38V324H412.541V314.38H414.361ZM428.2 316.694C429.084 316.694 429.795 316.967 430.332 317.513C430.878 318.05 431.151 318.804 431.151 319.775V324H429.331V320.022C429.331 319.459 429.188 319.03 428.902 318.735C428.616 318.432 428.226 318.28 427.732 318.28C427.238 318.28 426.844 318.432 426.549 318.735C426.263 319.03 426.12 319.459 426.12 320.022V324H424.3V320.022C424.3 319.459 424.157 319.03 423.871 318.735C423.585 318.432 423.195 318.28 422.701 318.28C422.199 318.28 421.8 318.432 421.505 318.735C421.219 319.03 421.076 319.459 421.076 320.022V324H419.256V316.798H421.076V317.669C421.31 317.366 421.609 317.127 421.973 316.954C422.346 316.781 422.753 316.694 423.195 316.694C423.759 316.694 424.261 316.815 424.703 317.058C425.145 317.292 425.488 317.63 425.73 318.072C425.964 317.656 426.302 317.322 426.744 317.071C427.195 316.82 427.68 316.694 428.2 316.694ZM436.076 324.117C435.383 324.117 434.759 323.965 434.204 323.662C433.65 323.35 433.212 322.912 432.891 322.349C432.579 321.786 432.423 321.136 432.423 320.399C432.423 319.662 432.584 319.012 432.904 318.449C433.234 317.886 433.68 317.452 434.243 317.149C434.807 316.837 435.435 316.681 436.128 316.681C436.822 316.681 437.45 316.837 438.013 317.149C438.577 317.452 439.019 317.886 439.339 318.449C439.669 319.012 439.833 319.662 439.833 320.399C439.833 321.136 439.664 321.786 439.326 322.349C438.997 322.912 438.546 323.35 437.974 323.662C437.411 323.965 436.778 324.117 436.076 324.117ZM436.076 322.531C436.406 322.531 436.713 322.453 436.999 322.297C437.294 322.132 437.528 321.89 437.701 321.569C437.875 321.248 437.961 320.858 437.961 320.399C437.961 319.714 437.779 319.19 437.415 318.826C437.06 318.453 436.622 318.267 436.102 318.267C435.582 318.267 435.145 318.453 434.789 318.826C434.443 319.19 434.269 319.714 434.269 320.399C434.269 321.084 434.438 321.612 434.776 321.985C435.123 322.349 435.556 322.531 436.076 322.531ZM445.159 316.694C446.017 316.694 446.711 316.967 447.239 317.513C447.768 318.05 448.032 318.804 448.032 319.775V324H446.212V320.022C446.212 319.45 446.069 319.012 445.783 318.709C445.497 318.397 445.107 318.241 444.613 318.241C444.111 318.241 443.712 318.397 443.417 318.709C443.131 319.012 442.988 319.45 442.988 320.022V324H441.168V316.798H442.988V317.695C443.231 317.383 443.539 317.14 443.911 316.967C444.293 316.785 444.709 316.694 445.159 316.694ZM451.882 318.293V321.777C451.882 322.02 451.939 322.197 452.051 322.31C452.173 322.414 452.372 322.466 452.649 322.466H453.494V324H452.35C450.816 324 450.049 323.255 450.049 321.764V318.293H449.191V316.798H450.049V315.017H451.882V316.798H453.494V318.293H451.882ZM458.859 316.694C459.405 316.694 459.891 316.815 460.315 317.058C460.74 317.292 461.069 317.643 461.303 318.111C461.546 318.57 461.667 319.125 461.667 319.775V324H459.847V320.022C459.847 319.45 459.704 319.012 459.418 318.709C459.132 318.397 458.742 318.241 458.248 318.241C457.746 318.241 457.347 318.397 457.052 318.709C456.766 319.012 456.623 319.45 456.623 320.022V324H454.803V314.38H456.623V317.695C456.857 317.383 457.169 317.14 457.559 316.967C457.949 316.785 458.383 316.694 458.859 316.694ZM465.218 314.38V324H463.398V314.38H465.218ZM473.906 316.798L469.447 327.406H467.51L469.07 323.818L466.184 316.798H468.225L470.084 321.829L471.969 316.798H473.906ZM479.805 317.916C480.039 317.535 480.342 317.236 480.715 317.019C481.096 316.802 481.53 316.694 482.015 316.694V318.605H481.534C480.962 318.605 480.529 318.739 480.234 319.008C479.948 319.277 479.805 319.745 479.805 320.412V324H477.985V316.798H479.805V317.916ZM489.936 320.243C489.936 320.503 489.918 320.737 489.884 320.945H484.619C484.662 321.465 484.844 321.872 485.165 322.167C485.485 322.462 485.88 322.609 486.348 322.609C487.024 322.609 487.505 322.319 487.791 321.738H489.754C489.546 322.431 489.147 323.003 488.558 323.454C487.968 323.896 487.245 324.117 486.387 324.117C485.693 324.117 485.069 323.965 484.515 323.662C483.969 323.35 483.54 322.912 483.228 322.349C482.924 321.786 482.773 321.136 482.773 320.399C482.773 319.654 482.924 318.999 483.228 318.436C483.531 317.873 483.956 317.439 484.502 317.136C485.048 316.833 485.676 316.681 486.387 316.681C487.071 316.681 487.682 316.828 488.22 317.123C488.766 317.418 489.186 317.838 489.481 318.384C489.784 318.921 489.936 319.541 489.936 320.243ZM488.051 319.723C488.042 319.255 487.873 318.882 487.544 318.605C487.214 318.319 486.811 318.176 486.335 318.176C485.884 318.176 485.503 318.315 485.191 318.592C484.887 318.861 484.701 319.238 484.632 319.723H488.051ZM494.267 322.323L496.087 316.798H498.024L495.359 324H493.149L490.497 316.798H492.447L494.267 322.323ZM505.741 320.243C505.741 320.503 505.724 320.737 505.689 320.945H500.424C500.468 321.465 500.65 321.872 500.97 322.167C501.291 322.462 501.685 322.609 502.153 322.609C502.829 322.609 503.31 322.319 503.596 321.738H505.559C505.351 322.431 504.953 323.003 504.363 323.454C503.774 323.896 503.05 324.117 502.192 324.117C501.499 324.117 500.875 323.965 500.32 323.662C499.774 323.35 499.345 322.912 499.033 322.349C498.73 321.786 498.578 321.136 498.578 320.399C498.578 319.654 498.73 318.999 499.033 318.436C499.337 317.873 499.761 317.439 500.307 317.136C500.853 316.833 501.482 316.681 502.192 316.681C502.877 316.681 503.488 316.828 504.025 317.123C504.571 317.418 504.992 317.838 505.286 318.384C505.59 318.921 505.741 319.541 505.741 320.243ZM503.856 319.723C503.848 319.255 503.679 318.882 503.349 318.605C503.02 318.319 502.617 318.176 502.14 318.176C501.69 318.176 501.308 318.315 500.996 318.592C500.693 318.861 500.507 319.238 500.437 319.723H503.856ZM511.061 316.694C511.919 316.694 512.612 316.967 513.141 317.513C513.67 318.05 513.934 318.804 513.934 319.775V324H512.114V320.022C512.114 319.45 511.971 319.012 511.685 318.709C511.399 318.397 511.009 318.241 510.515 318.241C510.012 318.241 509.614 318.397 509.319 318.709C509.033 319.012 508.89 319.45 508.89 320.022V324H507.07V316.798H508.89V317.695C509.133 317.383 509.44 317.14 509.813 316.967C510.194 316.785 510.61 316.694 511.061 316.694ZM522.464 316.798V324H520.631V323.09C520.397 323.402 520.089 323.649 519.708 323.831C519.335 324.004 518.928 324.091 518.486 324.091C517.922 324.091 517.424 323.974 516.991 323.74C516.557 323.497 516.215 323.146 515.964 322.687C515.721 322.219 515.6 321.664 515.6 321.023V316.798H517.42V320.763C517.42 321.335 517.563 321.777 517.849 322.089C518.135 322.392 518.525 322.544 519.019 322.544C519.521 322.544 519.916 322.392 520.202 322.089C520.488 321.777 520.631 321.335 520.631 320.763V316.798H522.464ZM530.954 320.243C530.954 320.503 530.937 320.737 530.902 320.945H525.637C525.681 321.465 525.863 321.872 526.183 322.167C526.504 322.462 526.898 322.609 527.366 322.609C528.042 322.609 528.523 322.319 528.809 321.738H530.772C530.564 322.431 530.166 323.003 529.576 323.454C528.987 323.896 528.263 324.117 527.405 324.117C526.712 324.117 526.088 323.965 525.533 323.662C524.987 323.35 524.558 322.912 524.246 322.349C523.943 321.786 523.791 321.136 523.791 320.399C523.791 319.654 523.943 318.999 524.246 318.436C524.55 317.873 524.974 317.439 525.52 317.136C526.066 316.833 526.695 316.681 527.405 316.681C528.09 316.681 528.701 316.828 529.238 317.123C529.784 317.418 530.205 317.838 530.499 318.384C530.803 318.921 530.954 319.541 530.954 320.243ZM529.069 319.723C529.061 319.255 528.892 318.882 528.562 318.605C528.233 318.319 527.83 318.176 527.353 318.176C526.903 318.176 526.521 318.315 526.209 318.592C525.906 318.861 525.72 319.238 525.65 319.723H529.069Z" fill="#1F1D1D"/>
<path d="M551.581 314.74C551.618 314.74 551.656 314.74 551.695 314.739C551.736 314.739 551.777 314.739 551.819 314.739C551.862 314.739 551.906 314.738 551.95 314.738C552.094 314.737 552.237 314.737 552.381 314.737C552.43 314.737 552.48 314.736 552.529 314.736C552.789 314.735 553.048 314.735 553.308 314.735C553.549 314.735 553.791 314.733 554.032 314.732C554.24 314.731 554.447 314.73 554.655 314.73C554.779 314.73 554.902 314.73 555.026 314.729C555.165 314.728 555.303 314.728 555.441 314.728C555.502 314.727 555.502 314.727 555.565 314.727C555.869 314.729 556.053 314.807 556.267 315.022C556.436 315.29 556.458 315.526 556.456 315.836C556.456 315.897 556.456 315.897 556.456 315.96C556.457 316.094 556.457 316.228 556.456 316.362C556.456 316.456 556.456 316.55 556.457 316.644C556.457 316.84 556.456 317.036 556.456 317.232C556.455 317.458 556.455 317.684 556.456 317.91C556.457 318.129 556.457 318.347 556.456 318.565C556.456 318.658 556.456 318.751 556.457 318.843C556.457 318.973 556.456 319.102 556.456 319.232C556.456 319.27 556.456 319.308 556.456 319.347C556.454 319.617 556.424 319.834 556.244 320.048C556.014 320.241 555.858 320.329 555.556 320.325C555.339 320.303 555.148 320.211 554.994 320.057C554.854 319.855 554.805 319.684 554.801 319.441C554.8 319.4 554.799 319.358 554.799 319.315C554.798 319.248 554.798 319.248 554.797 319.18C554.796 319.134 554.795 319.088 554.795 319.041C554.792 318.919 554.791 318.797 554.789 318.675C554.787 318.551 554.785 318.427 554.783 318.302C554.779 318.058 554.775 317.815 554.771 317.571C554.746 317.596 554.721 317.622 554.695 317.648C554.078 318.269 553.461 318.889 552.844 319.508C552.545 319.808 552.247 320.108 551.949 320.408C551.689 320.669 551.429 320.931 551.168 321.192C551.03 321.33 550.892 321.468 550.755 321.607C550.626 321.737 550.496 321.868 550.366 321.998C550.318 322.045 550.271 322.093 550.223 322.141C549.69 322.682 549.69 322.682 549.296 322.708C549.021 322.708 548.815 322.583 548.627 322.397C548.604 322.373 548.58 322.348 548.555 322.323C548.516 322.284 548.516 322.284 548.476 322.244C548.39 322.158 548.305 322.072 548.221 321.985C548.161 321.925 548.102 321.866 548.042 321.806C547.886 321.649 547.73 321.492 547.575 321.334C547.416 321.174 547.257 321.013 547.097 320.853C546.785 320.539 546.473 320.224 546.162 319.909C546.027 319.966 545.942 320.046 545.84 320.149C545.823 320.166 545.806 320.183 545.788 320.2C545.732 320.257 545.675 320.314 545.619 320.371C545.578 320.412 545.538 320.453 545.497 320.493C545.41 320.581 545.322 320.669 545.235 320.757C545.097 320.896 544.959 321.035 544.82 321.174C544.477 321.519 544.134 321.864 543.791 322.209C543.524 322.477 543.258 322.746 542.99 323.014C542.853 323.151 542.716 323.29 542.579 323.428C542.493 323.514 542.408 323.6 542.322 323.686C542.282 323.725 542.243 323.765 542.204 323.805C542.15 323.86 542.095 323.914 542.041 323.968C542.011 323.999 541.98 324.029 541.949 324.061C541.754 324.227 541.553 324.293 541.301 324.288C541.04 324.246 540.84 324.116 540.67 323.916C540.54 323.702 540.517 323.455 540.576 323.213C540.694 322.904 540.942 322.691 541.173 322.462C541.221 322.414 541.269 322.365 541.317 322.317C541.448 322.186 541.579 322.055 541.71 321.925C541.848 321.788 541.984 321.651 542.121 321.514C542.352 321.283 542.582 321.053 542.813 320.824C543.079 320.559 543.345 320.293 543.611 320.026C543.866 319.77 544.123 319.514 544.379 319.258C544.488 319.15 544.597 319.041 544.706 318.932C544.834 318.803 544.962 318.675 545.091 318.548C545.138 318.501 545.185 318.454 545.232 318.407C545.296 318.342 545.36 318.278 545.425 318.215C545.443 318.196 545.462 318.177 545.481 318.158C545.666 317.977 545.861 317.889 546.123 317.889C546.158 317.888 546.194 317.887 546.23 317.886C546.523 317.932 546.719 318.106 546.92 318.312C546.946 318.338 546.972 318.363 546.998 318.39C547.082 318.474 547.166 318.559 547.25 318.644C547.308 318.703 547.367 318.762 547.426 318.821C547.58 318.975 547.733 319.13 547.886 319.285C548.043 319.443 548.2 319.601 548.357 319.759C548.665 320.068 548.972 320.378 549.279 320.688C549.514 320.494 549.728 320.281 549.943 320.065C549.984 320.025 550.024 319.985 550.064 319.945C550.173 319.836 550.281 319.727 550.39 319.618C550.503 319.505 550.617 319.391 550.731 319.277C550.946 319.062 551.161 318.847 551.376 318.631C551.621 318.386 551.866 318.141 552.111 317.896C552.614 317.392 553.118 316.888 553.621 316.383C553.582 316.383 553.582 316.383 553.542 316.383C553.294 316.382 553.046 316.381 552.798 316.378C552.671 316.377 552.544 316.376 552.416 316.376C552.269 316.376 552.123 316.374 551.976 316.372C551.931 316.373 551.885 316.373 551.839 316.373C551.556 316.368 551.332 316.327 551.098 316.161C550.879 315.93 550.86 315.706 550.862 315.401C550.885 315.167 550.988 315.04 551.156 314.885C551.303 314.787 551.402 314.741 551.581 314.74Z" fill="#01A371"/>
</g>
<defs>
<clipPath id="clip0_343_2">
<rect width="585" height="392" fill="white"/>
</clipPath>
</defs>
</svg>
