<svg width="569" height="450" viewBox="0 0 569 450" fill="none" xmlns="http://www.w3.org/2000/svg">
<rect x="93" y="25" width="410" height="361" rx="10" fill="#D9D9D9"/>
<rect x="244" y="271" width="158" height="154" rx="10" fill="white"/>
<rect x="256" y="368" width="28" height="43" rx="7" fill="#E4E4E4"/>
<rect x="289" y="353" width="28" height="58" rx="7" fill="#E4E4E4"/>
<rect x="355" y="338" width="28" height="73" rx="7" fill="#E4E4E4"/>
<rect x="322" y="325" width="28" height="86" rx="7" fill="#FF1A1A"/>
<path d="M264.568 310.618H261.74V313.516H260.256V310.618H257.428V309.274H260.256V306.376H261.74V309.274H264.568V310.618ZM266.624 306.25V304.794H269.536V315H267.926V306.25H266.624ZM272.611 312.83C273.507 312.055 274.211 311.421 274.725 310.926C275.247 310.422 275.681 309.899 276.027 309.358C276.372 308.817 276.545 308.275 276.545 307.734C276.545 307.174 276.409 306.735 276.139 306.418C275.877 306.101 275.462 305.942 274.893 305.942C274.342 305.942 273.913 306.119 273.605 306.474C273.306 306.819 273.147 307.286 273.129 307.874H271.589C271.617 306.81 271.934 305.998 272.541 305.438C273.157 304.869 273.936 304.584 274.879 304.584C275.896 304.584 276.689 304.864 277.259 305.424C277.837 305.984 278.127 306.731 278.127 307.664C278.127 308.336 277.954 308.985 277.609 309.61C277.273 310.226 276.867 310.781 276.391 311.276C275.924 311.761 275.327 312.326 274.599 312.97L273.969 313.53H278.407V314.86H271.603V313.698L272.611 312.83ZM280.663 315.098C280.373 315.098 280.131 315 279.935 314.804C279.739 314.608 279.641 314.365 279.641 314.076C279.641 313.787 279.739 313.544 279.935 313.348C280.131 313.152 280.373 313.054 280.663 313.054C280.943 313.054 281.181 313.152 281.377 313.348C281.573 313.544 281.671 313.787 281.671 314.076C281.671 314.365 281.573 314.608 281.377 314.804C281.181 315 280.943 315.098 280.663 315.098ZM289.766 306.166H285.076V308.952C285.272 308.691 285.561 308.471 285.944 308.294C286.336 308.117 286.751 308.028 287.19 308.028C287.974 308.028 288.608 308.196 289.094 308.532C289.588 308.868 289.938 309.293 290.144 309.806C290.358 310.319 290.466 310.861 290.466 311.43C290.466 312.121 290.33 312.737 290.06 313.278C289.798 313.81 289.402 314.23 288.87 314.538C288.347 314.846 287.703 315 286.938 315C285.92 315 285.104 314.748 284.488 314.244C283.872 313.74 283.503 313.073 283.382 312.242H284.936C285.038 312.681 285.267 313.031 285.622 313.292C285.976 313.544 286.42 313.67 286.952 313.67C287.614 313.67 288.109 313.469 288.436 313.068C288.772 312.667 288.94 312.135 288.94 311.472C288.94 310.8 288.772 310.287 288.436 309.932C288.1 309.568 287.605 309.386 286.952 309.386C286.494 309.386 286.107 309.503 285.79 309.736C285.482 309.96 285.258 310.268 285.118 310.66H283.606V304.766H289.766V306.166ZM291.875 307.258C291.875 306.577 292.071 306.045 292.463 305.662C292.864 305.27 293.378 305.074 294.003 305.074C294.628 305.074 295.137 305.27 295.529 305.662C295.93 306.045 296.131 306.577 296.131 307.258C296.131 307.939 295.93 308.476 295.529 308.868C295.137 309.26 294.628 309.456 294.003 309.456C293.378 309.456 292.864 309.26 292.463 308.868C292.071 308.476 291.875 307.939 291.875 307.258ZM300.415 305.256L294.829 315H293.261L298.847 305.256H300.415ZM294.003 306.04C293.415 306.04 293.121 306.446 293.121 307.258C293.121 308.079 293.415 308.49 294.003 308.49C294.283 308.49 294.498 308.392 294.647 308.196C294.806 307.991 294.885 307.678 294.885 307.258C294.885 306.446 294.591 306.04 294.003 306.04ZM297.573 312.984C297.573 312.303 297.769 311.771 298.161 311.388C298.562 310.996 299.076 310.8 299.701 310.8C300.317 310.8 300.821 310.996 301.213 311.388C301.614 311.771 301.815 312.303 301.815 312.984C301.815 313.665 301.614 314.202 301.213 314.594C300.821 314.986 300.317 315.182 299.701 315.182C299.076 315.182 298.562 314.986 298.161 314.594C297.769 314.202 297.573 313.665 297.573 312.984ZM299.687 311.766C299.099 311.766 298.805 312.172 298.805 312.984C298.805 313.796 299.099 314.202 299.687 314.202C300.275 314.202 300.569 313.796 300.569 312.984C300.569 312.172 300.275 311.766 299.687 311.766Z" fill="#1F1D1D"/>
<path d="M263.656 285.322L260.84 293H258.97L256.154 285.322H257.804L259.916 291.427L262.017 285.322H263.656ZM265.36 286.18C265.089 286.18 264.862 286.096 264.678 285.927C264.502 285.751 264.414 285.535 264.414 285.278C264.414 285.021 264.502 284.809 264.678 284.64C264.862 284.464 265.089 284.376 265.36 284.376C265.632 284.376 265.855 284.464 266.031 284.64C266.215 284.809 266.306 285.021 266.306 285.278C266.306 285.535 266.215 285.751 266.031 285.927C265.855 286.096 265.632 286.18 265.36 286.18ZM266.119 286.906V293H264.579V286.906H266.119ZM269.973 293.099C269.474 293.099 269.027 293.011 268.631 292.835C268.235 292.652 267.92 292.406 267.685 292.098C267.458 291.79 267.333 291.449 267.311 291.075H268.862C268.891 291.31 269.005 291.504 269.203 291.658C269.408 291.812 269.661 291.889 269.962 291.889C270.255 291.889 270.483 291.83 270.644 291.713C270.813 291.596 270.897 291.445 270.897 291.262C270.897 291.064 270.794 290.917 270.589 290.822C270.391 290.719 270.072 290.609 269.632 290.492C269.177 290.382 268.803 290.268 268.51 290.151C268.224 290.034 267.975 289.854 267.762 289.612C267.557 289.37 267.454 289.044 267.454 288.633C267.454 288.296 267.549 287.988 267.74 287.709C267.938 287.43 268.217 287.21 268.576 287.049C268.943 286.888 269.372 286.807 269.863 286.807C270.589 286.807 271.168 286.99 271.601 287.357C272.034 287.716 272.272 288.204 272.316 288.82H270.842C270.82 288.578 270.717 288.387 270.534 288.248C270.358 288.101 270.12 288.028 269.819 288.028C269.54 288.028 269.324 288.079 269.17 288.182C269.023 288.285 268.95 288.428 268.95 288.611C268.95 288.816 269.053 288.974 269.258 289.084C269.463 289.187 269.782 289.293 270.215 289.403C270.655 289.513 271.018 289.627 271.304 289.744C271.59 289.861 271.836 290.045 272.041 290.294C272.254 290.536 272.364 290.859 272.371 291.262C272.371 291.614 272.272 291.929 272.074 292.208C271.883 292.487 271.605 292.707 271.238 292.868C270.879 293.022 270.457 293.099 269.973 293.099ZM274.416 286.18C274.145 286.18 273.917 286.096 273.734 285.927C273.558 285.751 273.47 285.535 273.47 285.278C273.47 285.021 273.558 284.809 273.734 284.64C273.917 284.464 274.145 284.376 274.416 284.376C274.687 284.376 274.911 284.464 275.087 284.64C275.27 284.809 275.362 285.021 275.362 285.278C275.362 285.535 275.27 285.751 275.087 285.927C274.911 286.096 274.687 286.18 274.416 286.18ZM275.175 286.906V293H273.635V286.906H275.175ZM278.49 288.171V291.119C278.49 291.324 278.537 291.475 278.633 291.57C278.735 291.658 278.904 291.702 279.139 291.702H279.854V293H278.886C277.588 293 276.939 292.369 276.939 291.108V288.171H276.213V286.906H276.939V285.399H278.49V286.906H279.854V288.171H278.49ZM283.667 293.099C283.08 293.099 282.552 292.971 282.083 292.714C281.614 292.45 281.243 292.08 280.972 291.603C280.708 291.126 280.576 290.576 280.576 289.953C280.576 289.33 280.712 288.78 280.983 288.303C281.262 287.826 281.639 287.46 282.116 287.203C282.593 286.939 283.124 286.807 283.711 286.807C284.298 286.807 284.829 286.939 285.306 287.203C285.783 287.46 286.157 287.826 286.428 288.303C286.707 288.78 286.846 289.33 286.846 289.953C286.846 290.576 286.703 291.126 286.417 291.603C286.138 292.08 285.757 292.45 285.273 292.714C284.796 292.971 284.261 293.099 283.667 293.099ZM283.667 291.757C283.946 291.757 284.206 291.691 284.448 291.559C284.697 291.42 284.895 291.214 285.042 290.943C285.189 290.672 285.262 290.342 285.262 289.953C285.262 289.374 285.108 288.93 284.8 288.622C284.499 288.307 284.129 288.149 283.689 288.149C283.249 288.149 282.879 288.307 282.578 288.622C282.285 288.93 282.138 289.374 282.138 289.953C282.138 290.532 282.281 290.98 282.567 291.295C282.86 291.603 283.227 291.757 283.667 291.757ZM289.516 287.852C289.714 287.529 289.97 287.276 290.286 287.093C290.608 286.91 290.975 286.818 291.386 286.818V288.435H290.979C290.495 288.435 290.128 288.549 289.879 288.776C289.637 289.003 289.516 289.399 289.516 289.964V293H287.976V286.906H289.516V287.852ZM296.837 288.171V291.119C296.837 291.324 296.885 291.475 296.98 291.57C297.083 291.658 297.251 291.702 297.486 291.702H298.201V293H297.233C295.935 293 295.286 292.369 295.286 291.108V288.171H294.56V286.906H295.286V285.399H296.837V286.906H298.201V288.171H296.837ZM302.015 293.099C301.428 293.099 300.9 292.971 300.431 292.714C299.961 292.45 299.591 292.08 299.32 291.603C299.056 291.126 298.924 290.576 298.924 289.953C298.924 289.33 299.059 288.78 299.331 288.303C299.609 287.826 299.987 287.46 300.464 287.203C300.94 286.939 301.472 286.807 302.059 286.807C302.645 286.807 303.177 286.939 303.654 287.203C304.13 287.46 304.504 287.826 304.776 288.303C305.054 288.78 305.194 289.33 305.194 289.953C305.194 290.576 305.051 291.126 304.765 291.603C304.486 292.08 304.105 292.45 303.621 292.714C303.144 292.971 302.609 293.099 302.015 293.099ZM302.015 291.757C302.293 291.757 302.554 291.691 302.796 291.559C303.045 291.42 303.243 291.214 303.39 290.943C303.536 290.672 303.61 290.342 303.61 289.953C303.61 289.374 303.456 288.93 303.148 288.622C302.847 288.307 302.477 288.149 302.037 288.149C301.597 288.149 301.226 288.307 300.926 288.622C300.632 288.93 300.486 289.374 300.486 289.953C300.486 290.532 300.629 290.98 300.915 291.295C301.208 291.603 301.575 291.757 302.015 291.757ZM308.571 289.15C308.571 288.395 308.739 287.72 309.077 287.126C309.421 286.525 309.887 286.059 310.474 285.729C311.068 285.392 311.731 285.223 312.465 285.223C313.323 285.223 314.074 285.443 314.72 285.883C315.365 286.323 315.816 286.932 316.073 287.709H314.302C314.126 287.342 313.876 287.067 313.554 286.884C313.238 286.701 312.872 286.609 312.454 286.609C312.006 286.609 311.607 286.715 311.255 286.928C310.91 287.133 310.639 287.427 310.441 287.808C310.25 288.189 310.155 288.637 310.155 289.15C310.155 289.656 310.25 290.103 310.441 290.492C310.639 290.873 310.91 291.17 311.255 291.383C311.607 291.588 312.006 291.691 312.454 291.691C312.872 291.691 313.238 291.599 313.554 291.416C313.876 291.225 314.126 290.947 314.302 290.58H316.073C315.816 291.365 315.365 291.977 314.72 292.417C314.082 292.85 313.33 293.066 312.465 293.066C311.731 293.066 311.068 292.901 310.474 292.571C309.887 292.234 309.421 291.768 309.077 291.174C308.739 290.58 308.571 289.905 308.571 289.15ZM318.928 284.86V293H317.388V284.86H318.928ZM321.23 286.18C320.959 286.18 320.732 286.096 320.548 285.927C320.372 285.751 320.284 285.535 320.284 285.278C320.284 285.021 320.372 284.809 320.548 284.64C320.732 284.464 320.959 284.376 321.23 284.376C321.502 284.376 321.725 284.464 321.901 284.64C322.085 284.809 322.176 285.021 322.176 285.278C322.176 285.535 322.085 285.751 321.901 285.927C321.725 286.096 321.502 286.18 321.23 286.18ZM321.989 286.906V293H320.449V286.906H321.989ZM329.176 289.821C329.176 290.041 329.161 290.239 329.132 290.415H324.677C324.714 290.855 324.868 291.2 325.139 291.449C325.41 291.698 325.744 291.823 326.14 291.823C326.712 291.823 327.119 291.577 327.361 291.086H329.022C328.846 291.673 328.509 292.157 328.01 292.538C327.511 292.912 326.899 293.099 326.173 293.099C325.586 293.099 325.058 292.971 324.589 292.714C324.127 292.45 323.764 292.08 323.5 291.603C323.243 291.126 323.115 290.576 323.115 289.953C323.115 289.322 323.243 288.769 323.5 288.292C323.757 287.815 324.116 287.449 324.578 287.192C325.04 286.935 325.572 286.807 326.173 286.807C326.752 286.807 327.269 286.932 327.724 287.181C328.186 287.43 328.542 287.786 328.791 288.248C329.048 288.703 329.176 289.227 329.176 289.821ZM327.581 289.381C327.574 288.985 327.431 288.67 327.152 288.435C326.873 288.193 326.532 288.072 326.129 288.072C325.748 288.072 325.425 288.189 325.161 288.424C324.904 288.651 324.747 288.97 324.688 289.381H327.581ZM333.677 286.818C334.403 286.818 334.99 287.049 335.437 287.511C335.884 287.966 336.108 288.604 336.108 289.425V293H334.568V289.634C334.568 289.15 334.447 288.78 334.205 288.523C333.963 288.259 333.633 288.127 333.215 288.127C332.79 288.127 332.452 288.259 332.203 288.523C331.961 288.78 331.84 289.15 331.84 289.634V293H330.3V286.906H331.84V287.665C332.045 287.401 332.306 287.196 332.621 287.049C332.944 286.895 333.296 286.818 333.677 286.818ZM339.365 288.171V291.119C339.365 291.324 339.413 291.475 339.508 291.57C339.611 291.658 339.78 291.702 340.014 291.702H340.729V293H339.761C338.463 293 337.814 292.369 337.814 291.108V288.171H337.088V286.906H337.814V285.399H339.365V286.906H340.729V288.171H339.365ZM344.084 289.15C344.084 288.395 344.253 287.72 344.59 287.126C344.935 286.525 345.401 286.059 345.987 285.729C346.581 285.392 347.245 285.223 347.978 285.223C348.836 285.223 349.588 285.443 350.233 285.883C350.879 286.323 351.33 286.932 351.586 287.709H349.815C349.639 287.342 349.39 287.067 349.067 286.884C348.752 286.701 348.385 286.609 347.967 286.609C347.52 286.609 347.12 286.715 346.768 286.928C346.424 287.133 346.152 287.427 345.954 287.808C345.764 288.189 345.668 288.637 345.668 289.15C345.668 289.656 345.764 290.103 345.954 290.492C346.152 290.873 346.424 291.17 346.768 291.383C347.12 291.588 347.52 291.691 347.967 291.691C348.385 291.691 348.752 291.599 349.067 291.416C349.39 291.225 349.639 290.947 349.815 290.58H351.586C351.33 291.365 350.879 291.977 350.233 292.417C349.595 292.85 348.844 293.066 347.978 293.066C347.245 293.066 346.581 292.901 345.987 292.571C345.401 292.234 344.935 291.768 344.59 291.174C344.253 290.58 344.084 289.905 344.084 289.15ZM355.608 293.099C355.021 293.099 354.493 292.971 354.024 292.714C353.554 292.45 353.184 292.08 352.913 291.603C352.649 291.126 352.517 290.576 352.517 289.953C352.517 289.33 352.652 288.78 352.924 288.303C353.202 287.826 353.58 287.46 354.057 287.203C354.533 286.939 355.065 286.807 355.652 286.807C356.238 286.807 356.77 286.939 357.247 287.203C357.723 287.46 358.097 287.826 358.369 288.303C358.647 288.78 358.787 289.33 358.787 289.953C358.787 290.576 358.644 291.126 358.358 291.603C358.079 292.08 357.698 292.45 357.214 292.714C356.737 292.971 356.202 293.099 355.608 293.099ZM355.608 291.757C355.886 291.757 356.147 291.691 356.389 291.559C356.638 291.42 356.836 291.214 356.983 290.943C357.129 290.672 357.203 290.342 357.203 289.953C357.203 289.374 357.049 288.93 356.741 288.622C356.44 288.307 356.07 288.149 355.63 288.149C355.19 288.149 354.819 288.307 354.519 288.622C354.225 288.93 354.079 289.374 354.079 289.953C354.079 290.532 354.222 290.98 354.508 291.295C354.801 291.603 355.168 291.757 355.608 291.757ZM363.293 286.818C364.019 286.818 364.606 287.049 365.053 287.511C365.501 287.966 365.724 288.604 365.724 289.425V293H364.184V289.634C364.184 289.15 364.063 288.78 363.821 288.523C363.579 288.259 363.249 288.127 362.831 288.127C362.406 288.127 362.069 288.259 361.819 288.523C361.577 288.78 361.456 289.15 361.456 289.634V293H359.916V286.906H361.456V287.665C361.662 287.401 361.922 287.196 362.237 287.049C362.56 286.895 362.912 286.818 363.293 286.818ZM369.73 291.581L371.27 286.906H372.909L370.654 293H368.784L366.54 286.906H368.19L369.73 291.581ZM374.456 293.077C374.177 293.077 373.946 292.993 373.763 292.824C373.587 292.648 373.499 292.432 373.499 292.175C373.499 291.918 373.587 291.706 373.763 291.537C373.946 291.361 374.177 291.273 374.456 291.273C374.727 291.273 374.951 291.361 375.127 291.537C375.303 291.706 375.391 291.918 375.391 292.175C375.391 292.432 375.303 292.648 375.127 292.824C374.951 292.993 374.727 293.077 374.456 293.077Z" fill="#1F1D1D"/>
<rect x="20" y="64" width="194" height="36" rx="18" fill="white"/>
<path d="M40.926 76.228V86H38.966V76.228H40.926ZM47.1605 78.132C48.0845 78.132 48.8312 78.426 49.4005 79.014C49.9698 79.5927 50.2545 80.4047 50.2545 81.45V86H48.2945V81.716C48.2945 81.1 48.1405 80.6287 47.8325 80.302C47.5245 79.966 47.1045 79.798 46.5725 79.798C46.0312 79.798 45.6018 79.966 45.2845 80.302C44.9765 80.6287 44.8225 81.1 44.8225 81.716V86H42.8625V78.244H44.8225V79.21C45.0838 78.874 45.4152 78.6127 45.8165 78.426C46.2272 78.23 46.6752 78.132 47.1605 78.132ZM51.6143 82.122C51.6143 81.3193 51.7777 80.6193 52.1043 80.022C52.431 79.4153 52.8837 78.9487 53.4623 78.622C54.041 78.286 54.7037 78.118 55.4503 78.118C56.4117 78.118 57.205 78.3607 57.8303 78.846C58.465 79.322 58.8897 79.994 59.1043 80.862H56.9903C56.8783 80.526 56.687 80.2647 56.4163 80.078C56.155 79.882 55.8283 79.784 55.4363 79.784C54.8763 79.784 54.433 79.9893 54.1063 80.4C53.7797 80.8013 53.6163 81.3753 53.6163 82.122C53.6163 82.8593 53.7797 83.4333 54.1063 83.844C54.433 84.2453 54.8763 84.446 55.4363 84.446C56.2297 84.446 56.7477 84.0913 56.9903 83.382H59.1043C58.8897 84.222 58.465 84.8893 57.8303 85.384C57.1957 85.8787 56.4023 86.126 55.4503 86.126C54.7037 86.126 54.041 85.9627 53.4623 85.636C52.8837 85.3 52.431 84.8333 52.1043 84.236C51.7777 83.6293 51.6143 82.9247 51.6143 82.122ZM62.5002 79.448C62.7522 79.0373 63.0789 78.7153 63.4802 78.482C63.8909 78.2487 64.3576 78.132 64.8802 78.132V80.19H64.3622C63.7462 80.19 63.2796 80.3347 62.9622 80.624C62.6542 80.9133 62.5002 81.4173 62.5002 82.136V86H60.5402V78.244H62.5002V79.448ZM73.4104 81.954C73.4104 82.234 73.3917 82.486 73.3544 82.71H67.6844C67.731 83.27 67.927 83.7087 68.2724 84.026C68.6177 84.3433 69.0424 84.502 69.5464 84.502C70.2744 84.502 70.7924 84.1893 71.1004 83.564H73.2144C72.9904 84.3107 72.561 84.9267 71.9264 85.412C71.2917 85.888 70.5124 86.126 69.5884 86.126C68.8417 86.126 68.1697 85.9627 67.5724 85.636C66.9844 85.3 66.5224 84.8287 66.1864 84.222C65.8597 83.6153 65.6964 82.9153 65.6964 82.122C65.6964 81.3193 65.8597 80.6147 66.1864 80.008C66.513 79.4013 66.9704 78.9347 67.5584 78.608C68.1464 78.2813 68.823 78.118 69.5884 78.118C70.3257 78.118 70.9837 78.2767 71.5624 78.594C72.1504 78.9113 72.603 79.364 72.9204 79.952C73.247 80.5307 73.4104 81.198 73.4104 81.954ZM71.3804 81.394C71.371 80.89 71.189 80.4887 70.8344 80.19C70.4797 79.882 70.0457 79.728 69.5324 79.728C69.047 79.728 68.6364 79.8773 68.3004 80.176C67.9737 80.4653 67.773 80.8713 67.6984 81.394H71.3804ZM74.337 82.094C74.337 81.31 74.491 80.6147 74.799 80.008C75.1163 79.4013 75.541 78.9347 76.073 78.608C76.6143 78.2813 77.2163 78.118 77.879 78.118C78.4577 78.118 78.9617 78.2347 79.391 78.468C79.8297 78.7013 80.1797 78.9953 80.441 79.35V78.244H82.415V86H80.441V84.866C80.189 85.23 79.839 85.5333 79.391 85.776C78.9523 86.0093 78.4437 86.126 77.865 86.126C77.2117 86.126 76.6143 85.958 76.073 85.622C75.541 85.286 75.1163 84.8147 74.799 84.208C74.491 83.592 74.337 82.8873 74.337 82.094ZM80.441 82.122C80.441 81.646 80.3477 81.24 80.161 80.904C79.9743 80.5587 79.7223 80.2973 79.405 80.12C79.0877 79.9333 78.747 79.84 78.383 79.84C78.019 79.84 77.683 79.9287 77.375 80.106C77.067 80.2833 76.815 80.5447 76.619 80.89C76.4323 81.226 76.339 81.6273 76.339 82.094C76.339 82.5607 76.4323 82.9713 76.619 83.326C76.815 83.6713 77.067 83.9373 77.375 84.124C77.6923 84.3107 78.0283 84.404 78.383 84.404C78.747 84.404 79.0877 84.3153 79.405 84.138C79.7223 83.9513 79.9743 83.69 80.161 83.354C80.3477 83.0087 80.441 82.598 80.441 82.122ZM87.2973 86.126C86.6626 86.126 86.0933 86.014 85.5893 85.79C85.0853 85.5567 84.6839 85.244 84.3853 84.852C84.0959 84.46 83.9373 84.026 83.9093 83.55H85.8833C85.9206 83.8487 86.0653 84.096 86.3173 84.292C86.5786 84.488 86.9006 84.586 87.2833 84.586C87.6566 84.586 87.9459 84.5113 88.1513 84.362C88.3659 84.2127 88.4733 84.0213 88.4733 83.788C88.4733 83.536 88.3426 83.3493 88.0813 83.228C87.8293 83.0973 87.4233 82.9573 86.8633 82.808C86.2846 82.668 85.8086 82.5233 85.4353 82.374C85.0713 82.2247 84.7539 81.996 84.4833 81.688C84.2219 81.38 84.0913 80.9647 84.0913 80.442C84.0913 80.0127 84.2126 79.6207 84.4553 79.266C84.7073 78.9113 85.0619 78.6313 85.5193 78.426C85.9859 78.2207 86.5319 78.118 87.1573 78.118C88.0813 78.118 88.8186 78.3513 89.3693 78.818C89.9199 79.2753 90.2233 79.896 90.2793 80.68H88.4033C88.3753 80.372 88.2446 80.1293 88.0113 79.952C87.7873 79.7653 87.4839 79.672 87.1013 79.672C86.7466 79.672 86.4713 79.7373 86.2753 79.868C86.0886 79.9987 85.9953 80.1807 85.9953 80.414C85.9953 80.6753 86.1259 80.876 86.3873 81.016C86.6486 81.1467 87.0546 81.282 87.6053 81.422C88.1653 81.562 88.6273 81.7067 88.9913 81.856C89.3553 82.0053 89.6679 82.2387 89.9293 82.556C90.1999 82.864 90.3399 83.2747 90.3493 83.788C90.3493 84.236 90.2233 84.6373 89.9713 84.992C89.7286 85.3467 89.3739 85.6267 88.9073 85.832C88.4499 86.028 87.9133 86.126 87.2973 86.126ZM99.1682 81.954C99.1682 82.234 99.1495 82.486 99.1122 82.71H93.4422C93.4889 83.27 93.6849 83.7087 94.0302 84.026C94.3755 84.3433 94.8002 84.502 95.3042 84.502C96.0322 84.502 96.5502 84.1893 96.8582 83.564H98.9722C98.7482 84.3107 98.3189 84.9267 97.6842 85.412C97.0495 85.888 96.2702 86.126 95.3462 86.126C94.5995 86.126 93.9275 85.9627 93.3302 85.636C92.7422 85.3 92.2802 84.8287 91.9442 84.222C91.6175 83.6153 91.4542 82.9153 91.4542 82.122C91.4542 81.3193 91.6175 80.6147 91.9442 80.008C92.2709 79.4013 92.7282 78.9347 93.3162 78.608C93.9042 78.2813 94.5809 78.118 95.3462 78.118C96.0835 78.118 96.7415 78.2767 97.3202 78.594C97.9082 78.9113 98.3609 79.364 98.6782 79.952C99.0049 80.5307 99.1682 81.198 99.1682 81.954ZM97.1382 81.394C97.1289 80.89 96.9469 80.4887 96.5922 80.19C96.2375 79.882 95.8035 79.728 95.2902 79.728C94.8049 79.728 94.3942 79.8773 94.0582 80.176C93.7315 80.4653 93.5309 80.8713 93.4562 81.394H97.1382ZM112.713 76.228L109.129 86H106.749L103.165 76.228H105.265L107.953 83.998L110.627 76.228H112.713ZM114.882 77.32C114.537 77.32 114.247 77.2127 114.014 76.998C113.79 76.774 113.678 76.4987 113.678 76.172C113.678 75.8453 113.79 75.5747 114.014 75.36C114.247 75.136 114.537 75.024 114.882 75.024C115.227 75.024 115.512 75.136 115.736 75.36C115.969 75.5747 116.086 75.8453 116.086 76.172C116.086 76.4987 115.969 76.774 115.736 76.998C115.512 77.2127 115.227 77.32 114.882 77.32ZM115.848 78.244V86H113.888V78.244H115.848ZM120.752 86.126C120.118 86.126 119.548 86.014 119.044 85.79C118.54 85.5567 118.139 85.244 117.84 84.852C117.551 84.46 117.392 84.026 117.364 83.55H119.338C119.376 83.8487 119.52 84.096 119.772 84.292C120.034 84.488 120.356 84.586 120.738 84.586C121.112 84.586 121.401 84.5113 121.606 84.362C121.821 84.2127 121.928 84.0213 121.928 83.788C121.928 83.536 121.798 83.3493 121.536 83.228C121.284 83.0973 120.878 82.9573 120.318 82.808C119.74 82.668 119.264 82.5233 118.89 82.374C118.526 82.2247 118.209 81.996 117.938 81.688C117.677 81.38 117.546 80.9647 117.546 80.442C117.546 80.0127 117.668 79.6207 117.91 79.266C118.162 78.9113 118.517 78.6313 118.974 78.426C119.441 78.2207 119.987 78.118 120.612 78.118C121.536 78.118 122.274 78.3513 122.824 78.818C123.375 79.2753 123.678 79.896 123.734 80.68H121.858C121.83 80.372 121.7 80.1293 121.466 79.952C121.242 79.7653 120.939 79.672 120.556 79.672C120.202 79.672 119.926 79.7373 119.73 79.868C119.544 79.9987 119.45 80.1807 119.45 80.414C119.45 80.6753 119.581 80.876 119.842 81.016C120.104 81.1467 120.51 81.282 121.06 81.422C121.62 81.562 122.082 81.7067 122.446 81.856C122.81 82.0053 123.123 82.2387 123.384 82.556C123.655 82.864 123.795 83.2747 123.804 83.788C123.804 84.236 123.678 84.6373 123.426 84.992C123.184 85.3467 122.829 85.6267 122.362 85.832C121.905 86.028 121.368 86.126 120.752 86.126ZM126.407 77.32C126.062 77.32 125.773 77.2127 125.539 76.998C125.315 76.774 125.203 76.4987 125.203 76.172C125.203 75.8453 125.315 75.5747 125.539 75.36C125.773 75.136 126.062 75.024 126.407 75.024C126.753 75.024 127.037 75.136 127.261 75.36C127.495 75.5747 127.611 75.8453 127.611 76.172C127.611 76.4987 127.495 76.774 127.261 76.998C127.037 77.2127 126.753 77.32 126.407 77.32ZM127.373 78.244V86H125.413V78.244H127.373ZM131.592 79.854V83.606C131.592 83.8673 131.652 84.0587 131.774 84.18C131.904 84.292 132.119 84.348 132.418 84.348H133.328V86H132.096C130.444 86 129.618 85.1973 129.618 83.592V79.854H128.694V78.244H129.618V76.326H131.592V78.244H133.328V79.854H131.592ZM137.705 86.126C137.071 86.126 136.501 86.014 135.997 85.79C135.493 85.5567 135.092 85.244 134.793 84.852C134.504 84.46 134.345 84.026 134.317 83.55H136.291C136.329 83.8487 136.473 84.096 136.725 84.292C136.987 84.488 137.309 84.586 137.691 84.586C138.065 84.586 138.354 84.5113 138.559 84.362C138.774 84.2127 138.881 84.0213 138.881 83.788C138.881 83.536 138.751 83.3493 138.489 83.228C138.237 83.0973 137.831 82.9573 137.271 82.808C136.693 82.668 136.217 82.5233 135.843 82.374C135.479 82.2247 135.162 81.996 134.891 81.688C134.63 81.38 134.499 80.9647 134.499 80.442C134.499 80.0127 134.621 79.6207 134.863 79.266C135.115 78.9113 135.47 78.6313 135.927 78.426C136.394 78.2207 136.94 78.118 137.565 78.118C138.489 78.118 139.227 78.3513 139.777 78.818C140.328 79.2753 140.631 79.896 140.687 80.68H138.811C138.783 80.372 138.653 80.1293 138.419 79.952C138.195 79.7653 137.892 79.672 137.509 79.672C137.155 79.672 136.879 79.7373 136.683 79.868C136.497 79.9987 136.403 80.1807 136.403 80.414C136.403 80.6753 136.534 80.876 136.795 81.016C137.057 81.1467 137.463 81.282 138.013 81.422C138.573 81.562 139.035 81.7067 139.399 81.856C139.763 82.0053 140.076 82.2387 140.337 82.556C140.608 82.864 140.748 83.2747 140.757 83.788C140.757 84.236 140.631 84.6373 140.379 84.992C140.137 85.3467 139.782 85.6267 139.315 85.832C138.858 86.028 138.321 86.126 137.705 86.126ZM145.24 77.6V75.794H148.614V86H146.598V77.6H145.24ZM157.411 77.488H152.875V79.882C153.071 79.6393 153.351 79.4433 153.715 79.294C154.079 79.1353 154.466 79.056 154.877 79.056C155.623 79.056 156.235 79.2193 156.711 79.546C157.187 79.8727 157.532 80.2927 157.747 80.806C157.961 81.31 158.069 81.8513 158.069 82.43C158.069 83.5033 157.761 84.3667 157.145 85.02C156.538 85.6733 155.67 86 154.541 86C153.477 86 152.627 85.734 151.993 85.202C151.358 84.67 150.999 83.9747 150.915 83.116H152.819C152.903 83.4893 153.089 83.788 153.379 84.012C153.677 84.236 154.055 84.348 154.513 84.348C155.063 84.348 155.479 84.1753 155.759 83.83C156.039 83.4847 156.179 83.0273 156.179 82.458C156.179 81.8793 156.034 81.4407 155.745 81.142C155.465 80.834 155.049 80.68 154.499 80.68C154.107 80.68 153.78 80.778 153.519 80.974C153.257 81.17 153.071 81.4313 152.959 81.758H151.083V75.766H157.411V77.488ZM159.336 78.3C159.336 77.5907 159.542 77.0353 159.952 76.634C160.372 76.2327 160.909 76.032 161.562 76.032C162.216 76.032 162.748 76.2327 163.158 76.634C163.578 77.0353 163.788 77.5907 163.788 78.3C163.788 79.0187 163.578 79.5787 163.158 79.98C162.748 80.3813 162.216 80.582 161.562 80.582C160.909 80.582 160.372 80.3813 159.952 79.98C159.542 79.5787 159.336 79.0187 159.336 78.3ZM168.324 76.2L162.822 86H160.918L166.406 76.2H168.324ZM161.548 77.208C161.035 77.208 160.778 77.572 160.778 78.3C160.778 79.0373 161.035 79.406 161.548 79.406C161.8 79.406 161.996 79.3173 162.136 79.14C162.276 78.9533 162.346 78.6733 162.346 78.3C162.346 77.572 162.08 77.208 161.548 77.208ZM165.482 83.886C165.482 83.1673 165.688 82.612 166.098 82.22C166.518 81.8187 167.055 81.618 167.708 81.618C168.362 81.618 168.889 81.8187 169.29 82.22C169.701 82.612 169.906 83.1673 169.906 83.886C169.906 84.6047 169.701 85.1647 169.29 85.566C168.889 85.9673 168.362 86.168 167.708 86.168C167.046 86.168 166.509 85.9673 166.098 85.566C165.688 85.1647 165.482 84.6047 165.482 83.886ZM167.694 82.794C167.162 82.794 166.896 83.158 166.896 83.886C166.896 84.6233 167.162 84.992 167.694 84.992C168.217 84.992 168.478 84.6233 168.478 83.886C168.478 83.158 168.217 82.794 167.694 82.794Z" fill="#1F1D1D"/>
<path d="M192.243 75.9891C192.282 75.9887 192.322 75.9883 192.363 75.9879C192.406 75.9879 192.449 75.9878 192.493 75.9878C192.539 75.9875 192.585 75.9872 192.632 75.9868C192.783 75.9859 192.934 75.9855 193.085 75.9853C193.137 75.9851 193.189 75.9849 193.241 75.9848C193.515 75.9838 193.788 75.9833 194.061 75.9832C194.315 75.983 194.569 75.9818 194.823 75.9802C195.042 75.9789 195.26 75.9783 195.479 75.9782C195.609 75.9782 195.739 75.9778 195.87 75.9767C196.015 75.9757 196.161 75.9759 196.307 75.9764C196.371 75.9755 196.371 75.9755 196.436 75.9746C196.757 75.9777 196.95 76.0592 197.176 76.2854C197.354 76.5682 197.376 76.8161 197.374 77.1422C197.375 77.2067 197.375 77.2067 197.375 77.2724C197.376 77.4138 197.375 77.5552 197.375 77.6966C197.375 77.7952 197.375 77.8938 197.375 77.9925C197.375 78.199 197.375 78.4054 197.375 78.6119C197.374 78.8499 197.374 79.088 197.375 79.326C197.375 79.5559 197.375 79.7857 197.375 80.0155C197.375 80.113 197.375 80.2104 197.375 80.3078C197.376 80.4441 197.375 80.5804 197.374 80.7167C197.375 80.7568 197.375 80.7968 197.375 80.838C197.373 81.1221 197.341 81.3513 197.152 81.5759C196.91 81.7788 196.745 81.8724 196.428 81.8677C196.199 81.8445 195.998 81.7479 195.836 81.5857C195.688 81.3725 195.637 81.1934 195.633 80.9375C195.632 80.8937 195.631 80.8499 195.63 80.8048C195.629 80.7342 195.629 80.7342 195.628 80.6623C195.627 80.6139 195.627 80.5656 195.626 80.5158C195.624 80.3876 195.622 80.2594 195.62 80.1313C195.618 80.0003 195.616 79.8694 195.613 79.7385C195.609 79.4818 195.605 79.2252 195.602 78.9685C195.575 78.9954 195.548 79.0222 195.521 79.0498C194.872 79.7031 194.222 80.3558 193.572 81.0079C193.258 81.3232 192.944 81.6388 192.63 81.9547C192.357 82.2302 192.083 82.5053 191.808 82.78C191.663 82.9254 191.518 83.071 191.374 83.217C191.237 83.3545 191.101 83.4916 190.964 83.6283C190.914 83.6784 190.864 83.7288 190.814 83.7793C190.252 84.349 190.252 84.349 189.837 84.3762C189.548 84.3757 189.332 84.2446 189.134 84.0489C189.109 84.023 189.084 83.9971 189.058 83.9705C189.017 83.9293 189.017 83.9293 188.975 83.8873C188.885 83.7971 188.795 83.7062 188.706 83.6153C188.643 83.5524 188.581 83.4895 188.518 83.4266C188.354 83.2616 188.19 83.0959 188.026 82.9302C187.859 82.7609 187.691 82.5922 187.524 82.4235C187.195 82.0927 186.867 81.7613 186.539 81.4295C186.397 81.4893 186.307 81.5736 186.199 81.6823C186.182 81.7001 186.164 81.718 186.145 81.7364C186.086 81.7961 186.026 81.8562 185.967 81.9162C185.924 81.9592 185.882 82.0021 185.839 82.045C185.747 82.1374 185.655 82.2299 185.563 82.3225C185.418 82.469 185.272 82.6151 185.127 82.7612C184.765 83.1242 184.404 83.4875 184.043 83.851C183.762 84.1335 183.482 84.4158 183.2 84.6977C183.056 84.8429 182.911 84.9883 182.767 85.1339C182.677 85.2246 182.587 85.3149 182.497 85.4053C182.455 85.4471 182.414 85.4891 182.372 85.5312C182.315 85.5887 182.258 85.6458 182.201 85.7029C182.169 85.735 182.137 85.767 182.104 85.8001C181.899 85.9751 181.688 86.045 181.422 86.0388C181.147 85.9949 180.937 85.8584 180.758 85.6482C180.621 85.4227 180.597 85.1621 180.659 84.9079C180.783 84.5821 181.045 84.3577 181.287 84.1176C181.338 84.0666 181.389 84.0156 181.439 83.9645C181.577 83.8264 181.715 83.689 181.853 83.5517C181.997 83.4077 182.142 83.2632 182.286 83.1188C182.528 82.8765 182.77 82.6345 183.013 82.3928C183.294 82.1136 183.574 81.8337 183.853 81.5535C184.122 81.2836 184.392 81.0141 184.662 80.7449C184.777 80.6304 184.891 80.5158 185.006 80.4011C185.141 80.266 185.276 80.1313 185.411 79.9969C185.461 79.9476 185.51 79.8981 185.56 79.8485C185.627 79.7807 185.695 79.7134 185.763 79.6462C185.782 79.6266 185.802 79.607 185.822 79.5867C186.017 79.3959 186.222 79.3034 186.498 79.303C186.535 79.3022 186.572 79.3015 186.611 79.3007C186.919 79.349 187.125 79.5323 187.337 79.7487C187.364 79.7757 187.391 79.8028 187.419 79.8307C187.508 79.9195 187.596 80.0089 187.684 80.0983C187.746 80.1603 187.807 80.2222 187.869 80.2842C188.031 80.4467 188.193 80.6097 188.354 80.7727C188.519 80.9393 188.684 81.1054 188.85 81.2715C189.174 81.5972 189.497 81.9233 189.82 82.2498C190.068 82.0456 190.293 81.8213 190.519 81.5944C190.562 81.552 190.604 81.5096 190.646 81.4673C190.761 81.3529 190.875 81.2385 190.989 81.124C191.109 81.0041 191.228 80.8843 191.348 80.7646C191.575 80.538 191.801 80.3114 192.027 80.0848C192.285 79.8266 192.543 79.5686 192.801 79.3105C193.331 78.78 193.861 78.2493 194.391 77.7185C194.349 77.7184 194.349 77.7184 194.307 77.7184C194.046 77.7177 193.785 77.716 193.525 77.7134C193.391 77.712 193.256 77.711 193.122 77.7109C192.968 77.7107 192.813 77.7089 192.659 77.7071C192.611 77.7072 192.564 77.7074 192.515 77.7075C192.217 77.7025 191.981 77.6592 191.734 77.4842C191.504 77.2418 191.484 77.006 191.486 76.6844C191.511 76.4385 191.619 76.3048 191.795 76.1414C191.951 76.0379 192.054 75.9901 192.243 75.9891Z" fill="#01A371"/>
<rect x="388" y="108" width="174" height="59" rx="10" fill="white"/>
<path d="M410.568 149.618H407.74V152.516H406.256V149.618H403.428V148.274H406.256V145.376H407.74V148.274H410.568V149.618ZM412.624 145.25V143.794H415.536V154H413.926V145.25H412.624ZM419.717 151.228C419.81 151.695 420.011 152.049 420.319 152.292C420.627 152.535 421.042 152.656 421.565 152.656C422.227 152.656 422.713 152.395 423.021 151.872C423.329 151.349 423.483 150.458 423.483 149.198C423.259 149.515 422.941 149.763 422.531 149.94C422.129 150.108 421.691 150.192 421.215 150.192C420.608 150.192 420.057 150.071 419.563 149.828C419.068 149.576 418.676 149.207 418.387 148.722C418.107 148.227 417.967 147.63 417.967 146.93C417.967 145.903 418.265 145.087 418.863 144.48C419.469 143.864 420.3 143.556 421.355 143.556C422.624 143.556 423.525 143.981 424.057 144.83C424.598 145.67 424.869 146.963 424.869 148.708C424.869 149.912 424.766 150.897 424.561 151.662C424.365 152.427 424.019 153.006 423.525 153.398C423.03 153.79 422.344 153.986 421.467 153.986C420.468 153.986 419.698 153.725 419.157 153.202C418.615 152.679 418.312 152.021 418.247 151.228H419.717ZM421.495 148.848C422.055 148.848 422.493 148.675 422.811 148.33C423.137 147.975 423.301 147.509 423.301 146.93C423.301 146.286 423.128 145.787 422.783 145.432C422.447 145.068 421.985 144.886 421.397 144.886C420.809 144.886 420.342 145.073 419.997 145.446C419.661 145.81 419.493 146.291 419.493 146.888C419.493 147.457 419.656 147.929 419.983 148.302C420.319 148.666 420.823 148.848 421.495 148.848ZM427.469 154.098C427.18 154.098 426.937 154 426.741 153.804C426.545 153.608 426.447 153.365 426.447 153.076C426.447 152.787 426.545 152.544 426.741 152.348C426.937 152.152 427.18 152.054 427.469 152.054C427.749 152.054 427.987 152.152 428.183 152.348C428.379 152.544 428.477 152.787 428.477 153.076C428.477 153.365 428.379 153.608 428.183 153.804C427.987 154 427.749 154.098 427.469 154.098ZM436.572 145.166H431.882V147.952C432.078 147.691 432.368 147.471 432.75 147.294C433.142 147.117 433.558 147.028 433.996 147.028C434.78 147.028 435.415 147.196 435.9 147.532C436.395 147.868 436.745 148.293 436.95 148.806C437.165 149.319 437.272 149.861 437.272 150.43C437.272 151.121 437.137 151.737 436.866 152.278C436.605 152.81 436.208 153.23 435.676 153.538C435.154 153.846 434.51 154 433.744 154C432.727 154 431.91 153.748 431.294 153.244C430.678 152.74 430.31 152.073 430.188 151.242H431.742C431.845 151.681 432.074 152.031 432.428 152.292C432.783 152.544 433.226 152.67 433.758 152.67C434.421 152.67 434.916 152.469 435.242 152.068C435.578 151.667 435.746 151.135 435.746 150.472C435.746 149.8 435.578 149.287 435.242 148.932C434.906 148.568 434.412 148.386 433.758 148.386C433.301 148.386 432.914 148.503 432.596 148.736C432.288 148.96 432.064 149.268 431.924 149.66H430.412V143.766H436.572V145.166ZM438.682 146.258C438.682 145.577 438.878 145.045 439.27 144.662C439.671 144.27 440.184 144.074 440.81 144.074C441.435 144.074 441.944 144.27 442.336 144.662C442.737 145.045 442.938 145.577 442.938 146.258C442.938 146.939 442.737 147.476 442.336 147.868C441.944 148.26 441.435 148.456 440.81 148.456C440.184 148.456 439.671 148.26 439.27 147.868C438.878 147.476 438.682 146.939 438.682 146.258ZM447.222 144.256L441.636 154H440.068L445.654 144.256H447.222ZM440.81 145.04C440.222 145.04 439.928 145.446 439.928 146.258C439.928 147.079 440.222 147.49 440.81 147.49C441.09 147.49 441.304 147.392 441.454 147.196C441.612 146.991 441.692 146.678 441.692 146.258C441.692 145.446 441.398 145.04 440.81 145.04ZM444.38 151.984C444.38 151.303 444.576 150.771 444.968 150.388C445.369 149.996 445.882 149.8 446.508 149.8C447.124 149.8 447.628 149.996 448.02 150.388C448.421 150.771 448.622 151.303 448.622 151.984C448.622 152.665 448.421 153.202 448.02 153.594C447.628 153.986 447.124 154.182 446.508 154.182C445.882 154.182 445.369 153.986 444.968 153.594C444.576 153.202 444.38 152.665 444.38 151.984ZM446.494 150.766C445.906 150.766 445.612 151.172 445.612 151.984C445.612 152.796 445.906 153.202 446.494 153.202C447.082 153.202 447.376 152.796 447.376 151.984C447.376 151.172 447.082 150.766 446.494 150.766Z" fill="#FF1A1A"/>
<path d="M407.984 123.322V124.565H405.938V131H404.398V124.565H402.352V123.322H407.984ZM411.814 131.099C411.227 131.099 410.699 130.971 410.23 130.714C409.76 130.45 409.39 130.08 409.119 129.603C408.855 129.126 408.723 128.576 408.723 127.953C408.723 127.33 408.858 126.78 409.13 126.303C409.408 125.826 409.786 125.46 410.263 125.203C410.739 124.939 411.271 124.807 411.858 124.807C412.444 124.807 412.976 124.939 413.453 125.203C413.929 125.46 414.303 125.826 414.575 126.303C414.853 126.78 414.993 127.33 414.993 127.953C414.993 128.576 414.85 129.126 414.564 129.603C414.285 130.08 413.904 130.45 413.42 130.714C412.943 130.971 412.408 131.099 411.814 131.099ZM411.814 129.757C412.092 129.757 412.353 129.691 412.595 129.559C412.844 129.42 413.042 129.214 413.189 128.943C413.335 128.672 413.409 128.342 413.409 127.953C413.409 127.374 413.255 126.93 412.947 126.622C412.646 126.307 412.276 126.149 411.836 126.149C411.396 126.149 411.025 126.307 410.725 126.622C410.431 126.93 410.285 127.374 410.285 127.953C410.285 128.532 410.428 128.98 410.714 129.295C411.007 129.603 411.374 129.757 411.814 129.757ZM417.915 126.171V129.119C417.915 129.324 417.963 129.475 418.058 129.57C418.161 129.658 418.33 129.702 418.564 129.702H419.279V131H418.311C417.013 131 416.364 130.369 416.364 129.108V126.171H415.638V124.906H416.364V123.399H417.915V124.906H419.279V126.171H417.915ZM419.991 127.931C419.991 127.315 420.112 126.769 420.354 126.292C420.603 125.815 420.937 125.449 421.355 125.192C421.78 124.935 422.253 124.807 422.774 124.807C423.229 124.807 423.625 124.899 423.962 125.082C424.307 125.265 424.582 125.496 424.787 125.775V124.906H426.338V131H424.787V130.109C424.589 130.395 424.314 130.633 423.962 130.824C423.617 131.007 423.218 131.099 422.763 131.099C422.25 131.099 421.78 130.967 421.355 130.703C420.937 130.439 420.603 130.069 420.354 129.592C420.112 129.108 419.991 128.554 419.991 127.931ZM424.787 127.953C424.787 127.579 424.714 127.26 424.567 126.996C424.42 126.725 424.222 126.519 423.973 126.38C423.724 126.233 423.456 126.16 423.17 126.16C422.884 126.16 422.62 126.23 422.378 126.369C422.136 126.508 421.938 126.714 421.784 126.985C421.637 127.249 421.564 127.564 421.564 127.931C421.564 128.298 421.637 128.62 421.784 128.899C421.938 129.17 422.136 129.379 422.378 129.526C422.627 129.673 422.891 129.746 423.17 129.746C423.456 129.746 423.724 129.676 423.973 129.537C424.222 129.39 424.42 129.185 424.567 128.921C424.714 128.65 424.787 128.327 424.787 127.953ZM429.382 122.86V131H427.842V122.86H429.382ZM441.093 124.818C441.841 124.818 442.442 125.049 442.897 125.511C443.359 125.966 443.59 126.604 443.59 127.425V131H442.05V127.634C442.05 127.157 441.929 126.794 441.687 126.545C441.445 126.288 441.115 126.16 440.697 126.16C440.279 126.16 439.945 126.288 439.696 126.545C439.454 126.794 439.333 127.157 439.333 127.634V131H437.793V127.634C437.793 127.157 437.672 126.794 437.43 126.545C437.188 126.288 436.858 126.16 436.44 126.16C436.014 126.16 435.677 126.288 435.428 126.545C435.186 126.794 435.065 127.157 435.065 127.634V131H433.525V124.906H435.065V125.643C435.263 125.386 435.516 125.185 435.824 125.038C436.139 124.891 436.484 124.818 436.858 124.818C437.334 124.818 437.76 124.921 438.134 125.126C438.508 125.324 438.797 125.61 439.003 125.984C439.201 125.632 439.487 125.35 439.861 125.137C440.242 124.924 440.653 124.818 441.093 124.818ZM447.757 131.099C447.17 131.099 446.642 130.971 446.173 130.714C445.704 130.45 445.333 130.08 445.062 129.603C444.798 129.126 444.666 128.576 444.666 127.953C444.666 127.33 444.802 126.78 445.073 126.303C445.352 125.826 445.729 125.46 446.206 125.203C446.683 124.939 447.214 124.807 447.801 124.807C448.388 124.807 448.919 124.939 449.396 125.203C449.873 125.46 450.247 125.826 450.518 126.303C450.797 126.78 450.936 127.33 450.936 127.953C450.936 128.576 450.793 129.126 450.507 129.603C450.228 130.08 449.847 130.45 449.363 130.714C448.886 130.971 448.351 131.099 447.757 131.099ZM447.757 129.757C448.036 129.757 448.296 129.691 448.538 129.559C448.787 129.42 448.985 129.214 449.132 128.943C449.279 128.672 449.352 128.342 449.352 127.953C449.352 127.374 449.198 126.93 448.89 126.622C448.589 126.307 448.219 126.149 447.779 126.149C447.339 126.149 446.969 126.307 446.668 126.622C446.375 126.93 446.228 127.374 446.228 127.953C446.228 128.532 446.371 128.98 446.657 129.295C446.95 129.603 447.317 129.757 447.757 129.757ZM455.443 124.818C456.169 124.818 456.755 125.049 457.203 125.511C457.65 125.966 457.874 126.604 457.874 127.425V131H456.334V127.634C456.334 127.15 456.213 126.78 455.971 126.523C455.729 126.259 455.399 126.127 454.981 126.127C454.555 126.127 454.218 126.259 453.969 126.523C453.727 126.78 453.606 127.15 453.606 127.634V131H452.066V124.906H453.606V125.665C453.811 125.401 454.071 125.196 454.387 125.049C454.709 124.895 455.061 124.818 455.443 124.818ZM461.131 126.171V129.119C461.131 129.324 461.179 129.475 461.274 129.57C461.377 129.658 461.545 129.702 461.78 129.702H462.495V131H461.527C460.229 131 459.58 130.369 459.58 129.108V126.171H458.854V124.906H459.58V123.399H461.131V124.906H462.495V126.171H461.131ZM467.035 124.818C467.497 124.818 467.907 124.921 468.267 125.126C468.626 125.324 468.905 125.621 469.103 126.017C469.308 126.406 469.411 126.875 469.411 127.425V131H467.871V127.634C467.871 127.15 467.75 126.78 467.508 126.523C467.266 126.259 466.936 126.127 466.518 126.127C466.092 126.127 465.755 126.259 465.506 126.523C465.264 126.78 465.143 127.15 465.143 127.634V131H463.603V122.86H465.143V125.665C465.341 125.401 465.605 125.196 465.935 125.049C466.265 124.895 466.631 124.818 467.035 124.818ZM472.415 122.86V131H470.875V122.86H472.415ZM479.767 124.906L475.994 133.882H474.355L475.675 130.846L473.233 124.906H474.96L476.533 129.163L478.128 124.906H479.767ZM484.758 125.852C484.956 125.529 485.213 125.276 485.528 125.093C485.851 124.91 486.217 124.818 486.628 124.818V126.435H486.221C485.737 126.435 485.37 126.549 485.121 126.776C484.879 127.003 484.758 127.399 484.758 127.964V131H483.218V124.906H484.758V125.852ZM493.33 127.821C493.33 128.041 493.316 128.239 493.286 128.415H488.831C488.868 128.855 489.022 129.2 489.293 129.449C489.565 129.698 489.898 129.823 490.294 129.823C490.866 129.823 491.273 129.577 491.515 129.086H493.176C493 129.673 492.663 130.157 492.164 130.538C491.666 130.912 491.053 131.099 490.327 131.099C489.741 131.099 489.213 130.971 488.743 130.714C488.281 130.45 487.918 130.08 487.654 129.603C487.398 129.126 487.269 128.576 487.269 127.953C487.269 127.322 487.398 126.769 487.654 126.292C487.911 125.815 488.27 125.449 488.732 125.192C489.194 124.935 489.726 124.807 490.327 124.807C490.907 124.807 491.424 124.932 491.878 125.181C492.34 125.43 492.696 125.786 492.945 126.248C493.202 126.703 493.33 127.227 493.33 127.821ZM491.735 127.381C491.728 126.985 491.585 126.67 491.306 126.435C491.028 126.193 490.687 126.072 490.283 126.072C489.902 126.072 489.579 126.189 489.315 126.424C489.059 126.651 488.901 126.97 488.842 127.381H491.735ZM496.995 129.581L498.535 124.906H500.174L497.919 131H496.049L493.805 124.906H495.455L496.995 129.581ZM506.704 127.821C506.704 128.041 506.69 128.239 506.66 128.415H502.205C502.242 128.855 502.396 129.2 502.667 129.449C502.939 129.698 503.272 129.823 503.668 129.823C504.24 129.823 504.647 129.577 504.889 129.086H506.55C506.374 129.673 506.037 130.157 505.538 130.538C505.04 130.912 504.427 131.099 503.701 131.099C503.115 131.099 502.587 130.971 502.117 130.714C501.655 130.45 501.292 130.08 501.028 129.603C500.772 129.126 500.643 128.576 500.643 127.953C500.643 127.322 500.772 126.769 501.028 126.292C501.285 125.815 501.644 125.449 502.106 125.192C502.568 124.935 503.1 124.807 503.701 124.807C504.281 124.807 504.798 124.932 505.252 125.181C505.714 125.43 506.07 125.786 506.319 126.248C506.576 126.703 506.704 127.227 506.704 127.821ZM505.109 127.381C505.102 126.985 504.959 126.67 504.68 126.435C504.402 126.193 504.061 126.072 503.657 126.072C503.276 126.072 502.953 126.189 502.689 126.424C502.433 126.651 502.275 126.97 502.216 127.381H505.109ZM511.205 124.818C511.931 124.818 512.518 125.049 512.965 125.511C513.413 125.966 513.636 126.604 513.636 127.425V131H512.096V127.634C512.096 127.15 511.975 126.78 511.733 126.523C511.491 126.259 511.161 126.127 510.743 126.127C510.318 126.127 509.981 126.259 509.731 126.523C509.489 126.78 509.368 127.15 509.368 127.634V131H507.828V124.906H509.368V125.665C509.574 125.401 509.834 125.196 510.149 125.049C510.472 124.895 510.824 124.818 511.205 124.818ZM520.854 124.906V131H519.303V130.23C519.105 130.494 518.844 130.703 518.522 130.857C518.206 131.004 517.862 131.077 517.488 131.077C517.011 131.077 516.589 130.978 516.223 130.78C515.856 130.575 515.566 130.278 515.354 129.889C515.148 129.493 515.046 129.024 515.046 128.481V124.906H516.586V128.261C516.586 128.745 516.707 129.119 516.949 129.383C517.191 129.64 517.521 129.768 517.939 129.768C518.364 129.768 518.698 129.64 518.94 129.383C519.182 129.119 519.303 128.745 519.303 128.261V124.906H520.854ZM528.038 127.821C528.038 128.041 528.024 128.239 527.994 128.415H523.539C523.576 128.855 523.73 129.2 524.001 129.449C524.273 129.698 524.606 129.823 525.002 129.823C525.574 129.823 525.981 129.577 526.223 129.086H527.884C527.708 129.673 527.371 130.157 526.872 130.538C526.374 130.912 525.761 131.099 525.035 131.099C524.449 131.099 523.921 130.971 523.451 130.714C522.989 130.45 522.626 130.08 522.362 129.603C522.106 129.126 521.977 128.576 521.977 127.953C521.977 127.322 522.106 126.769 522.362 126.292C522.619 125.815 522.978 125.449 523.44 125.192C523.902 124.935 524.434 124.807 525.035 124.807C525.615 124.807 526.132 124.932 526.586 125.181C527.048 125.43 527.404 125.786 527.653 126.248C527.91 126.703 528.038 127.227 528.038 127.821ZM526.443 127.381C526.436 126.985 526.293 126.67 526.014 126.435C525.736 126.193 525.395 126.072 524.991 126.072C524.61 126.072 524.287 126.189 524.023 126.424C523.767 126.651 523.609 126.97 523.55 127.381H526.443Z" fill="#1F1D1D"/>
<path d="M542.932 123.742C542.962 123.742 542.991 123.742 543.022 123.741C543.054 123.741 543.087 123.741 543.12 123.741C543.154 123.741 543.188 123.741 543.224 123.741C543.337 123.74 543.45 123.74 543.564 123.739C543.603 123.739 543.642 123.739 543.681 123.739C543.886 123.738 544.091 123.738 544.296 123.738C544.486 123.738 544.677 123.737 544.867 123.736C545.031 123.735 545.195 123.734 545.359 123.734C545.457 123.734 545.555 123.734 545.652 123.733C545.761 123.732 545.871 123.732 545.98 123.733C546.028 123.732 546.028 123.732 546.077 123.731C546.318 123.734 546.462 123.795 546.632 123.965C546.765 124.177 546.782 124.363 546.781 124.607C546.781 124.655 546.781 124.655 546.781 124.705C546.782 124.811 546.781 124.917 546.781 125.023C546.781 125.097 546.781 125.171 546.781 125.245C546.781 125.4 546.781 125.555 546.781 125.709C546.78 125.888 546.781 126.066 546.781 126.245C546.781 126.417 546.781 126.59 546.781 126.762C546.781 126.835 546.781 126.908 546.781 126.981C546.782 127.084 546.781 127.186 546.781 127.288C546.781 127.318 546.781 127.348 546.781 127.379C546.779 127.592 546.756 127.764 546.614 127.932C546.432 128.085 546.309 128.155 546.071 128.151C545.899 128.134 545.748 128.061 545.627 127.94C545.516 127.78 545.477 127.646 545.474 127.454C545.474 127.421 545.473 127.388 545.473 127.354C545.472 127.301 545.472 127.301 545.471 127.247C545.47 127.211 545.47 127.175 545.469 127.137C545.468 127.041 545.466 126.945 545.465 126.849C545.463 126.751 545.462 126.653 545.46 126.554C545.457 126.362 545.454 126.169 545.451 125.977C545.431 125.997 545.411 126.017 545.39 126.038C544.904 126.528 544.417 127.017 543.929 127.506C543.693 127.743 543.458 127.98 543.222 128.217C543.017 128.423 542.812 128.629 542.606 128.835C542.497 128.945 542.389 129.054 542.28 129.163C542.178 129.266 542.076 129.369 541.973 129.472C541.935 129.509 541.898 129.547 541.86 129.585C541.439 130.012 541.439 130.012 541.128 130.033C540.911 130.032 540.749 129.934 540.601 129.787C540.582 129.768 540.563 129.748 540.543 129.728C540.512 129.697 540.512 129.697 540.481 129.666C540.413 129.598 540.346 129.53 540.279 129.462C540.232 129.415 540.185 129.368 540.138 129.32C540.015 129.197 539.892 129.072 539.77 128.948C539.644 128.821 539.518 128.695 539.393 128.568C539.146 128.32 538.9 128.071 538.654 127.823C538.548 127.867 538.48 127.931 538.4 128.012C538.386 128.026 538.373 128.039 538.359 128.053C538.314 128.098 538.27 128.143 538.225 128.188C538.193 128.22 538.161 128.252 538.129 128.284C538.06 128.354 537.991 128.423 537.922 128.492C537.813 128.602 537.704 128.712 537.595 128.821C537.324 129.094 537.053 129.366 536.782 129.639C536.572 129.851 536.361 130.062 536.15 130.274C536.042 130.383 535.933 130.492 535.825 130.601C535.758 130.669 535.69 130.737 535.623 130.804C535.591 130.836 535.56 130.867 535.529 130.899C535.486 130.942 535.444 130.985 535.401 131.028C535.377 131.052 535.353 131.076 535.328 131.101C535.174 131.232 535.016 131.284 534.816 131.28C534.61 131.247 534.453 131.144 534.318 130.987C534.216 130.818 534.198 130.622 534.244 130.431C534.338 130.187 534.533 130.019 534.715 129.839C534.753 129.8 534.791 129.762 534.83 129.724C534.933 129.62 535.036 129.517 535.139 129.414C535.248 129.306 535.356 129.198 535.464 129.09C535.646 128.908 535.828 128.726 536.01 128.545C536.22 128.336 536.43 128.126 536.64 127.916C536.842 127.713 537.044 127.511 537.247 127.309C537.333 127.223 537.418 127.137 537.504 127.051C537.605 126.95 537.707 126.849 537.808 126.748C537.846 126.711 537.883 126.674 537.92 126.637C537.97 126.586 538.021 126.536 538.072 126.485C538.087 126.47 538.101 126.456 538.116 126.441C538.263 126.297 538.416 126.228 538.623 126.228C538.651 126.227 538.679 126.227 538.708 126.226C538.939 126.262 539.094 126.4 539.253 126.562C539.273 126.582 539.293 126.603 539.314 126.624C539.381 126.69 539.447 126.757 539.513 126.824C539.559 126.871 539.606 126.917 539.652 126.964C539.773 127.085 539.894 127.208 540.015 127.33C540.139 127.455 540.263 127.58 540.387 127.704C540.63 127.948 540.873 128.193 541.115 128.438C541.301 128.285 541.47 128.116 541.639 127.946C541.671 127.914 541.703 127.883 541.735 127.851C541.82 127.765 541.906 127.679 541.992 127.593C542.081 127.504 542.171 127.414 542.261 127.324C542.431 127.154 542.601 126.984 542.77 126.814C542.964 126.62 543.157 126.427 543.35 126.233C543.748 125.835 544.145 125.437 544.543 125.039C544.512 125.039 544.512 125.039 544.48 125.039C544.285 125.039 544.089 125.038 543.893 125.036C543.793 125.035 543.692 125.034 543.592 125.034C543.476 125.034 543.36 125.032 543.244 125.031C543.208 125.031 543.173 125.031 543.136 125.031C542.912 125.027 542.736 124.995 542.551 124.864C542.378 124.682 542.363 124.505 542.365 124.264C542.383 124.079 542.464 123.979 542.596 123.857C542.713 123.779 542.791 123.743 542.932 123.742Z" fill="#01A371"/>
</svg>
