<svg width="24" height="24" viewBox="0 0 24 24" fill="none" xmlns="http://www.w3.org/2000/svg">
<path d="M11.9865 0.130859C5.43931 0.130859 0.131836 5.43833 0.131836 11.9855C0.131836 18.5328 5.43931 23.8402 11.9865 23.8402C18.5337 23.8402 23.8412 18.5328 23.8412 11.9855C23.8412 5.43833 18.5337 0.130859 11.9865 0.130859ZM13.0621 18.151C12.7463 18.4316 12.3524 18.5715 11.8804 18.5715C11.4083 18.5715 11.0142 18.4316 10.6986 18.151C10.3827 17.871 10.2249 17.5125 10.2249 17.0757C10.2249 16.6392 10.3827 16.2806 10.6986 16.0003C11.0142 15.72 11.408 15.5799 11.8804 15.5799C12.3524 15.5799 12.7463 15.72 13.0621 16.0003C13.378 16.2806 13.5361 16.6392 13.5361 17.0757C13.5361 17.5125 13.378 17.871 13.0621 18.151ZM15.8638 10.2419C15.6691 10.6433 15.3559 11.0535 14.9254 11.4724L13.9075 12.4194C13.618 12.6968 13.4173 12.9813 13.3056 13.2735C13.1936 13.5656 13.1317 13.936 13.1196 14.3844H10.5879C10.5879 13.5227 10.6851 12.8428 10.8801 12.3438C11.0748 11.8451 11.3904 11.4131 11.8271 11.0469C12.2639 10.6813 12.5959 10.3462 12.8232 10.0424C13.0503 9.73842 13.1638 9.4036 13.1638 9.03768C13.1638 8.14674 12.7803 7.701 12.0131 7.701C11.6591 7.701 11.3727 7.83087 11.1546 8.09062C10.9362 8.35037 10.8211 8.70127 10.8092 9.14411H7.81736C7.82895 7.96391 8.20093 7.04478 8.93276 6.38671C9.66432 5.72864 10.6912 5.39961 12.0131 5.39961C13.3293 5.39961 14.3485 5.70362 15.0714 6.31137C15.7945 6.91938 16.1557 7.78398 16.1557 8.90517C16.1557 9.3949 16.0585 9.84064 15.8638 10.2419Z" fill="#FF1A1A"/>
</svg>
