<svg width="84" height="13" viewBox="0 0 84 13" fill="none" xmlns="http://www.w3.org/2000/svg">
<path d="M5.06934 12L4.74414 10.9277L2.59961 4.74902L0.912109 0.00292969C1.70898 0.0146484 2.41797 0.0205078 3.03906 0.0205078C3.41992 0.0205078 4.01758 0.0146484 4.83203 0.00292969C4.9668 0.524414 5.07227 0.919922 5.14844 1.18945C5.25391 1.54102 5.45312 2.17676 5.74609 3.09668L7.03809 7.25391C7.16699 7.6875 7.3252 8.25293 7.5127 8.9502L7.91699 7.93945L10.9844 1.22461C11.0371 1.10156 11.0957 0.960938 11.1602 0.802734C11.2305 0.644531 11.3389 0.37793 11.4854 0.00292969C12.335 0.0146484 13.0176 0.0205078 13.5332 0.0205078C13.8555 0.0205078 14.4941 0.0146484 15.4492 0.00292969C14.8516 1.11621 14.1748 2.41699 13.4189 3.90527L10.3867 9.91699C10.0938 10.5029 9.76562 11.1973 9.40234 12C8.41797 11.9883 7.71484 11.9824 7.29297 11.9824C6.90039 11.9824 6.15918 11.9883 5.06934 12Z" fill="#FF1A1A"/>
<path d="M24.0449 9.3457C23.9688 9.69727 23.8223 10.5469 23.6055 11.8945C22.9258 12.0293 22.3545 12.1172 21.8916 12.1582C21.4287 12.2051 20.96 12.2285 20.4854 12.2285C19.7881 12.2285 19.1465 12.1787 18.5605 12.0791C17.9746 11.9854 17.4678 11.8154 17.04 11.5693C16.6182 11.3232 16.2637 11.0186 15.9766 10.6553C15.6895 10.2861 15.4697 9.84961 15.3174 9.3457C15.1709 8.8418 15.0977 8.32324 15.0977 7.79004C15.0977 7.04004 15.2471 6.30762 15.5459 5.59277C15.8447 4.87207 16.2285 4.30957 16.6973 3.90527C17.1719 3.50098 17.7168 3.21387 18.332 3.04395C18.9473 2.87402 19.5771 2.78906 20.2217 2.78906C20.8896 2.78906 21.5254 2.86816 22.1289 3.02637C22.7383 3.17871 23.2539 3.44824 23.6758 3.83496C24.0977 4.22168 24.3965 4.6582 24.5723 5.14453C24.7539 5.63086 24.8447 6.15527 24.8447 6.71777C24.8447 7.05176 24.8066 7.42383 24.7305 7.83398L18.5693 7.84277C18.5635 7.93652 18.5605 8.02148 18.5605 8.09766C18.5605 8.73047 18.7861 9.19629 19.2373 9.49512C19.6885 9.79395 20.2393 9.94336 20.8896 9.94336C21.2764 9.94336 21.7158 9.89941 22.208 9.81152C22.7061 9.71777 23.3184 9.5625 24.0449 9.3457ZM18.6396 6.49805H21.54C21.5459 6.39844 21.5488 6.31348 21.5488 6.24316C21.5488 5.93848 21.4932 5.67773 21.3818 5.46094C21.2764 5.24414 21.1211 5.08594 20.916 4.98633C20.7168 4.88672 20.4912 4.83691 20.2393 4.83691C20.0635 4.83691 19.8936 4.86621 19.7295 4.9248C19.5654 4.97754 19.416 5.05957 19.2812 5.1709C19.1523 5.27637 19.0439 5.39941 18.9561 5.54004C18.8682 5.68066 18.8037 5.81836 18.7627 5.95312C18.7217 6.08203 18.6807 6.26367 18.6396 6.49805Z" fill="#FF1A1A"/>
<path d="M25.9082 12C26.0781 10.6699 26.207 9.20215 26.2949 7.59668C26.3887 5.98535 26.4443 4.46191 26.4619 3.02637C27.165 3.03809 27.7715 3.04395 28.2812 3.04395C28.873 3.04395 29.4414 3.03809 29.9863 3.02637L29.8984 4.22168C30.0918 4.00488 30.2588 3.83496 30.3994 3.71191C30.54 3.58301 30.7129 3.45996 30.918 3.34277C31.1289 3.21973 31.3516 3.12012 31.5859 3.04395C31.8203 2.96777 32.0752 2.90918 32.3506 2.86816C32.6318 2.82129 32.9248 2.79785 33.2295 2.79785C33.6514 2.79785 34.0615 2.84473 34.46 2.93848C34.8643 3.02637 35.2012 3.15527 35.4707 3.3252C35.7402 3.48926 35.9658 3.69727 36.1475 3.94922C36.3291 4.19531 36.4492 4.46191 36.5078 4.74902C36.5664 5.03613 36.5957 5.33203 36.5957 5.63672C36.5957 5.85938 36.5723 6.33984 36.5254 7.07812L36.376 10.2598C36.3467 10.8867 36.332 11.4668 36.332 12C35.7402 11.9883 35.1865 11.9824 34.6709 11.9824C33.9736 11.9824 33.3379 11.9883 32.7637 12C32.8164 11.4668 32.8721 10.6758 32.9307 9.62695C32.9893 8.57227 33.0186 7.83105 33.0186 7.40332C33.0186 6.74121 32.8896 6.28125 32.6318 6.02344C32.3799 5.75977 32.0605 5.62793 31.6738 5.62793C31.334 5.62793 31.0117 5.73926 30.707 5.96191C30.4082 6.18457 30.1768 6.50977 30.0127 6.9375C29.8486 7.35938 29.7314 8.05664 29.6611 9.0293C29.5967 10.002 29.5527 10.9922 29.5293 12C28.9434 11.9883 28.3721 11.9824 27.8154 11.9824C27.2295 11.9824 26.5938 11.9883 25.9082 12Z" fill="#FF1A1A"/>
<path d="M44.7695 9.41602C44.6641 9.9082 44.5732 10.3887 44.4971 10.8574L44.3037 11.9297C43.7236 12.0586 43.2695 12.1406 42.9414 12.1758C42.6191 12.2109 42.3057 12.2285 42.001 12.2285C41.5029 12.2285 41.0605 12.1846 40.6738 12.0967C40.2871 12.0146 39.9648 11.8623 39.707 11.6396C39.4492 11.4111 39.2734 11.1504 39.1797 10.8574C39.0859 10.5645 39.0391 10.2539 39.0391 9.92578C39.0391 9.86719 39.042 9.76465 39.0479 9.61816C39.0537 9.46582 39.0742 9.13184 39.1094 8.61621L39.3027 5.5752H37.9316C37.9609 5.1709 37.9873 4.6377 38.0107 3.97559L38.0371 3.1582H39.4961C39.5312 2.88867 39.5752 2.2998 39.6279 1.3916L41.1309 1.08398C41.4062 1.03125 41.9922 0.896484 42.8887 0.679688C42.8477 1.44727 42.8184 2.27344 42.8008 3.1582H44.8047C44.7578 4.37695 44.7344 5.18262 44.7344 5.5752H42.7129L42.6074 7.77246C42.5957 8.10059 42.5898 8.31152 42.5898 8.40527C42.5898 8.68652 42.6191 8.9209 42.6777 9.1084C42.7422 9.2959 42.8506 9.43066 43.0029 9.5127C43.1611 9.59473 43.334 9.63574 43.5215 9.63574C43.6621 9.63574 43.8086 9.62695 43.9609 9.60938C44.1133 9.58594 44.3828 9.52148 44.7695 9.41602Z" fill="#FF1A1A"/>
<path d="M51.124 2.79785C51.8506 2.79785 52.5479 2.90918 53.2158 3.13184C53.8896 3.35449 54.458 3.67676 54.9209 4.09863C55.3838 4.51465 55.7236 5.00391 55.9404 5.56641C56.1631 6.12305 56.2744 6.72363 56.2744 7.36816C56.2744 7.99512 56.1748 8.59277 55.9756 9.16113C55.7822 9.72363 55.4512 10.2539 54.9824 10.752C54.5137 11.2441 53.916 11.6133 53.1895 11.8594C52.4688 12.1055 51.7041 12.2285 50.8955 12.2285C50.1514 12.2285 49.4365 12.1201 48.751 11.9033C48.0654 11.6865 47.4912 11.3701 47.0283 10.9541C46.5713 10.5381 46.2256 10.04 45.9912 9.45996C45.7627 8.87988 45.6484 8.27051 45.6484 7.63184C45.6484 6.99316 45.7598 6.38379 45.9824 5.80371C46.2109 5.22363 46.5684 4.70215 47.0547 4.23926C47.5469 3.77637 48.1533 3.42188 48.874 3.17578C49.5947 2.92383 50.3447 2.79785 51.124 2.79785ZM51.0625 5.38184C50.6875 5.38184 50.3535 5.47852 50.0605 5.67188C49.7676 5.86523 49.5449 6.14941 49.3926 6.52441C49.2461 6.89355 49.1729 7.29785 49.1729 7.7373C49.1729 8.38184 49.334 8.87695 49.6562 9.22266C49.9785 9.5625 50.3828 9.73242 50.8691 9.73242C51.2383 9.73242 51.5693 9.63574 51.8623 9.44238C52.1553 9.24316 52.375 8.95312 52.5215 8.57227C52.6738 8.18555 52.75 7.77246 52.75 7.33301C52.75 6.96973 52.6914 6.6416 52.5742 6.34863C52.457 6.05566 52.2637 5.82129 51.9941 5.64551C51.7305 5.46973 51.4199 5.38184 51.0625 5.38184Z" fill="#FF1A1A"/>
<path d="M57.5752 12L57.8477 8.09766L57.9355 5.85645C57.9414 5.45215 57.9443 5.03906 57.9443 4.61719C57.9443 4.18945 57.9385 3.65918 57.9268 3.02637C58.6357 3.03809 59.1982 3.04395 59.6143 3.04395C60.1006 3.04395 60.6602 3.03809 61.293 3.02637L61.2578 4.01953C61.4863 3.76172 61.6738 3.57129 61.8203 3.44824C61.9668 3.31934 62.1338 3.20508 62.3213 3.10547C62.5088 3 62.7051 2.92383 62.9102 2.87695C63.1152 2.82422 63.3291 2.79785 63.5518 2.79785C63.7627 2.79785 63.9971 2.82715 64.2549 2.88574C64.2607 3.52441 64.2754 4.05176 64.2988 4.46777L64.3604 5.82129C64.0381 5.72754 63.7363 5.68066 63.4551 5.68066C63.1035 5.68066 62.7988 5.7334 62.541 5.83887C62.2891 5.93848 62.0635 6.09375 61.8643 6.30469C61.6709 6.50977 61.5156 6.76758 61.3984 7.07812C61.2812 7.38867 61.1992 7.88086 61.1523 8.55469C61.1055 9.22852 61.082 9.99902 61.082 10.8662C61.082 11.1709 61.0938 11.5488 61.1172 12C60.5488 11.9883 59.9775 11.9824 59.4033 11.9824C58.835 11.9824 58.2256 11.9883 57.5752 12Z" fill="#FF1A1A"/>
<path d="M66.1445 5.58398C66.2559 5.00391 66.3262 4.60547 66.3555 4.38867C66.3848 4.16602 66.4316 3.82031 66.4961 3.35156C68.1836 2.98242 69.6338 2.79785 70.8467 2.79785C71.5381 2.79785 72.1709 2.87695 72.7451 3.03516C73.3193 3.1875 73.7676 3.43652 74.0898 3.78223C74.4121 4.12793 74.5732 4.62305 74.5732 5.26758C74.5732 5.5957 74.5293 6.33398 74.4414 7.48242C74.3535 8.63086 74.2861 10.1367 74.2393 12C73.665 11.9883 73.0938 11.9824 72.5254 11.9824C71.9746 11.9824 71.3887 11.9883 70.7676 12C70.8496 11.3555 70.9404 10.0254 71.04 8.00977C70.8174 8.11523 70.6416 8.19141 70.5127 8.23828C70.3896 8.28516 70.1699 8.35547 69.8535 8.44922C69.5371 8.54297 69.2881 8.62207 69.1064 8.68652C68.9307 8.75098 68.7754 8.83301 68.6406 8.93262C68.5117 9.03223 68.418 9.13477 68.3594 9.24023C68.3066 9.3457 68.2803 9.46289 68.2803 9.5918C68.2803 9.79102 68.3594 9.96094 68.5176 10.1016C68.6758 10.2422 68.9277 10.3125 69.2734 10.3125C69.3965 10.3125 69.5283 10.3037 69.6689 10.2861C69.8096 10.2627 70.0029 10.21 70.249 10.1279C70.0791 10.5791 69.877 11.2383 69.6426 12.1055C69.1387 12.1875 68.6611 12.2285 68.21 12.2285C67.4834 12.2285 66.877 12.1289 66.3906 11.9297C65.9102 11.7246 65.5381 11.3965 65.2744 10.9453C65.0166 10.4941 64.8877 10.043 64.8877 9.5918C64.8877 9.31641 64.9346 9.04688 65.0283 8.7832C65.1279 8.51953 65.2803 8.26172 65.4854 8.00977C65.6904 7.75781 65.9307 7.54395 66.2061 7.36816C66.4814 7.18652 66.8564 7.0166 67.3311 6.8584C67.8115 6.7002 68.418 6.55078 69.1504 6.41016C69.4551 6.35156 69.7334 6.29004 69.9854 6.22559C70.2432 6.15527 70.4248 6.09668 70.5303 6.0498C70.6416 5.99707 70.7295 5.93848 70.7939 5.87402C70.8643 5.80371 70.9141 5.7334 70.9434 5.66309C70.9727 5.58691 70.9873 5.50781 70.9873 5.42578C70.9873 5.20312 70.8936 5.0332 70.7061 4.91602C70.5186 4.79297 70.2432 4.73145 69.8799 4.73145C68.8721 4.73145 67.627 5.01562 66.1445 5.58398Z" fill="#FF1A1A"/>
<path d="M76.1465 11.833C76.123 11.5752 76.0996 11.3057 76.0762 11.0244C76.0527 10.7373 76.0146 10.3447 75.9619 9.84668L75.8916 9.21387C76.46 9.43652 76.9492 9.60352 77.3594 9.71484C77.7695 9.82031 78.1475 9.87305 78.4932 9.87305C78.7803 9.87305 79.0117 9.84668 79.1875 9.79395C79.3691 9.74121 79.501 9.66504 79.583 9.56543C79.665 9.46582 79.7061 9.36328 79.7061 9.25781C79.7061 9.16406 79.6738 9.07324 79.6094 8.98535C79.5508 8.8916 79.4131 8.76562 79.1963 8.60742C78.7158 8.25586 78.291 7.93652 77.9219 7.64941C77.5586 7.3623 77.2832 7.10742 77.0957 6.88477C76.9141 6.66211 76.7734 6.42188 76.6738 6.16406C76.5801 5.90625 76.5332 5.63965 76.5332 5.36426C76.5332 4.87793 76.6709 4.42383 76.9463 4.00195C77.2275 3.58008 77.6377 3.27539 78.1768 3.08789C78.7217 2.89453 79.3838 2.79785 80.1631 2.79785C80.9775 2.79785 82.0176 2.90332 83.2832 3.11426L83.4238 5.58398C82.7148 5.30273 82.0322 5.16211 81.376 5.16211C80.9131 5.16211 80.5762 5.20898 80.3652 5.30273C80.1602 5.39648 80.0576 5.54004 80.0576 5.7334C80.0576 5.79785 80.0693 5.85938 80.0928 5.91797C80.1162 5.97656 80.1572 6.03809 80.2158 6.10254C80.2803 6.16699 80.3564 6.23438 80.4443 6.30469C80.5381 6.36914 80.7607 6.52441 81.1123 6.77051C81.4639 7.0166 81.7393 7.21875 81.9385 7.37695C82.2666 7.63477 82.5156 7.875 82.6855 8.09766C82.8613 8.31445 82.9932 8.54883 83.0811 8.80078C83.1748 9.04688 83.2217 9.30762 83.2217 9.58301C83.2217 9.99902 83.1191 10.3828 82.9141 10.7344C82.7148 11.0801 82.4102 11.3701 82 11.6045C81.5957 11.8389 81.1562 12 80.6816 12.0879C80.207 12.1816 79.7178 12.2285 79.2139 12.2285C78.874 12.2285 78.4463 12.1992 77.9307 12.1406C77.4209 12.082 76.8262 11.9795 76.1465 11.833Z" fill="#FF1A1A"/>
</svg>
