<svg width="193" height="18" viewBox="0 0 193 18" fill="none" xmlns="http://www.w3.org/2000/svg">
<path d="M3.24316 13L2.94434 11.3828C2.87402 11.002 2.76562 10.4688 2.61914 9.7832L1.18652 3.21777L0.667969 1.00293C1.40625 1.01465 2.00391 1.02051 2.46094 1.02051C2.97656 1.02051 3.57422 1.01465 4.25391 1.00293C4.41211 1.95801 4.53809 2.6582 4.63184 3.10352L5.37012 6.64551C5.52246 7.40723 5.69238 8.33594 5.87988 9.43164L6.16992 8.20117L7.21582 4.14062L7.93652 1.00293C8.73926 1.01465 9.41895 1.02051 9.97559 1.02051C10.5791 1.02051 11.2559 1.01465 12.0059 1.00293L12.5596 4.70312L13.3242 9.41406L13.667 8.12207C13.7314 7.89941 13.7988 7.67383 13.8691 7.44531C13.9395 7.2168 14.0859 6.7627 14.3086 6.08301L15.3809 2.70801L15.8818 1.00293C16.5908 1.00879 17.1768 1.01172 17.6396 1.01172C18.1611 1.01172 18.7441 1.00879 19.3887 1.00293L15.9785 11.2158L15.4336 13C14.5547 12.9883 13.7871 12.9824 13.1309 12.9824C12.4395 12.9824 11.6748 12.9883 10.8369 13L10.6348 11.7959L9.86133 7.60352C9.82031 7.35156 9.78223 7.09375 9.74707 6.83008C9.71777 6.56055 9.67383 6.14453 9.61523 5.58203L9.30762 6.94434C9.23145 7.24902 9.15234 7.55664 9.07031 7.86719L7.65527 13C6.77051 12.9883 6.03516 12.9824 5.44922 12.9824C4.82812 12.9824 4.09277 12.9883 3.24316 13ZM21.1641 6.58398C21.2754 6.00391 21.3457 5.60547 21.375 5.38867C21.4043 5.16602 21.4512 4.82031 21.5156 4.35156C23.2031 3.98242 24.6533 3.79785 25.8662 3.79785C26.5576 3.79785 27.1904 3.87695 27.7646 4.03516C28.3389 4.1875 28.7871 4.43652 29.1094 4.78223C29.4316 5.12793 29.5928 5.62305 29.5928 6.26758C29.5928 6.5957 29.5488 7.33398 29.4609 8.48242C29.373 9.63086 29.3057 11.1367 29.2588 13C28.6846 12.9883 28.1133 12.9824 27.5449 12.9824C26.9941 12.9824 26.4082 12.9883 25.7871 13C25.8691 12.3555 25.96 11.0254 26.0596 9.00977C25.8369 9.11523 25.6611 9.19141 25.5322 9.23828C25.4092 9.28516 25.1895 9.35547 24.873 9.44922C24.5566 9.54297 24.3076 9.62207 24.126 9.68652C23.9502 9.75098 23.7949 9.83301 23.6602 9.93262C23.5312 10.0322 23.4375 10.1348 23.3789 10.2402C23.3262 10.3457 23.2998 10.4629 23.2998 10.5918C23.2998 10.791 23.3789 10.9609 23.5371 11.1016C23.6953 11.2422 23.9473 11.3125 24.293 11.3125C24.416 11.3125 24.5479 11.3037 24.6885 11.2861C24.8291 11.2627 25.0225 11.21 25.2686 11.1279C25.0986 11.5791 24.8965 12.2383 24.6621 13.1055C24.1582 13.1875 23.6807 13.2285 23.2295 13.2285C22.5029 13.2285 21.8965 13.1289 21.4102 12.9297C20.9297 12.7246 20.5576 12.3965 20.2939 11.9453C20.0361 11.4941 19.9072 11.043 19.9072 10.5918C19.9072 10.3164 19.9541 10.0469 20.0479 9.7832C20.1475 9.51953 20.2998 9.26172 20.5049 9.00977C20.71 8.75781 20.9502 8.54395 21.2256 8.36816C21.501 8.18652 21.876 8.0166 22.3506 7.8584C22.8311 7.7002 23.4375 7.55078 24.1699 7.41016C24.4746 7.35156 24.7529 7.29004 25.0049 7.22559C25.2627 7.15527 25.4443 7.09668 25.5498 7.0498C25.6611 6.99707 25.749 6.93848 25.8135 6.87402C25.8838 6.80371 25.9336 6.7334 25.9629 6.66309C25.9922 6.58691 26.0068 6.50781 26.0068 6.42578C26.0068 6.20312 25.9131 6.0332 25.7256 5.91602C25.5381 5.79297 25.2627 5.73145 24.8994 5.73145C23.8916 5.73145 22.6465 6.01562 21.1641 6.58398ZM30.9375 13C30.9609 12.3496 30.9814 11.4707 30.999 10.3633C31.2393 10.1523 31.4473 9.96191 31.623 9.79199L35.165 6.36426C33.7178 6.37598 32.4814 6.41992 31.4561 6.49609C31.4736 6.22656 31.4912 5.82227 31.5088 5.2832L31.5264 4.47461V4.02637C32.2295 4.03809 33.5625 4.04395 35.5254 4.04395C37.0898 4.04395 38.3057 4.03809 39.1729 4.02637C39.1436 4.28418 39.0996 5.21582 39.041 6.82129C38.8242 7.00879 38.6367 7.17871 38.4785 7.33105L34.9805 10.6182C35.5488 10.6357 36.3633 10.6445 37.4238 10.6445C37.834 10.6445 38.3174 10.6328 38.874 10.6094C38.8213 11.043 38.7627 11.8398 38.6982 13C37.9424 12.9883 36.6533 12.9824 34.8311 12.9824C33.0498 12.9824 31.752 12.9883 30.9375 13ZM40.3594 13C40.3828 12.3496 40.4033 11.4707 40.4209 10.3633C40.6611 10.1523 40.8691 9.96191 41.0449 9.79199L44.5869 6.36426C43.1396 6.37598 41.9033 6.41992 40.8779 6.49609C40.8955 6.22656 40.9131 5.82227 40.9307 5.2832L40.9482 4.47461V4.02637C41.6514 4.03809 42.9844 4.04395 44.9473 4.04395C46.5117 4.04395 47.7275 4.03809 48.5947 4.02637C48.5654 4.28418 48.5215 5.21582 48.4629 6.82129C48.2461 7.00879 48.0586 7.17871 47.9004 7.33105L44.4023 10.6182C44.9707 10.6357 45.7852 10.6445 46.8457 10.6445C47.2559 10.6445 47.7393 10.6328 48.2959 10.6094C48.2432 11.043 48.1846 11.8398 48.1201 13C47.3643 12.9883 46.0752 12.9824 44.2529 12.9824C42.4717 12.9824 41.1738 12.9883 40.3594 13ZM50.9062 6.58398C51.0176 6.00391 51.0879 5.60547 51.1172 5.38867C51.1465 5.16602 51.1934 4.82031 51.2578 4.35156C52.9453 3.98242 54.3955 3.79785 55.6084 3.79785C56.2998 3.79785 56.9326 3.87695 57.5068 4.03516C58.0811 4.1875 58.5293 4.43652 58.8516 4.78223C59.1738 5.12793 59.335 5.62305 59.335 6.26758C59.335 6.5957 59.291 7.33398 59.2031 8.48242C59.1152 9.63086 59.0479 11.1367 59.001 13C58.4268 12.9883 57.8555 12.9824 57.2871 12.9824C56.7363 12.9824 56.1504 12.9883 55.5293 13C55.6113 12.3555 55.7021 11.0254 55.8018 9.00977C55.5791 9.11523 55.4033 9.19141 55.2744 9.23828C55.1514 9.28516 54.9316 9.35547 54.6152 9.44922C54.2988 9.54297 54.0498 9.62207 53.8682 9.68652C53.6924 9.75098 53.5371 9.83301 53.4023 9.93262C53.2734 10.0322 53.1797 10.1348 53.1211 10.2402C53.0684 10.3457 53.042 10.4629 53.042 10.5918C53.042 10.791 53.1211 10.9609 53.2793 11.1016C53.4375 11.2422 53.6895 11.3125 54.0352 11.3125C54.1582 11.3125 54.29 11.3037 54.4307 11.2861C54.5713 11.2627 54.7646 11.21 55.0107 11.1279C54.8408 11.5791 54.6387 12.2383 54.4043 13.1055C53.9004 13.1875 53.4229 13.2285 52.9717 13.2285C52.2451 13.2285 51.6387 13.1289 51.1523 12.9297C50.6719 12.7246 50.2998 12.3965 50.0361 11.9453C49.7783 11.4941 49.6494 11.043 49.6494 10.5918C49.6494 10.3164 49.6963 10.0469 49.79 9.7832C49.8896 9.51953 50.042 9.26172 50.2471 9.00977C50.4521 8.75781 50.6924 8.54395 50.9678 8.36816C51.2432 8.18652 51.6182 8.0166 52.0928 7.8584C52.5732 7.7002 53.1797 7.55078 53.9121 7.41016C54.2168 7.35156 54.4951 7.29004 54.7471 7.22559C55.0049 7.15527 55.1865 7.09668 55.292 7.0498C55.4033 6.99707 55.4912 6.93848 55.5557 6.87402C55.626 6.80371 55.6758 6.7334 55.7051 6.66309C55.7344 6.58691 55.749 6.50781 55.749 6.42578C55.749 6.20312 55.6553 6.0332 55.4678 5.91602C55.2803 5.79297 55.0049 5.73145 54.6416 5.73145C53.6338 5.73145 52.3887 6.01562 50.9062 6.58398ZM64.6611 1.00293L63.4834 2.93652C63.3369 3.18262 63.0498 3.68066 62.6221 4.43066L61.7871 4.41309C61.7051 4.41309 61.4238 4.41895 60.9434 4.43066L62.0508 1.00293L63.2373 1.02051C63.3604 1.02051 63.835 1.01465 64.6611 1.00293ZM65.3555 12.833C65.332 12.5752 65.3086 12.3057 65.2852 12.0244C65.2617 11.7373 65.2236 11.3447 65.1709 10.8467L65.1006 10.2139C65.6689 10.4365 66.1582 10.6035 66.5684 10.7148C66.9785 10.8203 67.3564 10.873 67.7021 10.873C67.9893 10.873 68.2207 10.8467 68.3965 10.7939C68.5781 10.7412 68.71 10.665 68.792 10.5654C68.874 10.4658 68.915 10.3633 68.915 10.2578C68.915 10.1641 68.8828 10.0732 68.8184 9.98535C68.7598 9.8916 68.6221 9.76562 68.4053 9.60742C67.9248 9.25586 67.5 8.93652 67.1309 8.64941C66.7676 8.3623 66.4922 8.10742 66.3047 7.88477C66.123 7.66211 65.9824 7.42188 65.8828 7.16406C65.7891 6.90625 65.7422 6.63965 65.7422 6.36426C65.7422 5.87793 65.8799 5.42383 66.1553 5.00195C66.4365 4.58008 66.8467 4.27539 67.3857 4.08789C67.9307 3.89453 68.5928 3.79785 69.3721 3.79785C70.1865 3.79785 71.2266 3.90332 72.4922 4.11426L72.6328 6.58398C71.9238 6.30273 71.2412 6.16211 70.585 6.16211C70.1221 6.16211 69.7852 6.20898 69.5742 6.30273C69.3691 6.39648 69.2666 6.54004 69.2666 6.7334C69.2666 6.79785 69.2783 6.85938 69.3018 6.91797C69.3252 6.97656 69.3662 7.03809 69.4248 7.10254C69.4893 7.16699 69.5654 7.23438 69.6533 7.30469C69.7471 7.36914 69.9697 7.52441 70.3213 7.77051C70.6729 8.0166 70.9482 8.21875 71.1475 8.37695C71.4756 8.63477 71.7246 8.875 71.8945 9.09766C72.0703 9.31445 72.2021 9.54883 72.29 9.80078C72.3838 10.0469 72.4307 10.3076 72.4307 10.583C72.4307 10.999 72.3281 11.3828 72.123 11.7344C71.9238 12.0801 71.6191 12.3701 71.209 12.6045C70.8047 12.8389 70.3652 13 69.8906 13.0879C69.416 13.1816 68.9268 13.2285 68.4229 13.2285C68.083 13.2285 67.6553 13.1992 67.1396 13.1406C66.6299 13.082 66.0352 12.9795 65.3555 12.833ZM78.6445 13C78.791 11.6172 78.8965 10.4893 78.9609 9.61621C79.084 8.02246 79.1748 6.44043 79.2334 4.87012C79.2979 3.29395 79.3301 2.00488 79.3301 1.00293C80.127 1.01465 80.833 1.02051 81.4482 1.02051C81.8643 1.02051 82.4619 1.01465 83.2412 1.00293L83.0303 4.18457L82.7666 9.15918L82.7314 10.3809C83.7393 10.3984 84.3955 10.4072 84.7002 10.4072C86.2412 10.4072 87.4072 10.3867 88.1982 10.3457L88.0049 13C86.4639 12.9883 84.9961 12.9824 83.6016 12.9824C81.7148 12.9824 80.0625 12.9883 78.6445 13ZM90 6.58398C90.1113 6.00391 90.1816 5.60547 90.2109 5.38867C90.2402 5.16602 90.2871 4.82031 90.3516 4.35156C92.0391 3.98242 93.4893 3.79785 94.7021 3.79785C95.3936 3.79785 96.0264 3.87695 96.6006 4.03516C97.1748 4.1875 97.623 4.43652 97.9453 4.78223C98.2676 5.12793 98.4287 5.62305 98.4287 6.26758C98.4287 6.5957 98.3848 7.33398 98.2969 8.48242C98.209 9.63086 98.1416 11.1367 98.0947 13C97.5205 12.9883 96.9492 12.9824 96.3809 12.9824C95.8301 12.9824 95.2441 12.9883 94.623 13C94.7051 12.3555 94.7959 11.0254 94.8955 9.00977C94.6729 9.11523 94.4971 9.19141 94.3682 9.23828C94.2451 9.28516 94.0254 9.35547 93.709 9.44922C93.3926 9.54297 93.1436 9.62207 92.9619 9.68652C92.7861 9.75098 92.6309 9.83301 92.4961 9.93262C92.3672 10.0322 92.2734 10.1348 92.2148 10.2402C92.1621 10.3457 92.1357 10.4629 92.1357 10.5918C92.1357 10.791 92.2148 10.9609 92.373 11.1016C92.5312 11.2422 92.7832 11.3125 93.1289 11.3125C93.252 11.3125 93.3838 11.3037 93.5244 11.2861C93.665 11.2627 93.8584 11.21 94.1045 11.1279C93.9346 11.5791 93.7324 12.2383 93.498 13.1055C92.9941 13.1875 92.5166 13.2285 92.0654 13.2285C91.3389 13.2285 90.7324 13.1289 90.2461 12.9297C89.7656 12.7246 89.3936 12.3965 89.1299 11.9453C88.8721 11.4941 88.7432 11.043 88.7432 10.5918C88.7432 10.3164 88.79 10.0469 88.8838 9.7832C88.9834 9.51953 89.1357 9.26172 89.3408 9.00977C89.5459 8.75781 89.7861 8.54395 90.0615 8.36816C90.3369 8.18652 90.7119 8.0166 91.1865 7.8584C91.667 7.7002 92.2734 7.55078 93.0059 7.41016C93.3105 7.35156 93.5889 7.29004 93.8408 7.22559C94.0986 7.15527 94.2803 7.09668 94.3857 7.0498C94.4971 6.99707 94.585 6.93848 94.6494 6.87402C94.7197 6.80371 94.7695 6.7334 94.7988 6.66309C94.8281 6.58691 94.8428 6.50781 94.8428 6.42578C94.8428 6.20312 94.749 6.0332 94.5615 5.91602C94.374 5.79297 94.0986 5.73145 93.7354 5.73145C92.7275 5.73145 91.4824 6.01562 90 6.58398ZM99.9844 13C100.154 11.6699 100.283 10.2021 100.371 8.59668C100.465 6.98535 100.521 5.46191 100.538 4.02637C101.241 4.03809 101.848 4.04395 102.357 4.04395C102.949 4.04395 103.518 4.03809 104.062 4.02637L103.975 5.22168C104.168 5.00488 104.335 4.83496 104.476 4.71191C104.616 4.58301 104.789 4.45996 104.994 4.34277C105.205 4.21973 105.428 4.12012 105.662 4.04395C105.896 3.96777 106.151 3.90918 106.427 3.86816C106.708 3.82129 107.001 3.79785 107.306 3.79785C107.728 3.79785 108.138 3.84473 108.536 3.93848C108.94 4.02637 109.277 4.15527 109.547 4.3252C109.816 4.48926 110.042 4.69727 110.224 4.94922C110.405 5.19531 110.525 5.46191 110.584 5.74902C110.643 6.03613 110.672 6.33203 110.672 6.63672C110.672 6.85938 110.648 7.33984 110.602 8.07812L110.452 11.2598C110.423 11.8867 110.408 12.4668 110.408 13C109.816 12.9883 109.263 12.9824 108.747 12.9824C108.05 12.9824 107.414 12.9883 106.84 13C106.893 12.4668 106.948 11.6758 107.007 10.627C107.065 9.57227 107.095 8.83105 107.095 8.40332C107.095 7.74121 106.966 7.28125 106.708 7.02344C106.456 6.75977 106.137 6.62793 105.75 6.62793C105.41 6.62793 105.088 6.73926 104.783 6.96191C104.484 7.18457 104.253 7.50977 104.089 7.9375C103.925 8.35938 103.808 9.05664 103.737 10.0293C103.673 11.002 103.629 11.9922 103.605 13C103.02 12.9883 102.448 12.9824 101.892 12.9824C101.306 12.9824 100.67 12.9883 99.9844 13ZM122.203 13C121.576 12.9883 121.055 12.9824 120.639 12.9824C120.17 12.9824 119.602 12.9883 118.934 13L118.986 11.8838C118.758 12.1064 118.559 12.2881 118.389 12.4287C118.219 12.5635 117.999 12.6953 117.729 12.8242C117.466 12.9531 117.179 13.0527 116.868 13.123C116.563 13.1934 116.247 13.2285 115.919 13.2285C115.356 13.2285 114.829 13.126 114.337 12.9209C113.851 12.7158 113.435 12.4258 113.089 12.0508C112.743 11.6699 112.485 11.2217 112.315 10.7061C112.146 10.1846 112.061 9.64551 112.061 9.08887C112.061 8.29785 112.216 7.52441 112.526 6.76855C112.837 6.0127 113.241 5.41797 113.739 4.98438C114.243 4.55078 114.809 4.24609 115.436 4.07031C116.068 3.88867 116.751 3.79785 117.483 3.79785C117.97 3.79785 118.538 3.8418 119.188 3.92969C119.235 3.23242 119.268 2.25684 119.285 1.00293C120.006 1.01465 120.595 1.02051 121.052 1.02051C121.644 1.02051 122.241 1.01465 122.845 1.00293C122.675 2.74316 122.525 4.86719 122.396 7.375C122.268 9.88281 122.203 11.7578 122.203 13ZM119.065 6.21484C118.755 6.14453 118.462 6.10938 118.187 6.10938C117.618 6.10938 117.135 6.2207 116.736 6.44336C116.338 6.66016 116.03 7.00293 115.813 7.47168C115.603 7.93457 115.497 8.3916 115.497 8.84277C115.497 9.18262 115.556 9.49023 115.673 9.76562C115.796 10.0352 115.98 10.249 116.227 10.4072C116.479 10.5654 116.757 10.6445 117.062 10.6445C117.384 10.6445 117.677 10.5537 117.94 10.3721C118.21 10.1904 118.427 9.92383 118.591 9.57227C118.761 9.2207 118.875 8.80469 118.934 8.32422C118.998 7.83789 119.042 7.13477 119.065 6.21484ZM124.119 12.833C124.096 12.5752 124.072 12.3057 124.049 12.0244C124.025 11.7373 123.987 11.3447 123.935 10.8467L123.864 10.2139C124.433 10.4365 124.922 10.6035 125.332 10.7148C125.742 10.8203 126.12 10.873 126.466 10.873C126.753 10.873 126.984 10.8467 127.16 10.7939C127.342 10.7412 127.474 10.665 127.556 10.5654C127.638 10.4658 127.679 10.3633 127.679 10.2578C127.679 10.1641 127.646 10.0732 127.582 9.98535C127.523 9.8916 127.386 9.76562 127.169 9.60742C126.688 9.25586 126.264 8.93652 125.895 8.64941C125.531 8.3623 125.256 8.10742 125.068 7.88477C124.887 7.66211 124.746 7.42188 124.646 7.16406C124.553 6.90625 124.506 6.63965 124.506 6.36426C124.506 5.87793 124.644 5.42383 124.919 5.00195C125.2 4.58008 125.61 4.27539 126.149 4.08789C126.694 3.89453 127.356 3.79785 128.136 3.79785C128.95 3.79785 129.99 3.90332 131.256 4.11426L131.396 6.58398C130.688 6.30273 130.005 6.16211 129.349 6.16211C128.886 6.16211 128.549 6.20898 128.338 6.30273C128.133 6.39648 128.03 6.54004 128.03 6.7334C128.03 6.79785 128.042 6.85938 128.065 6.91797C128.089 6.97656 128.13 7.03809 128.188 7.10254C128.253 7.16699 128.329 7.23438 128.417 7.30469C128.511 7.36914 128.733 7.52441 129.085 7.77051C129.437 8.0166 129.712 8.21875 129.911 8.37695C130.239 8.63477 130.488 8.875 130.658 9.09766C130.834 9.31445 130.966 9.54883 131.054 9.80078C131.147 10.0469 131.194 10.3076 131.194 10.583C131.194 10.999 131.092 11.3828 130.887 11.7344C130.688 12.0801 130.383 12.3701 129.973 12.6045C129.568 12.8389 129.129 13 128.654 13.0879C128.18 13.1816 127.69 13.2285 127.187 13.2285C126.847 13.2285 126.419 13.1992 125.903 13.1406C125.394 13.082 124.799 12.9795 124.119 12.833ZM140.379 10.1963C140.35 10.4307 140.279 10.8613 140.168 11.4883L139.939 12.8945C139.02 13.1172 138.12 13.2285 137.241 13.2285C136.603 13.2285 136.043 13.1641 135.562 13.0352C134.994 12.8828 134.484 12.6133 134.033 12.2266C133.57 11.8281 133.233 11.3564 133.022 10.8115C132.771 10.1729 132.645 9.45801 132.645 8.66699C132.645 7.94043 132.768 7.24023 133.014 6.56641C133.26 5.89258 133.623 5.33887 134.104 4.90527C134.584 4.46582 135.117 4.17285 135.703 4.02637C136.289 3.87402 136.937 3.79785 137.646 3.79785C138.062 3.79785 138.48 3.82129 138.902 3.86816C139.324 3.90918 139.846 4.00293 140.467 4.14941L140.484 4.35156C140.502 4.5625 140.514 4.7793 140.52 5.00195C140.531 5.21875 140.552 5.56445 140.581 6.03906L140.634 6.82129C139.796 6.52832 139.055 6.38184 138.41 6.38184C137.947 6.38184 137.54 6.47266 137.188 6.6543C136.843 6.83008 136.585 7.08789 136.415 7.42773C136.251 7.76172 136.169 8.15137 136.169 8.59668C136.169 9.04785 136.242 9.42578 136.389 9.73047C136.541 10.0352 136.781 10.2637 137.109 10.416C137.438 10.5684 137.798 10.6445 138.19 10.6445C138.39 10.6445 138.624 10.624 138.894 10.583C139.169 10.542 139.406 10.498 139.605 10.4512C139.811 10.3984 140.068 10.3135 140.379 10.1963ZM142.822 6.58398C142.934 6.00391 143.004 5.60547 143.033 5.38867C143.062 5.16602 143.109 4.82031 143.174 4.35156C144.861 3.98242 146.312 3.79785 147.524 3.79785C148.216 3.79785 148.849 3.87695 149.423 4.03516C149.997 4.1875 150.445 4.43652 150.768 4.78223C151.09 5.12793 151.251 5.62305 151.251 6.26758C151.251 6.5957 151.207 7.33398 151.119 8.48242C151.031 9.63086 150.964 11.1367 150.917 13C150.343 12.9883 149.771 12.9824 149.203 12.9824C148.652 12.9824 148.066 12.9883 147.445 13C147.527 12.3555 147.618 11.0254 147.718 9.00977C147.495 9.11523 147.319 9.19141 147.19 9.23828C147.067 9.28516 146.848 9.35547 146.531 9.44922C146.215 9.54297 145.966 9.62207 145.784 9.68652C145.608 9.75098 145.453 9.83301 145.318 9.93262C145.189 10.0322 145.096 10.1348 145.037 10.2402C144.984 10.3457 144.958 10.4629 144.958 10.5918C144.958 10.791 145.037 10.9609 145.195 11.1016C145.354 11.2422 145.605 11.3125 145.951 11.3125C146.074 11.3125 146.206 11.3037 146.347 11.2861C146.487 11.2627 146.681 11.21 146.927 11.1279C146.757 11.5791 146.555 12.2383 146.32 13.1055C145.816 13.1875 145.339 13.2285 144.888 13.2285C144.161 13.2285 143.555 13.1289 143.068 12.9297C142.588 12.7246 142.216 12.3965 141.952 11.9453C141.694 11.4941 141.565 11.043 141.565 10.5918C141.565 10.3164 141.612 10.0469 141.706 9.7832C141.806 9.51953 141.958 9.26172 142.163 9.00977C142.368 8.75781 142.608 8.54395 142.884 8.36816C143.159 8.18652 143.534 8.0166 144.009 7.8584C144.489 7.7002 145.096 7.55078 145.828 7.41016C146.133 7.35156 146.411 7.29004 146.663 7.22559C146.921 7.15527 147.103 7.09668 147.208 7.0498C147.319 6.99707 147.407 6.93848 147.472 6.87402C147.542 6.80371 147.592 6.7334 147.621 6.66309C147.65 6.58691 147.665 6.50781 147.665 6.42578C147.665 6.20312 147.571 6.0332 147.384 5.91602C147.196 5.79297 146.921 5.73145 146.558 5.73145C145.55 5.73145 144.305 6.01562 142.822 6.58398ZM152.631 17.1133C152.742 15.9121 152.836 14.7139 152.912 13.5186C153.047 11.4736 153.138 9.75977 153.185 8.37695C153.237 6.98828 153.264 5.61426 153.264 4.25488C154.453 4.07324 155.385 3.95313 156.059 3.89453C156.732 3.83008 157.406 3.79785 158.08 3.79785C158.924 3.79785 159.7 3.88574 160.409 4.06152C161.118 4.2373 161.687 4.54785 162.114 4.99316C162.548 5.43848 162.873 5.96875 163.09 6.58398C163.307 7.19922 163.415 7.84375 163.415 8.51758C163.415 9.13281 163.327 9.73047 163.151 10.3105C162.976 10.8848 162.706 11.4033 162.343 11.8662C161.979 12.3291 161.561 12.6719 161.086 12.8945C160.617 13.1172 160.093 13.2285 159.513 13.2285C159.226 13.2285 158.927 13.1992 158.616 13.1406C158.312 13.0879 158.021 13.0088 157.746 12.9033C157.471 12.7979 157.239 12.6924 157.052 12.5869C156.87 12.4756 156.642 12.3174 156.366 12.1123L156.27 14.5645C156.229 15.6895 156.208 16.5391 156.208 17.1133C155.528 17.1016 154.945 17.0957 154.459 17.0957C154.037 17.0957 153.428 17.1016 152.631 17.1133ZM156.683 6.49609C156.636 6.75977 156.604 6.97656 156.586 7.14648C156.568 7.31055 156.551 7.53613 156.533 7.82324C156.516 8.10449 156.507 8.33008 156.507 8.5C156.507 8.98047 156.58 9.38477 156.727 9.71289C156.879 10.0352 157.087 10.2871 157.351 10.4688C157.62 10.6445 157.907 10.7324 158.212 10.7324C158.534 10.7324 158.83 10.6416 159.1 10.46C159.369 10.2725 159.583 9.99414 159.741 9.625C159.899 9.25586 159.979 8.83984 159.979 8.37695C159.979 7.75 159.812 7.24609 159.478 6.86523C159.149 6.48438 158.669 6.29395 158.036 6.29395C157.638 6.29395 157.187 6.36133 156.683 6.49609ZM165.226 2.91016C165.261 2.21289 165.278 1.66211 165.278 1.25781C165.278 1.14063 165.275 0.982422 165.27 0.783203C165.979 0.794922 166.573 0.800781 167.054 0.800781C167.716 0.800781 168.296 0.794922 168.794 0.783203C168.776 0.964844 168.765 1.11719 168.759 1.24023L168.706 2.33008C168.694 2.49414 168.688 2.6875 168.688 2.91016C168.108 2.89844 167.552 2.89258 167.019 2.89258C166.468 2.89258 165.87 2.89844 165.226 2.91016ZM164.672 13C164.754 12.2852 164.815 11.6963 164.856 11.2334C164.897 10.7705 164.936 10.1787 164.971 9.45801C165.012 8.7373 165.047 7.94043 165.076 7.06738C165.105 6.19434 165.129 5.18066 165.146 4.02637C165.908 4.03809 166.518 4.04395 166.975 4.04395C167.391 4.04395 167.988 4.03809 168.768 4.02637C168.668 5.13379 168.595 6.10645 168.548 6.94434C168.507 7.78223 168.48 8.66992 168.469 9.60742C168.445 11.2715 168.434 12.4023 168.434 13C167.736 12.9883 167.136 12.9824 166.632 12.9824C166.134 12.9824 165.48 12.9883 164.672 13ZM170.262 13C170.432 11.6699 170.561 10.2021 170.648 8.59668C170.742 6.98535 170.798 5.46191 170.815 4.02637C171.519 4.03809 172.125 4.04395 172.635 4.04395C173.227 4.04395 173.795 4.03809 174.34 4.02637L174.252 5.22168C174.445 5.00488 174.612 4.83496 174.753 4.71191C174.894 4.58301 175.066 4.45996 175.271 4.34277C175.482 4.21973 175.705 4.12012 175.939 4.04395C176.174 3.96777 176.429 3.90918 176.704 3.86816C176.985 3.82129 177.278 3.79785 177.583 3.79785C178.005 3.79785 178.415 3.84473 178.813 3.93848C179.218 4.02637 179.555 4.15527 179.824 4.3252C180.094 4.48926 180.319 4.69727 180.501 4.94922C180.683 5.19531 180.803 5.46191 180.861 5.74902C180.92 6.03613 180.949 6.33203 180.949 6.63672C180.949 6.85938 180.926 7.33984 180.879 8.07812L180.729 11.2598C180.7 11.8867 180.686 12.4668 180.686 13C180.094 12.9883 179.54 12.9824 179.024 12.9824C178.327 12.9824 177.691 12.9883 177.117 13C177.17 12.4668 177.226 11.6758 177.284 10.627C177.343 9.57227 177.372 8.83105 177.372 8.40332C177.372 7.74121 177.243 7.28125 176.985 7.02344C176.733 6.75977 176.414 6.62793 176.027 6.62793C175.688 6.62793 175.365 6.73926 175.061 6.96191C174.762 7.18457 174.53 7.50977 174.366 7.9375C174.202 8.35938 174.085 9.05664 174.015 10.0293C173.95 11.002 173.906 11.9922 173.883 13C173.297 12.9883 172.726 12.9824 172.169 12.9824C171.583 12.9824 170.947 12.9883 170.262 13ZM183.287 14.0898C184.043 14.3477 184.708 14.5264 185.282 14.626C185.856 14.7314 186.357 14.7842 186.785 14.7842C187.096 14.7842 187.377 14.749 187.629 14.6787C187.881 14.6143 188.083 14.5322 188.235 14.4326C188.388 14.333 188.517 14.207 188.622 14.0547C188.733 13.9023 188.818 13.7324 188.877 13.5449C188.936 13.3574 188.977 13.1406 189 12.8945C189.023 12.6484 189.044 12.3086 189.062 11.875C188.833 12.0801 188.634 12.2441 188.464 12.3672C188.3 12.4902 188.095 12.6104 187.849 12.7275C187.603 12.8389 187.333 12.9268 187.04 12.9912C186.753 13.0498 186.448 13.0791 186.126 13.0791C185.382 13.0791 184.711 12.9062 184.113 12.5605C183.516 12.2148 183.07 11.7314 182.777 11.1104C182.484 10.4893 182.338 9.81836 182.338 9.09766C182.338 8.24805 182.496 7.48047 182.812 6.79492C183.129 6.10938 183.58 5.5293 184.166 5.05469C184.758 4.58008 185.405 4.25195 186.108 4.07031C186.812 3.88867 187.608 3.79785 188.499 3.79785C189.009 3.79785 189.586 3.83008 190.23 3.89453C190.881 3.95313 191.771 4.08496 192.902 4.29004L192.691 7.19043L192.507 10.3721C192.495 10.6006 192.489 10.7881 192.489 10.9346L192.419 13.791C192.407 14.1543 192.363 14.5 192.287 14.8281C192.223 15.127 192.114 15.4053 191.962 15.6631C191.81 15.9209 191.622 16.1465 191.399 16.3398C191.153 16.5508 190.878 16.7178 190.573 16.8408C190.263 16.9697 189.896 17.0752 189.475 17.1572C189.018 17.2393 188.54 17.2803 188.042 17.2803C187.761 17.2803 187.415 17.2656 187.005 17.2363C186.595 17.2129 186.173 17.1748 185.739 17.1221C185.312 17.0693 184.939 17.0137 184.623 16.9551C184.312 16.8965 183.917 16.8115 183.437 16.7002L183.375 15.54C183.369 15.3174 183.34 14.834 183.287 14.0898ZM189.325 6.4873C188.962 6.41699 188.637 6.38184 188.35 6.38184C187.822 6.38184 187.365 6.48438 186.979 6.68945C186.598 6.88867 186.302 7.19043 186.091 7.59473C185.88 7.99316 185.774 8.40918 185.774 8.84277C185.774 9.15918 185.83 9.45215 185.941 9.72168C186.053 9.99121 186.237 10.2051 186.495 10.3633C186.753 10.5156 187.025 10.5918 187.312 10.5918C187.734 10.5918 188.109 10.4395 188.438 10.1348C188.766 9.83008 188.991 9.41406 189.114 8.88672C189.237 8.35938 189.308 7.55957 189.325 6.4873Z" fill="white"/>
</svg>
