<svg width="254" height="242" viewBox="0 0 254 242" fill="none" xmlns="http://www.w3.org/2000/svg">
<path d="M56.0916 241.701C53.6216 241.701 51.1685 240.928 49.0722 239.402C45.3602 236.707 43.5365 232.223 44.3121 227.698L56.4372 156.996C56.6396 155.819 56.249 154.619 55.3947 153.784L4.02793 103.713C0.743039 100.509 -0.417491 95.8111 1.00156 91.4472C2.42061 87.0832 6.12138 83.9641 10.6595 83.3038L81.6486 72.9883C82.8316 72.8169 83.8516 72.075 84.3799 71.0016L116.127 6.6779C118.159 2.56406 122.267 0.00976562 126.856 0.00976562C131.445 0.00976562 135.556 2.56406 137.584 6.6779L169.332 71.0072C169.86 72.0806 170.88 72.8197 172.063 72.9939L243.055 83.3094C247.596 83.9698 251.294 87.0889 252.71 91.4528C254.126 95.8167 252.969 100.515 249.681 103.718L198.314 153.784C197.46 154.619 197.069 155.816 197.272 156.996L209.397 227.698C210.17 232.223 208.346 236.707 204.637 239.402C200.927 242.102 196.1 242.451 192.037 240.315L128.542 206.933C127.485 206.373 126.224 206.376 125.167 206.93L61.6723 240.313C59.9048 241.24 57.994 241.701 56.0916 241.701ZM126.856 198.177C128.767 198.177 130.68 198.635 132.425 199.551L195.92 232.933C197.718 233.892 199.194 233.057 199.739 232.658C200.287 232.259 201.526 231.115 201.183 229.109L189.058 158.409C188.392 154.526 189.676 150.567 192.5 147.816L243.867 97.7444C245.325 96.3225 244.997 94.6702 244.783 94.0267C244.575 93.3833 243.87 91.8518 241.858 91.5596L170.866 81.2441C166.966 80.6764 163.599 78.2289 161.857 74.6968L130.11 10.3702C129.208 8.54374 127.533 8.34704 126.856 8.34704C126.179 8.34704 124.504 8.54374 123.605 10.3674L91.8573 74.6968C90.1123 78.2289 86.7459 80.6736 82.8484 81.2412L11.8566 91.5568C9.84182 91.849 9.13932 93.3804 8.92857 94.0239C8.72063 94.6702 8.38905 96.3225 9.84463 97.7416L61.2142 147.816C64.0355 150.564 65.3225 154.526 64.6565 158.409L52.5313 229.109C52.1857 231.115 53.4249 232.256 53.9729 232.655C54.5236 233.054 55.9905 233.88 57.7917 232.933L121.289 199.548C123.031 198.635 124.945 198.177 126.856 198.177Z" fill="#80CC28"/>
</svg>
