<svg width="1280" height="185" viewBox="0 0 1280 185" fill="none" xmlns="http://www.w3.org/2000/svg">
<g clip-path="url(#clip0_426_3)">
<rect width="1280" height="185" fill="white"/>
<path d="M0 0H1300V185H0V0Z" fill="#1F1D1D"/>
<path d="M0.25 0.25H1299.75V184.75H0.25V0.25Z" stroke="#646464" stroke-opacity="0.4" stroke-width="0.5"/>
<path opacity="0.08" d="M613.138 58.416C604.406 58.416 596.972 56.9213 590.836 53.932C584.779 50.864 580.177 46.2227 577.03 40.008C573.883 33.7933 572.31 25.9267 572.31 16.408C572.31 2.40533 575.811 -8.05734 582.812 -14.98C589.892 -21.9813 600.001 -25.482 613.138 -25.482C620.454 -25.482 626.944 -24.2233 632.608 -21.706C638.272 -19.2673 642.677 -15.57 645.824 -10.614C649.049 -5.73667 650.662 0.359997 650.662 7.676H630.012C630.012 4.21467 629.304 1.26466 627.888 -1.174C626.551 -3.69134 624.623 -5.61867 622.106 -6.95601C619.667 -8.29334 616.678 -8.962 613.138 -8.962C608.733 -8.962 605.114 -8.05734 602.282 -6.248C599.45 -4.43867 597.365 -1.84267 596.028 1.54C594.691 4.92266 594.022 9.01333 594.022 13.812V19.122C594.022 23.9207 594.691 28.0507 596.028 31.512C597.365 34.8947 599.411 37.4907 602.164 39.3C604.996 41.0307 608.615 41.896 613.02 41.896C616.796 41.896 619.982 41.2667 622.578 40.008C625.253 38.7493 627.259 36.9007 628.596 34.462C630.012 31.9447 630.72 28.9553 630.72 25.494H650.662C650.662 32.81 649.089 38.9067 645.942 43.784C642.874 48.6613 638.508 52.3193 632.844 54.758C627.259 57.1967 620.69 58.416 613.138 58.416ZM693.136 58.416C686.214 58.416 680.274 57.236 675.318 54.876C670.441 52.516 666.665 48.9367 663.99 44.138C661.394 39.2607 660.096 33.164 660.096 25.848C660.096 18.532 661.394 12.4747 663.99 7.676C666.665 2.87733 670.441 -0.702003 675.318 -3.062C680.274 -5.422 686.214 -6.602 693.136 -6.602C700.138 -6.602 706.077 -5.422 710.954 -3.062C715.91 -0.702003 719.686 2.87733 722.282 7.676C724.957 12.4747 726.294 18.532 726.294 25.848C726.294 33.164 724.957 39.2607 722.282 44.138C719.686 48.9367 715.91 52.516 710.954 54.876C706.077 57.236 700.138 58.416 693.136 58.416ZM693.136 44.374C696.362 44.374 698.958 43.7447 700.924 42.486C702.97 41.2273 704.425 39.418 705.29 37.058C706.234 34.6193 706.706 31.63 706.706 28.09V23.724C706.706 20.184 706.234 17.1947 705.29 14.756C704.425 12.3173 702.97 10.508 700.924 9.328C698.958 8.06933 696.362 7.44 693.136 7.44C689.99 7.44 687.394 8.06933 685.348 9.328C683.382 10.508 681.926 12.3173 680.982 14.756C680.117 17.1947 679.684 20.184 679.684 23.724V28.09C679.684 31.63 680.117 34.6193 680.982 37.058C681.926 39.418 683.382 41.2273 685.348 42.486C687.394 43.7447 689.99 44.374 693.136 44.374ZM737.949 57V-5.186H753.879L755.295 3.664H756.121C757.694 1.54 759.503 -0.30867 761.549 -1.882C763.594 -3.45534 765.915 -4.63534 768.511 -5.42201C771.107 -6.20867 773.86 -6.602 776.771 -6.602C781.255 -6.602 785.031 -5.776 788.099 -4.124C791.245 -2.472 793.645 0.00599879 795.297 3.31C796.949 6.614 797.775 10.8227 797.775 15.936V57H778.423V18.65C778.423 16.9193 778.187 15.464 777.715 14.284C777.321 13.0253 776.731 11.9633 775.945 11.098C775.158 10.2327 774.175 9.60333 772.995 9.21C771.815 8.81666 770.477 8.62 768.983 8.62C766.701 8.62 764.695 9.17066 762.965 10.272C761.234 11.2947 759.857 12.7107 758.835 14.52C757.812 16.2507 757.301 18.296 757.301 20.656V57H737.949ZM838.828 58.416C834.737 58.416 830.882 57.9833 827.264 57.118C823.724 56.2527 820.577 54.994 817.824 53.342C815.149 51.69 813.025 49.6447 811.452 47.206C809.957 44.7673 809.21 41.9353 809.21 38.71C809.21 38.3953 809.21 38.12 809.21 37.884C809.21 37.5693 809.249 37.294 809.328 37.058H827.618C827.618 37.2153 827.618 37.412 827.618 37.648C827.618 37.8053 827.618 37.9627 827.618 38.12C827.696 39.8507 828.247 41.306 829.27 42.486C830.371 43.5873 831.787 44.4133 833.518 44.964C835.248 45.436 837.136 45.672 839.182 45.672C840.676 45.672 842.25 45.5147 843.902 45.2C845.632 44.8853 847.088 44.3347 848.268 43.548C849.448 42.7613 850.038 41.6207 850.038 40.126C850.038 38.474 849.29 37.2153 847.796 36.35C846.38 35.4847 844.452 34.7767 842.014 34.226C839.654 33.5967 837.097 33.0067 834.344 32.456C831.59 31.8267 828.798 31.1187 825.966 30.332C823.212 29.5453 820.656 28.4833 818.296 27.146C816.014 25.73 814.166 23.9207 812.75 21.718C811.334 19.5153 810.626 16.7227 810.626 13.34C810.626 9.72133 811.373 6.65333 812.868 4.136C814.441 1.54 816.565 -0.544671 819.24 -2.11801C821.914 -3.69134 824.982 -4.832 828.444 -5.54C831.984 -6.248 835.72 -6.602 839.654 -6.602C843.272 -6.602 846.694 -6.248 849.92 -5.54C853.224 -4.832 856.174 -3.73067 858.77 -2.236C861.444 -0.820003 863.529 1.02866 865.024 3.31C866.518 5.51266 867.266 8.10866 867.266 11.098C867.266 11.4913 867.226 11.924 867.148 12.396C867.148 12.7893 867.148 13.0647 867.148 13.222H848.976V12.278C848.976 10.9407 848.543 9.83933 847.678 8.974C846.812 8.10867 845.632 7.44 844.138 6.968C842.643 6.41733 840.991 6.142 839.182 6.142C838.002 6.142 836.822 6.26 835.642 6.496C834.54 6.65333 833.518 6.92866 832.574 7.322C831.63 7.63666 830.843 8.10866 830.214 8.738C829.663 9.36733 829.388 10.154 829.388 11.098C829.388 12.278 829.899 13.2613 830.922 14.048C831.944 14.756 833.321 15.346 835.052 15.818C836.861 16.29 838.828 16.8013 840.952 17.352C843.862 17.9813 846.93 18.65 850.156 19.358C853.381 19.9873 856.41 20.9313 859.242 22.19C862.152 23.37 864.473 25.1793 866.204 27.618C868.013 29.978 868.918 33.2427 868.918 37.412C868.918 41.3453 868.131 44.6887 866.558 47.442C864.984 50.1167 862.821 52.28 860.068 53.932C857.314 55.5053 854.128 56.646 850.51 57.354C846.891 58.062 842.997 58.416 838.828 58.416ZM902.324 58.416C898.312 58.416 894.89 57.826 892.058 56.646C889.304 55.3873 887.22 53.5387 885.804 51.1C884.466 48.6613 883.798 45.7113 883.798 42.25V8.856H875.656V-5.186H884.388L888.4 -23.358H903.032V-5.186H915.186V8.856H903.032V37.53C903.032 39.7327 903.464 41.424 904.33 42.604C905.195 43.784 906.768 44.374 909.05 44.374H915.186V56.41C914.163 56.7247 912.865 57.0393 911.292 57.354C909.797 57.7473 908.263 58.0227 906.69 58.18C905.116 58.3373 903.661 58.416 902.324 58.416ZM925.896 57V-5.186H941.826L943.242 4.372H944.068C945.012 2.248 946.153 0.359998 947.49 -1.292C948.906 -3.02267 950.597 -4.36 952.564 -5.304C954.609 -6.248 956.851 -6.72 959.29 -6.72C960.706 -6.72 962.004 -6.56267 963.184 -6.248C964.364 -6.012 965.229 -5.73667 965.78 -5.42201V11.452H959.644C957.205 11.452 955.042 11.806 953.154 12.514C951.345 13.1433 949.85 14.166 948.67 15.582C947.49 16.9193 946.625 18.5713 946.074 20.538C945.523 22.5047 945.248 24.786 945.248 27.382V57H925.896ZM994.599 58.416C987.912 58.416 982.72 56.5673 979.023 52.87C975.404 49.1727 973.595 43.5087 973.595 35.878V-5.186H992.947V33.164C992.947 34.816 993.143 36.2713 993.537 37.53C994.009 38.7887 994.638 39.8507 995.425 40.716C996.211 41.5813 997.195 42.2107 998.375 42.604C999.633 42.9973 1000.97 43.194 1002.39 43.194C1004.67 43.194 1006.67 42.6827 1008.4 41.66C1010.14 40.5587 1011.51 39.1033 1012.53 37.294C1013.56 35.406 1014.07 33.3607 1014.07 31.158V-5.186H1033.42V57H1017.49L1016.31 48.15H1015.48C1014.07 50.1953 1012.26 52.0047 1010.06 53.578C1007.93 55.1513 1005.53 56.3313 1002.86 57.118C1000.26 57.9833 997.509 58.416 994.599 58.416ZM1077.54 58.416C1070.7 58.416 1064.88 57.236 1060.08 54.876C1055.28 52.516 1051.58 48.9367 1048.99 44.138C1046.47 39.2607 1045.21 33.164 1045.21 25.848C1045.21 18.532 1046.51 12.4747 1049.1 7.676C1051.7 2.79866 1055.4 -0.820003 1060.2 -3.18001C1064.99 -5.54 1070.78 -6.72 1077.54 -6.72C1081.95 -6.72 1086 -6.20867 1089.7 -5.186C1093.47 -4.16333 1096.74 -2.59 1099.49 -0.466002C1102.32 1.658 1104.49 4.33266 1105.98 7.558C1107.47 10.7833 1108.22 14.638 1108.22 19.122H1089.22C1089.22 16.4473 1088.75 14.2447 1087.81 12.514C1086.94 10.7833 1085.64 9.48533 1083.91 8.62C1082.18 7.75466 1080.02 7.322 1077.42 7.322C1074.43 7.322 1072 7.95133 1070.11 9.21C1068.3 10.4687 1066.96 12.3173 1066.1 14.756C1065.23 17.1947 1064.8 20.2233 1064.8 23.842V28.09C1064.8 31.63 1065.23 34.6193 1066.1 37.058C1066.96 39.4967 1068.38 41.3453 1070.34 42.604C1072.31 43.784 1074.83 44.374 1077.9 44.374C1080.57 44.374 1082.77 43.9807 1084.5 43.194C1086.31 42.3287 1087.69 41.0307 1088.63 39.3C1089.58 37.4907 1090.05 35.2487 1090.05 32.574H1108.22C1108.22 36.9007 1107.47 40.716 1105.98 44.02C1104.49 47.2453 1102.36 49.92 1099.61 52.044C1096.85 54.168 1093.59 55.7807 1089.81 56.882C1086.04 57.9047 1081.95 58.416 1077.54 58.416ZM1142.24 58.416C1138.23 58.416 1134.81 57.826 1131.98 56.646C1129.22 55.3873 1127.14 53.5387 1125.72 51.1C1124.38 48.6613 1123.72 45.7113 1123.72 42.25V8.856H1115.57V-5.186H1124.31L1128.32 -23.358H1142.95V-5.186H1155.1V8.856H1142.95V37.53C1142.95 39.7327 1143.38 41.424 1144.25 42.604C1145.11 43.784 1146.69 44.374 1148.97 44.374H1155.1V56.41C1154.08 56.7247 1152.78 57.0393 1151.21 57.354C1149.72 57.7473 1148.18 58.0227 1146.61 58.18C1145.03 58.3373 1143.58 58.416 1142.24 58.416ZM1165.81 -13.564V-28.432H1185.17V-13.564H1165.81ZM1165.81 57V-5.186H1185.17V57H1165.81ZM1229.9 58.416C1222.98 58.416 1217.04 57.236 1212.08 54.876C1207.2 52.516 1203.43 48.9367 1200.75 44.138C1198.16 39.2607 1196.86 33.164 1196.86 25.848C1196.86 18.532 1198.16 12.4747 1200.75 7.676C1203.43 2.87733 1207.2 -0.702003 1212.08 -3.062C1217.04 -5.422 1222.98 -6.602 1229.9 -6.602C1236.9 -6.602 1242.84 -5.422 1247.72 -3.062C1252.67 -0.702003 1256.45 2.87733 1259.04 7.676C1261.72 12.4747 1263.06 18.532 1263.06 25.848C1263.06 33.164 1261.72 39.2607 1259.04 44.138C1256.45 48.9367 1252.67 52.516 1247.72 54.876C1242.84 57.236 1236.9 58.416 1229.9 58.416ZM1229.9 44.374C1233.12 44.374 1235.72 43.7447 1237.69 42.486C1239.73 41.2273 1241.19 39.418 1242.05 37.058C1243 34.6193 1243.47 31.63 1243.47 28.09V23.724C1243.47 20.184 1243 17.1947 1242.05 14.756C1241.19 12.3173 1239.73 10.508 1237.69 9.328C1235.72 8.06933 1233.12 7.44 1229.9 7.44C1226.75 7.44 1224.16 8.06933 1222.11 9.328C1220.14 10.508 1218.69 12.3173 1217.74 14.756C1216.88 17.1947 1216.45 20.184 1216.45 23.724V28.09C1216.45 31.63 1216.88 34.6193 1217.74 37.058C1218.69 39.418 1220.14 41.2273 1222.11 42.486C1224.16 43.7447 1226.75 44.374 1229.9 44.374ZM1274.71 57V-5.186H1290.64L1292.06 3.664H1292.88C1294.46 1.54 1296.27 -0.30867 1298.31 -1.882C1300.36 -3.45534 1302.68 -4.63534 1305.27 -5.42201C1307.87 -6.20867 1310.62 -6.602 1313.53 -6.602C1318.02 -6.602 1321.79 -5.776 1324.86 -4.124C1328.01 -2.472 1330.41 0.00599879 1332.06 3.31C1333.71 6.614 1334.54 10.8227 1334.54 15.936V57H1315.18V18.65C1315.18 16.9193 1314.95 15.464 1314.48 14.284C1314.08 13.0253 1313.49 11.9633 1312.71 11.098C1311.92 10.2327 1310.94 9.60333 1309.76 9.21C1308.58 8.81666 1307.24 8.62 1305.74 8.62C1303.46 8.62 1301.46 9.17066 1299.73 10.272C1298 11.2947 1296.62 12.7107 1295.6 14.52C1294.57 16.2507 1294.06 18.296 1294.06 20.656V57H1274.71Z" fill="white"/>
<path opacity="0.08" d="M711.85 202V120.934H745.716C754.527 120.934 761.961 122.389 768.018 125.3C774.154 128.211 778.795 132.655 781.942 138.634C785.167 144.534 786.78 152.125 786.78 161.408C786.78 170.612 785.167 178.243 781.942 184.3C778.795 190.279 774.154 194.723 768.018 197.634C761.961 200.545 754.527 202 745.716 202H711.85ZM732.972 185.48H745.48C748.784 185.48 751.655 185.008 754.094 184.064C756.533 183.12 758.578 181.743 760.23 179.934C761.882 178.125 763.101 175.883 763.888 173.208C764.675 170.533 765.068 167.465 765.068 164.004V159.048C765.068 155.508 764.675 152.401 763.888 149.726C763.101 147.051 761.882 144.809 760.23 143C758.578 141.191 756.533 139.814 754.094 138.87C751.655 137.926 748.784 137.454 745.48 137.454H732.972V185.48ZM829.836 203.416C822.756 203.416 816.738 202.275 811.782 199.994C806.826 197.634 803.011 194.055 800.336 189.256C797.74 184.457 796.442 178.321 796.442 170.848C796.442 163.532 797.74 157.475 800.336 152.676C802.932 147.877 806.669 144.298 811.546 141.938C816.424 139.578 822.284 138.398 829.128 138.398C835.894 138.398 841.597 139.539 846.238 141.82C850.958 144.101 854.538 147.602 856.976 152.322C859.415 157.042 860.634 163.139 860.634 170.612V174.742H816.03C816.03 178.046 816.502 180.839 817.446 183.12C818.39 185.401 819.846 187.132 821.812 188.312C823.779 189.492 826.414 190.082 829.718 190.082C831.685 190.082 833.416 189.846 834.91 189.374C836.405 188.902 837.664 188.233 838.686 187.368C839.709 186.424 840.496 185.323 841.046 184.064C841.597 182.805 841.872 181.389 841.872 179.816H860.634C860.634 183.592 859.926 186.975 858.51 189.964C857.173 192.875 855.167 195.353 852.492 197.398C849.818 199.365 846.553 200.859 842.698 201.882C838.922 202.905 834.635 203.416 829.836 203.416ZM816.148 164.004H840.928C840.928 161.959 840.653 160.189 840.102 158.694C839.63 157.121 838.883 155.823 837.86 154.8C836.916 153.777 835.736 153.03 834.32 152.558C832.983 152.007 831.41 151.732 829.6 151.732C826.768 151.732 824.408 152.204 822.52 153.148C820.632 154.092 819.177 155.469 818.154 157.278C817.132 159.087 816.463 161.329 816.148 164.004ZM899.119 203.416C895.028 203.416 891.173 202.983 887.555 202.118C884.015 201.253 880.868 199.994 878.115 198.342C875.44 196.69 873.316 194.645 871.743 192.206C870.248 189.767 869.501 186.935 869.501 183.71C869.501 183.395 869.501 183.12 869.501 182.884C869.501 182.569 869.54 182.294 869.619 182.058H887.909C887.909 182.215 887.909 182.412 887.909 182.648C887.909 182.805 887.909 182.963 887.909 183.12C887.987 184.851 888.538 186.306 889.561 187.486C890.662 188.587 892.078 189.413 893.809 189.964C895.539 190.436 897.427 190.672 899.473 190.672C900.967 190.672 902.541 190.515 904.193 190.2C905.923 189.885 907.379 189.335 908.559 188.548C909.739 187.761 910.329 186.621 910.329 185.126C910.329 183.474 909.581 182.215 908.087 181.35C906.671 180.485 904.743 179.777 902.305 179.226C899.945 178.597 897.388 178.007 894.635 177.456C891.881 176.827 889.089 176.119 886.257 175.332C883.503 174.545 880.947 173.483 878.587 172.146C876.305 170.73 874.457 168.921 873.041 166.718C871.625 164.515 870.917 161.723 870.917 158.34C870.917 154.721 871.664 151.653 873.159 149.136C874.732 146.54 876.856 144.455 879.531 142.882C882.205 141.309 885.273 140.168 888.735 139.46C892.275 138.752 896.011 138.398 899.945 138.398C903.563 138.398 906.985 138.752 910.211 139.46C913.515 140.168 916.465 141.269 919.061 142.764C921.735 144.18 923.82 146.029 925.315 148.31C926.809 150.513 927.557 153.109 927.557 156.098C927.557 156.491 927.517 156.924 927.439 157.396C927.439 157.789 927.439 158.065 927.439 158.222H909.267V157.278C909.267 155.941 908.834 154.839 907.969 153.974C907.103 153.109 905.923 152.44 904.429 151.968C902.934 151.417 901.282 151.142 899.473 151.142C898.293 151.142 897.113 151.26 895.933 151.496C894.831 151.653 893.809 151.929 892.865 152.322C891.921 152.637 891.134 153.109 890.505 153.738C889.954 154.367 889.679 155.154 889.679 156.098C889.679 157.278 890.19 158.261 891.213 159.048C892.235 159.756 893.612 160.346 895.343 160.818C897.152 161.29 899.119 161.801 901.243 162.352C904.153 162.981 907.221 163.65 910.447 164.358C913.672 164.987 916.701 165.931 919.533 167.19C922.443 168.37 924.764 170.179 926.495 172.618C928.304 174.978 929.209 178.243 929.209 182.412C929.209 186.345 928.422 189.689 926.849 192.442C925.275 195.117 923.112 197.28 920.359 198.932C917.605 200.505 914.419 201.646 910.801 202.354C907.182 203.062 903.288 203.416 899.119 203.416ZM940.785 131.436V116.568H960.137V131.436H940.785ZM940.785 202V139.814H960.137V202H940.785ZM984.809 225.246C982.056 225.246 979.46 224.617 977.021 223.358C974.582 222.178 972.616 220.447 971.121 218.166C969.705 215.963 968.997 213.367 968.997 210.378C968.997 207.074 969.98 204.281 971.947 202C973.992 199.797 976.274 198.145 978.791 197.044C976.982 195.864 975.487 194.409 974.307 192.678C973.206 190.869 972.655 188.863 972.655 186.66C972.655 183.592 973.796 180.996 976.077 178.872C978.358 176.748 981.033 175.332 984.101 174.624C981.269 172.815 978.948 170.573 977.139 167.898C975.408 165.223 974.543 162.234 974.543 158.93C974.543 154.131 975.802 150.237 978.319 147.248C980.915 144.259 984.455 142.056 988.939 140.64C993.423 139.145 998.536 138.398 1004.28 138.398C1006.56 138.398 1008.61 138.516 1010.41 138.752C1012.3 138.909 1013.99 139.185 1015.49 139.578C1018.64 137.69 1020.8 135.723 1021.98 133.678C1023.16 131.633 1023.79 129.981 1023.87 128.722H1040.74C1040.74 131.869 1040.19 134.543 1039.09 136.746C1037.99 138.87 1036.41 140.601 1034.37 141.938C1032.32 143.275 1029.88 144.298 1027.05 145.006C1029.18 146.737 1030.83 148.821 1032.01 151.26C1033.19 153.62 1033.78 156.177 1033.78 158.93C1033.78 163.414 1032.64 167.19 1030.36 170.258C1028.15 173.247 1025.09 175.529 1021.15 177.102C1017.22 178.675 1012.7 179.462 1007.58 179.462H998.379C996.176 179.462 994.524 179.816 993.423 180.524C992.4 181.153 991.889 182.019 991.889 183.12C991.889 184.143 992.361 185.047 993.305 185.834C994.249 186.542 995.862 186.896 998.143 186.896H1022.1C1028.15 186.896 1032.8 188.627 1036.02 192.088C1039.25 195.471 1040.86 199.797 1040.86 205.068C1040.86 209.08 1039.76 212.581 1037.55 215.57C1035.35 218.638 1032.4 220.998 1028.7 222.65C1025.09 224.381 1021.03 225.246 1016.55 225.246H984.809ZM994.131 213.446H1014.54C1015.88 213.446 1017.06 213.171 1018.08 212.62C1019.11 212.148 1019.89 211.44 1020.44 210.496C1021.07 209.631 1021.39 208.608 1021.39 207.428C1021.39 205.461 1020.76 203.967 1019.5 202.944C1018.24 201.921 1016.71 201.41 1014.9 201.41H994.131C992.322 201.41 990.788 201.921 989.529 202.944C988.349 204.045 987.759 205.501 987.759 207.31C987.759 209.119 988.349 210.575 989.529 211.676C990.788 212.856 992.322 213.446 994.131 213.446ZM1004.16 168.134C1007.54 168.134 1010.14 167.347 1011.95 165.774C1013.84 164.201 1014.78 161.919 1014.78 158.93C1014.78 155.862 1013.84 153.581 1011.95 152.086C1010.14 150.513 1007.54 149.726 1004.16 149.726C1000.94 149.726 998.379 150.513 996.491 152.086C994.603 153.581 993.659 155.862 993.659 158.93C993.659 160.897 994.052 162.588 994.839 164.004C995.626 165.341 996.806 166.364 998.379 167.072C999.952 167.78 1001.88 168.134 1004.16 168.134ZM1049.34 202V139.814H1065.27L1066.68 148.664H1067.51C1069.08 146.54 1070.89 144.691 1072.94 143.118C1074.98 141.545 1077.3 140.365 1079.9 139.578C1082.49 138.791 1085.25 138.398 1088.16 138.398C1092.64 138.398 1096.42 139.224 1099.49 140.876C1102.63 142.528 1105.03 145.006 1106.68 148.31C1108.34 151.614 1109.16 155.823 1109.16 160.936V202H1089.81V163.65C1089.81 161.919 1089.57 160.464 1089.1 159.284C1088.71 158.025 1088.12 156.963 1087.33 156.098C1086.54 155.233 1085.56 154.603 1084.38 154.21C1083.2 153.817 1081.86 153.62 1080.37 153.62C1078.09 153.62 1076.08 154.171 1074.35 155.272C1072.62 156.295 1071.24 157.711 1070.22 159.52C1069.2 161.251 1068.69 163.296 1068.69 165.656V202H1049.34Z" fill="white"/>
<path opacity="0.08" d="M-280.914 127V45.934H-214.008V62.454H-259.792V77.676H-219.79V93.842H-259.792V110.48H-213.182V127H-280.914ZM-200.176 127V64.814H-184.246L-182.83 73.664H-182.004C-180.431 71.54 -178.622 69.6913 -176.576 68.118C-174.531 66.5447 -172.21 65.3647 -169.614 64.578C-167.018 63.7913 -164.265 63.398 -161.354 63.398C-156.87 63.398 -153.094 64.224 -150.026 65.876C-146.88 67.528 -144.48 70.006 -142.828 73.31C-141.176 76.614 -140.35 80.8227 -140.35 85.936V127H-159.702V88.65C-159.702 86.9193 -159.938 85.464 -160.41 84.284C-160.804 83.0253 -161.394 81.9633 -162.18 81.098C-162.967 80.2327 -163.95 79.6033 -165.13 79.21C-166.31 78.8167 -167.648 78.62 -169.142 78.62C-171.424 78.62 -173.43 79.1707 -175.16 80.272C-176.891 81.2947 -178.268 82.7107 -179.29 84.52C-180.313 86.2507 -180.824 88.296 -180.824 90.656V127H-200.176ZM-115.935 150.246C-118.689 150.246 -121.285 149.617 -123.723 148.358C-126.162 147.178 -128.129 145.447 -129.623 143.166C-131.039 140.963 -131.747 138.367 -131.747 135.378C-131.747 132.074 -130.764 129.281 -128.797 127C-126.752 124.797 -124.471 123.145 -121.953 122.044C-123.763 120.864 -125.257 119.409 -126.437 117.678C-127.539 115.869 -128.089 113.863 -128.089 111.66C-128.089 108.592 -126.949 105.996 -124.667 103.872C-122.386 101.748 -119.711 100.332 -116.643 99.624C-119.475 97.8147 -121.796 95.5727 -123.605 92.898C-125.336 90.2233 -126.201 87.234 -126.201 83.93C-126.201 79.1313 -124.943 75.2373 -122.425 72.248C-119.829 69.2587 -116.289 67.056 -111.805 65.64C-107.321 64.1453 -102.208 63.398 -96.4652 63.398C-94.1839 63.398 -92.1386 63.516 -90.3292 63.752C-88.4412 63.9093 -86.7499 64.1847 -85.2552 64.578C-82.1086 62.69 -79.9452 60.7233 -78.7652 58.678C-77.5852 56.6327 -76.9559 54.9807 -76.8772 53.722H-60.0032C-60.0032 56.8687 -60.5539 59.5433 -61.6552 61.746C-62.7566 63.87 -64.3299 65.6007 -66.3752 66.938C-68.4206 68.2753 -70.8592 69.298 -73.6913 70.006C-71.5672 71.7367 -69.9152 73.8213 -68.7352 76.26C-67.5552 78.62 -66.9652 81.1767 -66.9652 83.93C-66.9652 88.414 -68.1059 92.19 -70.3872 95.258C-72.5899 98.2473 -75.6579 100.529 -79.5912 102.102C-83.5246 103.675 -88.0479 104.462 -93.1612 104.462H-102.365C-104.568 104.462 -106.22 104.816 -107.321 105.524C-108.344 106.153 -108.855 107.019 -108.855 108.12C-108.855 109.143 -108.383 110.047 -107.439 110.834C-106.495 111.542 -104.883 111.896 -102.601 111.896H-78.6472C-72.5899 111.896 -67.9486 113.627 -64.7232 117.088C-61.4979 120.471 -59.8852 124.797 -59.8852 130.068C-59.8852 134.08 -60.9866 137.581 -63.1892 140.57C-65.3919 143.638 -68.3419 145.998 -72.0392 147.65C-75.6579 149.381 -79.7092 150.246 -84.1932 150.246H-115.935ZM-106.613 138.446H-86.1992C-84.8619 138.446 -83.6819 138.171 -82.6592 137.62C-81.6366 137.148 -80.8499 136.44 -80.2992 135.496C-79.6699 134.631 -79.3552 133.608 -79.3552 132.428C-79.3552 130.461 -79.9846 128.967 -81.2432 127.944C-82.5019 126.921 -84.0359 126.41 -85.8452 126.41H-106.613C-108.423 126.41 -109.957 126.921 -111.215 127.944C-112.395 129.045 -112.985 130.501 -112.985 132.31C-112.985 134.119 -112.395 135.575 -111.215 136.676C-109.957 137.856 -108.423 138.446 -106.613 138.446ZM-96.5832 93.134C-93.2006 93.134 -90.6046 92.3473 -88.7952 90.774C-86.9072 89.2007 -85.9632 86.9193 -85.9632 83.93C-85.9632 80.862 -86.9072 78.5807 -88.7952 77.086C-90.6046 75.5127 -93.2006 74.726 -96.5832 74.726C-99.8086 74.726 -102.365 75.5127 -104.253 77.086C-106.141 78.5807 -107.085 80.862 -107.085 83.93C-107.085 85.8967 -106.692 87.588 -105.905 89.004C-105.119 90.3413 -103.939 91.364 -102.365 92.072C-100.792 92.78 -98.8646 93.134 -96.5832 93.134ZM-51.4086 56.436V41.568H-32.0566V56.436H-51.4086ZM-51.4086 127V64.814H-32.0566V127H-51.4086ZM-17.4145 127V64.814H-1.48447L-0.068468 73.664H0.757532C2.33087 71.54 4.1402 69.6913 6.18553 68.118C8.23087 66.5447 10.5515 65.3647 13.1475 64.578C15.7435 63.7913 18.4969 63.398 21.4075 63.398C25.8915 63.398 29.6675 64.224 32.7355 65.876C35.8822 67.528 38.2815 70.006 39.9335 73.31C41.5855 76.614 42.4115 80.8227 42.4115 85.936V127H23.0595V88.65C23.0595 86.9193 22.8235 85.464 22.3515 84.284C21.9582 83.0253 21.3682 81.9633 20.5815 81.098C19.7949 80.2327 18.8115 79.6033 17.6315 79.21C16.4515 78.8167 15.1142 78.62 13.6195 78.62C11.3382 78.62 9.3322 79.1707 7.60153 80.272C5.87087 81.2947 4.4942 82.7107 3.47153 84.52C2.44887 86.2507 1.93753 88.296 1.93753 90.656V127H-17.4145ZM87.2405 128.416C80.1605 128.416 74.1425 127.275 69.1865 124.994C64.2305 122.634 60.4151 119.055 57.7405 114.256C55.1445 109.457 53.8465 103.321 53.8465 95.848C53.8465 88.532 55.1445 82.4747 57.7405 77.676C60.3365 72.8773 64.0731 69.298 68.9505 66.938C73.8278 64.578 79.6885 63.398 86.5325 63.398C93.2978 63.398 99.0011 64.5387 103.642 66.82C108.362 69.1013 111.942 72.602 114.38 77.322C116.819 82.042 118.038 88.1387 118.038 95.612V99.742H73.4345C73.4345 103.046 73.9065 105.839 74.8505 108.12C75.7945 110.401 77.2498 112.132 79.2165 113.312C81.1831 114.492 83.8185 115.082 87.1225 115.082C89.0891 115.082 90.8198 114.846 92.3145 114.374C93.8091 113.902 95.0678 113.233 96.0905 112.368C97.1131 111.424 97.8998 110.323 98.4505 109.064C99.0011 107.805 99.2765 106.389 99.2765 104.816H118.038C118.038 108.592 117.33 111.975 115.914 114.964C114.577 117.875 112.571 120.353 109.896 122.398C107.222 124.365 103.957 125.859 100.102 126.882C96.3265 127.905 92.0391 128.416 87.2405 128.416ZM73.5525 89.004H98.3325C98.3325 86.9587 98.0571 85.1887 97.5065 83.694C97.0345 82.1207 96.2871 80.8227 95.2645 79.8C94.3205 78.7773 93.1405 78.03 91.7245 77.558C90.3871 77.0073 88.8138 76.732 87.0045 76.732C84.1725 76.732 81.8125 77.204 79.9245 78.148C78.0365 79.092 76.5811 80.4687 75.5585 82.278C74.5358 84.0873 73.8671 86.3293 73.5525 89.004ZM160.299 128.416C153.219 128.416 147.201 127.275 142.245 124.994C137.289 122.634 133.474 119.055 130.799 114.256C128.203 109.457 126.905 103.321 126.905 95.848C126.905 88.532 128.203 82.4747 130.799 77.676C133.395 72.8773 137.132 69.298 142.009 66.938C146.886 64.578 152.747 63.398 159.591 63.398C166.356 63.398 172.06 64.5387 176.701 66.82C181.421 69.1013 185 72.602 187.439 77.322C189.878 82.042 191.097 88.1387 191.097 95.612V99.742H146.493C146.493 103.046 146.965 105.839 147.909 108.12C148.853 110.401 150.308 112.132 152.275 113.312C154.242 114.492 156.877 115.082 160.181 115.082C162.148 115.082 163.878 114.846 165.373 114.374C166.868 113.902 168.126 113.233 169.149 112.368C170.172 111.424 170.958 110.323 171.509 109.064C172.06 107.805 172.335 106.389 172.335 104.816H191.097C191.097 108.592 190.389 111.975 188.973 114.964C187.636 117.875 185.63 120.353 182.955 122.398C180.28 124.365 177.016 125.859 173.161 126.882C169.385 127.905 165.098 128.416 160.299 128.416ZM146.611 89.004H171.391C171.391 86.9587 171.116 85.1887 170.565 83.694C170.093 82.1207 169.346 80.8227 168.323 79.8C167.379 78.7773 166.199 78.03 164.783 77.558C163.446 77.0073 161.872 76.732 160.063 76.732C157.231 76.732 154.871 77.204 152.983 78.148C151.095 79.092 149.64 80.4687 148.617 82.278C147.594 84.0873 146.926 86.3293 146.611 89.004ZM202.914 127V64.814H218.844L220.26 74.372H221.086C222.03 72.248 223.17 70.36 224.508 68.708C225.924 66.9773 227.615 65.64 229.582 64.696C231.627 63.752 233.869 63.28 236.308 63.28C237.724 63.28 239.022 63.4373 240.202 63.752C241.382 63.988 242.247 64.2633 242.798 64.578V81.452H236.662C234.223 81.452 232.06 81.806 230.172 82.514C228.362 83.1433 226.868 84.166 225.688 85.582C224.508 86.9193 223.642 88.5713 223.092 90.538C222.541 92.5047 222.266 94.786 222.266 97.382V127H202.914ZM250.966 56.436V41.568H270.318V56.436H250.966ZM250.966 127V64.814H270.318V127H250.966ZM284.961 127V64.814H300.891L302.307 73.664H303.133C304.706 71.54 306.515 69.6913 308.561 68.118C310.606 66.5447 312.927 65.3647 315.523 64.578C318.119 63.7913 320.872 63.398 323.783 63.398C328.267 63.398 332.043 64.224 335.111 65.876C338.257 67.528 340.657 70.006 342.309 73.31C343.961 76.614 344.787 80.8227 344.787 85.936V127H325.435V88.65C325.435 86.9193 325.199 85.464 324.727 84.284C324.333 83.0253 323.743 81.9633 322.957 81.098C322.17 80.2327 321.187 79.6033 320.007 79.21C318.827 78.8167 317.489 78.62 315.995 78.62C313.713 78.62 311.707 79.1707 309.977 80.272C308.246 81.2947 306.869 82.7107 305.847 84.52C304.824 86.2507 304.313 88.296 304.313 90.656V127H284.961ZM369.201 150.246C366.448 150.246 363.852 149.617 361.413 148.358C358.975 147.178 357.008 145.447 355.513 143.166C354.097 140.963 353.389 138.367 353.389 135.378C353.389 132.074 354.373 129.281 356.339 127C358.385 124.797 360.666 123.145 363.183 122.044C361.374 120.864 359.879 119.409 358.699 117.678C357.598 115.869 357.047 113.863 357.047 111.66C357.047 108.592 358.188 105.996 360.469 103.872C362.751 101.748 365.425 100.332 368.493 99.624C365.661 97.8147 363.341 95.5727 361.531 92.898C359.801 90.2233 358.935 87.234 358.935 83.93C358.935 79.1313 360.194 75.2373 362.711 72.248C365.307 69.2587 368.847 67.056 373.331 65.64C377.815 64.1453 382.929 63.398 388.671 63.398C390.953 63.398 392.998 63.516 394.807 63.752C396.695 63.9093 398.387 64.1847 399.881 64.578C403.028 62.69 405.191 60.7233 406.371 58.678C407.551 56.6327 408.181 54.9807 408.259 53.722H425.133C425.133 56.8687 424.583 59.5433 423.481 61.746C422.38 63.87 420.807 65.6007 418.761 66.938C416.716 68.2753 414.277 69.298 411.445 70.006C413.569 71.7367 415.221 73.8213 416.401 76.26C417.581 78.62 418.171 81.1767 418.171 83.93C418.171 88.414 417.031 92.19 414.749 95.258C412.547 98.2473 409.479 100.529 405.545 102.102C401.612 103.675 397.089 104.462 391.975 104.462H382.771C380.569 104.462 378.917 104.816 377.815 105.524C376.793 106.153 376.281 107.019 376.281 108.12C376.281 109.143 376.753 110.047 377.697 110.834C378.641 111.542 380.254 111.896 382.535 111.896H406.489C412.547 111.896 417.188 113.627 420.413 117.088C423.639 120.471 425.251 124.797 425.251 130.068C425.251 134.08 424.15 137.581 421.947 140.57C419.745 143.638 416.795 145.998 413.097 147.65C409.479 149.381 405.427 150.246 400.943 150.246H369.201ZM378.523 138.446H398.937C400.275 138.446 401.455 138.171 402.477 137.62C403.5 137.148 404.287 136.44 404.837 135.496C405.467 134.631 405.781 133.608 405.781 132.428C405.781 130.461 405.152 128.967 403.893 127.944C402.635 126.921 401.101 126.41 399.291 126.41H378.523C376.714 126.41 375.18 126.921 373.921 127.944C372.741 129.045 372.151 130.501 372.151 132.31C372.151 134.119 372.741 135.575 373.921 136.676C375.18 137.856 376.714 138.446 378.523 138.446ZM388.553 93.134C391.936 93.134 394.532 92.3473 396.341 90.774C398.229 89.2007 399.173 86.9193 399.173 83.93C399.173 80.862 398.229 78.5807 396.341 77.086C394.532 75.5127 391.936 74.726 388.553 74.726C385.328 74.726 382.771 75.5127 380.883 77.086C378.995 78.5807 378.051 80.862 378.051 83.93C378.051 85.8967 378.445 87.588 379.231 89.004C380.018 90.3413 381.198 91.364 382.771 92.072C384.345 92.78 386.272 93.134 388.553 93.134Z" fill="white"/>
</g>
<defs>
<clipPath id="clip0_426_3">
<rect width="1280" height="185" fill="white"/>
</clipPath>
</defs>
</svg>
