<svg width="1280" height="185" viewBox="0 0 1280 185" fill="none" xmlns="http://www.w3.org/2000/svg">
<g clip-path="url(#clip0_432_24)">
<rect width="1280" height="185" fill="white"/>
<path d="M-27.4384 185H1594.48V-5.24521e-06H-27.4384V185Z" fill="#E55E04"/>
<path opacity="0.12" d="M-68.042 206.656C-78.254 206.656 -86.948 204.908 -94.124 201.412C-101.208 197.824 -106.59 192.396 -110.27 185.128C-113.95 177.86 -115.79 168.66 -115.79 157.528C-115.79 141.152 -111.696 128.916 -103.508 120.82C-95.228 112.632 -83.406 108.538 -68.042 108.538C-59.486 108.538 -51.896 110.01 -45.272 112.954C-38.648 115.806 -33.496 120.13 -29.816 125.926C-26.044 131.63 -24.158 138.76 -24.158 147.316H-48.308C-48.308 143.268 -49.136 139.818 -50.792 136.966C-52.356 134.022 -54.61 131.768 -57.554 130.204C-60.406 128.64 -63.902 127.858 -68.042 127.858C-73.194 127.858 -77.426 128.916 -80.738 131.032C-84.05 133.148 -86.488 136.184 -88.052 140.14C-89.616 144.096 -90.398 148.88 -90.398 154.492V160.702C-90.398 166.314 -89.616 171.144 -88.052 175.192C-86.488 179.148 -84.096 182.184 -80.876 184.3C-77.564 186.324 -73.332 187.336 -68.18 187.336C-63.764 187.336 -60.038 186.6 -57.002 185.128C-53.874 183.656 -51.528 181.494 -49.964 178.642C-48.308 175.698 -47.48 172.202 -47.48 168.154H-24.158C-24.158 176.71 -25.998 183.84 -29.678 189.544C-33.266 195.248 -38.372 199.526 -44.996 202.378C-51.528 205.23 -59.21 206.656 -68.042 206.656ZM25.5155 206.656C17.4195 206.656 10.4735 205.276 4.67753 202.516C-1.02647 199.756 -5.44247 195.57 -8.57047 189.958C-11.6065 184.254 -13.1245 177.124 -13.1245 168.568C-13.1245 160.012 -11.6065 152.928 -8.57047 147.316C-5.44247 141.704 -1.02647 137.518 4.67753 134.758C10.4735 131.998 17.4195 130.618 25.5155 130.618C33.7035 130.618 40.6495 131.998 46.3535 134.758C52.1495 137.518 56.5655 141.704 59.6015 147.316C62.7295 152.928 64.2935 160.012 64.2935 168.568C64.2935 177.124 62.7295 184.254 59.6015 189.958C56.5655 195.57 52.1495 199.756 46.3535 202.516C40.6495 205.276 33.7035 206.656 25.5155 206.656ZM25.5155 190.234C29.2875 190.234 32.3235 189.498 34.6235 188.026C37.0155 186.554 38.7175 184.438 39.7295 181.678C40.8335 178.826 41.3855 175.33 41.3855 171.19V166.084C41.3855 161.944 40.8335 158.448 39.7295 155.596C38.7175 152.744 37.0155 150.628 34.6235 149.248C32.3235 147.776 29.2875 147.04 25.5155 147.04C21.8355 147.04 18.7995 147.776 16.4075 149.248C14.1075 150.628 12.4055 152.744 11.3015 155.596C10.2895 158.448 9.78353 161.944 9.78353 166.084V171.19C9.78353 175.33 10.2895 178.826 11.3015 181.678C12.4055 184.438 14.1075 186.554 16.4075 188.026C18.7995 189.498 21.8355 190.234 25.5155 190.234ZM77.9232 205V132.274H96.5532L98.2092 142.624H99.1752C101.015 140.14 103.131 137.978 105.523 136.138C107.915 134.298 110.629 132.918 113.665 131.998C116.701 131.078 119.921 130.618 123.325 130.618C128.569 130.618 132.985 131.584 136.573 133.516C140.253 135.448 143.059 138.346 144.991 142.21C146.923 146.074 147.889 150.996 147.889 156.976V205H125.257V160.15C125.257 158.126 124.981 156.424 124.429 155.044C123.969 153.572 123.279 152.33 122.359 151.318C121.439 150.306 120.289 149.57 118.909 149.11C117.529 148.65 115.965 148.42 114.217 148.42C111.549 148.42 109.203 149.064 107.179 150.352C105.155 151.548 103.545 153.204 102.349 155.32C101.153 157.344 100.555 159.736 100.555 162.496V205H77.9232ZM195.9 206.656C191.116 206.656 186.608 206.15 182.376 205.138C178.236 204.126 174.556 202.654 171.336 200.722C168.208 198.79 165.724 196.398 163.884 193.546C162.136 190.694 161.262 187.382 161.262 183.61C161.262 183.242 161.262 182.92 161.262 182.644C161.262 182.276 161.308 181.954 161.4 181.678H182.79C182.79 181.862 182.79 182.092 182.79 182.368C182.79 182.552 182.79 182.736 182.79 182.92C182.882 184.944 183.526 186.646 184.722 188.026C186.01 189.314 187.666 190.28 189.69 190.924C191.714 191.476 193.922 191.752 196.314 191.752C198.062 191.752 199.902 191.568 201.834 191.2C203.858 190.832 205.56 190.188 206.94 189.268C208.32 188.348 209.01 187.014 209.01 185.266C209.01 183.334 208.136 181.862 206.388 180.85C204.732 179.838 202.478 179.01 199.626 178.366C196.866 177.63 193.876 176.94 190.656 176.296C187.436 175.56 184.17 174.732 180.858 173.812C177.638 172.892 174.648 171.65 171.888 170.086C169.22 168.43 167.058 166.314 165.402 163.738C163.746 161.162 162.918 157.896 162.918 153.94C162.918 149.708 163.792 146.12 165.54 143.176C167.38 140.14 169.864 137.702 172.992 135.862C176.12 134.022 179.708 132.688 183.756 131.86C187.896 131.032 192.266 130.618 196.866 130.618C201.098 130.618 205.1 131.032 208.872 131.86C212.736 132.688 216.186 133.976 219.222 135.724C222.35 137.38 224.788 139.542 226.536 142.21C228.284 144.786 229.158 147.822 229.158 151.318C229.158 151.778 229.112 152.284 229.02 152.836C229.02 153.296 229.02 153.618 229.02 153.802H207.768V152.698C207.768 151.134 207.262 149.846 206.25 148.834C205.238 147.822 203.858 147.04 202.11 146.488C200.362 145.844 198.43 145.522 196.314 145.522C194.934 145.522 193.554 145.66 192.174 145.936C190.886 146.12 189.69 146.442 188.586 146.902C187.482 147.27 186.562 147.822 185.826 148.558C185.182 149.294 184.86 150.214 184.86 151.318C184.86 152.698 185.458 153.848 186.654 154.768C187.85 155.596 189.46 156.286 191.484 156.838C193.6 157.39 195.9 157.988 198.384 158.632C201.788 159.368 205.376 160.15 209.148 160.978C212.92 161.714 216.462 162.818 219.774 164.29C223.178 165.67 225.892 167.786 227.916 170.638C230.032 173.398 231.09 177.216 231.09 182.092C231.09 186.692 230.17 190.602 228.33 193.822C226.49 196.95 223.96 199.48 220.74 201.412C217.52 203.252 213.794 204.586 209.562 205.414C205.33 206.242 200.776 206.656 195.9 206.656ZM270.158 206.656C265.466 206.656 261.464 205.966 258.152 204.586C254.932 203.114 252.494 200.952 250.838 198.1C249.274 195.248 248.492 191.798 248.492 187.75V148.696H238.97V132.274H249.182L253.874 111.022H270.986V132.274H285.2V148.696H270.986V182.23C270.986 184.806 271.492 186.784 272.504 188.164C273.516 189.544 275.356 190.234 278.024 190.234H285.2V204.31C284.004 204.678 282.486 205.046 280.646 205.414C278.898 205.874 277.104 206.196 275.264 206.38C273.424 206.564 271.722 206.656 270.158 206.656ZM297.726 205V132.274H316.356L318.012 143.452H318.978C320.082 140.968 321.416 138.76 322.98 136.828C324.636 134.804 326.614 133.24 328.914 132.136C331.306 131.032 333.928 130.48 336.78 130.48C338.436 130.48 339.954 130.664 341.334 131.032C342.714 131.308 343.726 131.63 344.37 131.998V151.732H337.194C334.342 151.732 331.812 152.146 329.604 152.974C327.488 153.71 325.74 154.906 324.36 156.562C322.98 158.126 321.968 160.058 321.324 162.358C320.68 164.658 320.358 167.326 320.358 170.362V205H297.726ZM378.073 206.656C370.253 206.656 364.181 204.494 359.857 200.17C355.625 195.846 353.509 189.222 353.509 180.298V132.274H376.141V177.124C376.141 179.056 376.371 180.758 376.831 182.23C377.383 183.702 378.119 184.944 379.039 185.956C379.959 186.968 381.109 187.704 382.489 188.164C383.961 188.624 385.525 188.854 387.181 188.854C389.849 188.854 392.195 188.256 394.219 187.06C396.243 185.772 397.853 184.07 399.049 181.954C400.245 179.746 400.843 177.354 400.843 174.778V132.274H423.475V205H404.845L403.465 194.65H402.499C400.843 197.042 398.727 199.158 396.151 200.998C393.667 202.838 390.861 204.218 387.733 205.138C384.697 206.15 381.477 206.656 378.073 206.656ZM475.074 206.656C467.07 206.656 460.262 205.276 454.65 202.516C449.038 199.756 444.714 195.57 441.678 189.958C438.734 184.254 437.262 177.124 437.262 168.568C437.262 160.012 438.78 152.928 441.816 147.316C444.852 141.612 449.176 137.38 454.788 134.62C460.4 131.86 467.162 130.48 475.074 130.48C480.226 130.48 484.964 131.078 489.288 132.274C493.704 133.47 497.522 135.31 500.742 137.794C504.054 140.278 506.584 143.406 508.332 147.178C510.08 150.95 510.954 155.458 510.954 160.702H488.736C488.736 157.574 488.184 154.998 487.08 152.974C486.068 150.95 484.55 149.432 482.526 148.42C480.502 147.408 477.972 146.902 474.936 146.902C471.44 146.902 468.588 147.638 466.38 149.11C464.264 150.582 462.7 152.744 461.688 155.596C460.676 158.448 460.17 161.99 460.17 166.222V171.19C460.17 175.33 460.676 178.826 461.688 181.678C462.7 184.53 464.356 186.692 466.656 188.164C468.956 189.544 471.9 190.234 475.488 190.234C478.616 190.234 481.192 189.774 483.216 188.854C485.332 187.842 486.942 186.324 488.046 184.3C489.15 182.184 489.702 179.562 489.702 176.434H510.954C510.954 181.494 510.08 185.956 508.332 189.82C506.584 193.592 504.1 196.72 500.88 199.204C497.66 201.688 493.842 203.574 489.426 204.862C485.01 206.058 480.226 206.656 475.074 206.656ZM550.74 206.656C546.048 206.656 542.046 205.966 538.734 204.586C535.514 203.114 533.076 200.952 531.42 198.1C529.856 195.248 529.074 191.798 529.074 187.75V148.696H519.552V132.274H529.764L534.456 111.022H551.568V132.274H565.782V148.696H551.568V182.23C551.568 184.806 552.074 186.784 553.086 188.164C554.098 189.544 555.938 190.234 558.606 190.234H565.782V204.31C564.586 204.678 563.068 205.046 561.228 205.414C559.48 205.874 557.686 206.196 555.846 206.38C554.006 206.564 552.304 206.656 550.74 206.656ZM578.308 122.476V105.088H600.94V122.476H578.308ZM578.308 205V132.274H600.94V205H578.308ZM653.254 206.656C645.158 206.656 638.212 205.276 632.416 202.516C626.712 199.756 622.296 195.57 619.168 189.958C616.132 184.254 614.614 177.124 614.614 168.568C614.614 160.012 616.132 152.928 619.168 147.316C622.296 141.704 626.712 137.518 632.416 134.758C638.212 131.998 645.158 130.618 653.254 130.618C661.442 130.618 668.388 131.998 674.092 134.758C679.888 137.518 684.304 141.704 687.34 147.316C690.468 152.928 692.032 160.012 692.032 168.568C692.032 177.124 690.468 184.254 687.34 189.958C684.304 195.57 679.888 199.756 674.092 202.516C668.388 205.276 661.442 206.656 653.254 206.656ZM653.254 190.234C657.026 190.234 660.062 189.498 662.362 188.026C664.754 186.554 666.456 184.438 667.468 181.678C668.572 178.826 669.124 175.33 669.124 171.19V166.084C669.124 161.944 668.572 158.448 667.468 155.596C666.456 152.744 664.754 150.628 662.362 149.248C660.062 147.776 657.026 147.04 653.254 147.04C649.574 147.04 646.538 147.776 644.146 149.248C641.846 150.628 640.144 152.744 639.04 155.596C638.028 158.448 637.522 161.944 637.522 166.084V171.19C637.522 175.33 638.028 178.826 639.04 181.678C640.144 184.438 641.846 186.554 644.146 188.026C646.538 189.498 649.574 190.234 653.254 190.234ZM705.661 205V132.274H724.291L725.947 142.624H726.913C728.753 140.14 730.869 137.978 733.261 136.138C735.653 134.298 738.367 132.918 741.403 131.998C744.439 131.078 747.659 130.618 751.063 130.618C756.307 130.618 760.723 131.584 764.311 133.516C767.991 135.448 770.797 138.346 772.729 142.21C774.661 146.074 775.627 150.996 775.627 156.976V205H752.995V160.15C752.995 158.126 752.719 156.424 752.167 155.044C751.707 153.572 751.017 152.33 750.097 151.318C749.177 150.306 748.027 149.57 746.647 149.11C745.267 148.65 743.703 148.42 741.955 148.42C739.287 148.42 736.941 149.064 734.917 150.352C732.893 151.548 731.283 153.204 730.087 155.32C728.891 157.344 728.293 159.736 728.293 162.496V205H705.661Z" fill="white"/>
<path opacity="0.12" d="M891.35 79V-15.806H930.956C941.26 -15.806 949.954 -14.104 957.038 -10.7C964.214 -7.296 969.642 -2.098 973.322 4.894C977.094 11.794 978.98 20.672 978.98 31.528C978.98 42.292 977.094 51.216 973.322 58.3C969.642 65.292 964.214 70.49 957.038 73.894C949.954 77.298 941.26 79 930.956 79H891.35ZM916.052 59.68H930.68C934.544 59.68 937.902 59.128 940.754 58.024C943.606 56.92 945.998 55.31 947.93 53.194C949.862 51.078 951.288 48.456 952.208 45.328C953.128 42.2 953.588 38.612 953.588 34.564V28.768C953.588 24.628 953.128 20.994 952.208 17.866C951.288 14.738 949.862 12.116 947.93 10C945.998 7.884 943.606 6.274 940.754 5.17C937.902 4.06599 934.544 3.51399 930.68 3.51399H916.052V59.68ZM1029.33 80.656C1021.05 80.656 1014.02 79.322 1008.22 76.654C1002.42 73.894 997.962 69.708 994.834 64.096C991.798 58.484 990.28 51.308 990.28 42.568C990.28 34.012 991.798 26.928 994.834 21.316C997.87 15.704 1002.24 11.518 1007.94 8.758C1013.65 5.998 1020.5 4.618 1028.51 4.618C1036.42 4.618 1043.09 5.95199 1048.52 8.61999C1054.04 11.288 1058.22 15.382 1061.07 20.902C1063.93 26.422 1065.35 33.552 1065.35 42.292V47.122H1013.19C1013.19 50.986 1013.74 54.252 1014.84 56.92C1015.95 59.588 1017.65 61.612 1019.95 62.992C1022.25 64.372 1025.33 65.062 1029.2 65.062C1031.5 65.062 1033.52 64.786 1035.27 64.234C1037.02 63.682 1038.49 62.9 1039.68 61.888C1040.88 60.784 1041.8 59.496 1042.44 58.024C1043.09 56.552 1043.41 54.896 1043.41 53.056H1065.35C1065.35 57.472 1064.52 61.428 1062.87 64.924C1061.3 68.328 1058.96 71.226 1055.83 73.618C1052.7 75.918 1048.88 77.666 1044.38 78.862C1039.96 80.058 1034.95 80.656 1029.33 80.656ZM1013.33 34.564H1042.31C1042.31 32.172 1041.98 30.102 1041.34 28.354C1040.79 26.514 1039.91 24.996 1038.72 23.8C1037.61 22.604 1036.23 21.73 1034.58 21.178C1033.01 20.534 1031.17 20.212 1029.06 20.212C1025.75 20.212 1022.99 20.764 1020.78 21.868C1018.57 22.972 1016.87 24.582 1015.67 26.698C1014.48 28.814 1013.69 31.436 1013.33 34.564ZM1110.36 80.656C1105.58 80.656 1101.07 80.15 1096.84 79.138C1092.7 78.126 1089.02 76.654 1085.8 74.722C1082.67 72.79 1080.18 70.398 1078.34 67.546C1076.6 64.694 1075.72 61.382 1075.72 57.61C1075.72 57.242 1075.72 56.92 1075.72 56.644C1075.72 56.276 1075.77 55.954 1075.86 55.678H1097.25C1097.25 55.862 1097.25 56.092 1097.25 56.368C1097.25 56.552 1097.25 56.736 1097.25 56.92C1097.34 58.944 1097.99 60.646 1099.18 62.026C1100.47 63.314 1102.13 64.28 1104.15 64.924C1106.17 65.476 1108.38 65.752 1110.77 65.752C1112.52 65.752 1114.36 65.568 1116.29 65.2C1118.32 64.832 1120.02 64.188 1121.4 63.268C1122.78 62.348 1123.47 61.014 1123.47 59.266C1123.47 57.334 1122.6 55.862 1120.85 54.85C1119.19 53.838 1116.94 53.01 1114.09 52.366C1111.33 51.63 1108.34 50.94 1105.12 50.296C1101.9 49.56 1098.63 48.732 1095.32 47.812C1092.1 46.892 1089.11 45.65 1086.35 44.086C1083.68 42.43 1081.52 40.314 1079.86 37.738C1078.21 35.162 1077.38 31.896 1077.38 27.94C1077.38 23.708 1078.25 20.12 1080 17.176C1081.84 14.14 1084.32 11.702 1087.45 9.86199C1090.58 8.022 1094.17 6.688 1098.22 5.86C1102.36 5.032 1106.73 4.618 1111.33 4.618C1115.56 4.618 1119.56 5.032 1123.33 5.86C1127.2 6.688 1130.65 7.976 1133.68 9.724C1136.81 11.38 1139.25 13.542 1141 16.21C1142.74 18.786 1143.62 21.822 1143.62 25.318C1143.62 25.778 1143.57 26.284 1143.48 26.836C1143.48 27.296 1143.48 27.618 1143.48 27.802H1122.23V26.698C1122.23 25.134 1121.72 23.846 1120.71 22.834C1119.7 21.822 1118.32 21.04 1116.57 20.488C1114.82 19.844 1112.89 19.522 1110.77 19.522C1109.39 19.522 1108.01 19.66 1106.63 19.936C1105.35 20.12 1104.15 20.442 1103.05 20.902C1101.94 21.27 1101.02 21.822 1100.29 22.558C1099.64 23.294 1099.32 24.214 1099.32 25.318C1099.32 26.698 1099.92 27.848 1101.11 28.768C1102.31 29.596 1103.92 30.286 1105.94 30.838C1108.06 31.39 1110.36 31.988 1112.84 32.632C1116.25 33.368 1119.84 34.15 1123.61 34.978C1127.38 35.714 1130.92 36.818 1134.23 38.29C1137.64 39.67 1140.35 41.786 1142.38 44.638C1144.49 47.398 1145.55 51.216 1145.55 56.092C1145.55 60.692 1144.63 64.602 1142.79 67.822C1140.95 70.95 1138.42 73.48 1135.2 75.412C1131.98 77.252 1128.25 78.586 1124.02 79.414C1119.79 80.242 1115.24 80.656 1110.36 80.656ZM1159.09 -3.52401V-20.912H1181.72V-3.52401H1159.09ZM1159.09 79V6.274H1181.72V79H1159.09ZM1210.57 106.186C1207.35 106.186 1204.32 105.45 1201.47 103.978C1198.61 102.598 1196.31 100.574 1194.57 97.906C1192.91 95.33 1192.08 92.294 1192.08 88.798C1192.08 84.934 1193.23 81.668 1195.53 79C1197.92 76.424 1200.59 74.492 1203.54 73.204C1201.42 71.824 1199.67 70.122 1198.29 68.098C1197 65.982 1196.36 63.636 1196.36 61.06C1196.36 57.472 1197.69 54.436 1200.36 51.952C1203.03 49.468 1206.16 47.812 1209.75 46.984C1206.43 44.868 1203.72 42.246 1201.6 39.118C1199.58 35.99 1198.57 32.494 1198.57 28.63C1198.57 23.018 1200.04 18.464 1202.98 14.968C1206.02 11.472 1210.16 8.896 1215.4 7.23999C1220.65 5.49199 1226.63 4.618 1233.34 4.618C1236.01 4.618 1238.4 4.756 1240.52 5.032C1242.73 5.216 1244.71 5.53799 1246.45 5.99799C1250.13 3.78999 1252.66 1.48999 1254.04 -0.902008C1255.42 -3.294 1256.16 -5.226 1256.25 -6.69801H1275.99C1275.99 -3.01801 1275.34 0.109996 1274.05 2.686C1272.77 5.17 1270.93 7.194 1268.53 8.758C1266.14 10.322 1263.29 11.518 1259.98 12.346C1262.46 14.37 1264.39 16.808 1265.77 19.66C1267.15 22.42 1267.84 25.41 1267.84 28.63C1267.84 33.874 1266.51 38.29 1263.84 41.878C1261.27 45.374 1257.68 48.042 1253.08 49.882C1248.48 51.722 1243.19 52.642 1237.21 52.642H1226.44C1223.87 52.642 1221.94 53.056 1220.65 53.884C1219.45 54.62 1218.85 55.632 1218.85 56.92C1218.85 58.116 1219.41 59.174 1220.51 60.094C1221.61 60.922 1223.5 61.336 1226.17 61.336H1254.18C1261.27 61.336 1266.69 63.36 1270.47 67.408C1274.24 71.364 1276.12 76.424 1276.12 82.588C1276.12 87.28 1274.84 91.374 1272.26 94.87C1269.68 98.458 1266.23 101.218 1261.91 103.15C1257.68 105.174 1252.94 106.186 1247.7 106.186H1210.57ZM1221.48 92.386H1245.35C1246.91 92.386 1248.29 92.064 1249.49 91.42C1250.69 90.868 1251.61 90.04 1252.25 88.936C1252.99 87.924 1253.35 86.728 1253.35 85.348C1253.35 83.048 1252.62 81.3 1251.15 80.104C1249.67 78.908 1247.88 78.31 1245.76 78.31H1221.48C1219.36 78.31 1217.57 78.908 1216.09 80.104C1214.71 81.392 1214.02 83.094 1214.02 85.21C1214.02 87.326 1214.71 89.028 1216.09 90.316C1217.57 91.696 1219.36 92.386 1221.48 92.386ZM1233.21 39.394C1237.16 39.394 1240.2 38.474 1242.31 36.634C1244.52 34.794 1245.63 32.126 1245.63 28.63C1245.63 25.042 1244.52 22.374 1242.31 20.626C1240.2 18.786 1237.16 17.866 1233.21 17.866C1229.43 17.866 1226.44 18.786 1224.24 20.626C1222.03 22.374 1220.92 25.042 1220.92 28.63C1220.92 30.93 1221.38 32.908 1222.3 34.564C1223.22 36.128 1224.6 37.324 1226.44 38.152C1228.28 38.98 1230.54 39.394 1233.21 39.394ZM1286.04 79V6.274H1304.67L1306.32 16.624H1307.29C1309.13 14.14 1311.24 11.978 1313.64 10.138C1316.03 8.29799 1318.74 6.91799 1321.78 5.99799C1324.81 5.07799 1328.03 4.618 1331.44 4.618C1336.68 4.618 1341.1 5.584 1344.69 7.516C1348.37 9.448 1351.17 12.346 1353.1 16.21C1355.04 20.074 1356 24.996 1356 30.976V79H1333.37V34.15C1333.37 32.126 1333.09 30.424 1332.54 29.044C1332.08 27.572 1331.39 26.33 1330.47 25.318C1329.55 24.306 1328.4 23.57 1327.02 23.11C1325.64 22.65 1324.08 22.42 1322.33 22.42C1319.66 22.42 1317.32 23.064 1315.29 24.352C1313.27 25.548 1311.66 27.204 1310.46 29.32C1309.27 31.344 1308.67 33.736 1308.67 36.496V79H1286.04Z" fill="white"/>
</g>
<defs>
<clipPath id="clip0_432_24">
<rect width="1280" height="185" fill="white"/>
</clipPath>
</defs>
</svg>
