<svg width="21" height="29" viewBox="0 0 21 29" fill="none" xmlns="http://www.w3.org/2000/svg">
<path d="M10.4999 0C4.70133 0 0.0189209 4.68241 0.0189209 10.481C0.0189209 12.5028 0.664771 14.4333 1.56334 16.0198L8.39391 27.8416C8.82214 28.6138 9.68561 28.9999 10.4999 28.9999C11.3143 28.9999 12.1356 28.6138 12.606 27.8416L19.4365 16.0268C20.3421 14.4402 20.981 12.5448 20.981 10.4879C20.981 4.68943 16.2986 0 10.4999 0ZM10.4999 13.5769C8.39391 13.5769 6.67398 11.857 6.67398 9.75093C6.67398 7.6449 8.39391 5.92497 10.4999 5.92497C12.606 5.92497 14.3259 7.6449 14.3259 9.75093C14.3259 11.864 12.606 13.5769 10.4999 13.5769Z" fill="#404452"/>
</svg>
