<svg width="27" height="27" viewBox="0 0 27 27" fill="none" xmlns="http://www.w3.org/2000/svg">
<g clip-path="url(#clip0_393_294)">
<path d="M0.084844 5.48089C1.49693 9.54139 4.46957 14.1534 8.65734 18.3411C12.8451 22.5289 17.4571 25.5016 21.5176 26.9136C22.0691 27.1045 22.6782 26.9682 23.0933 26.5561L25.9023 23.747L26.5569 23.0925C27.1478 22.5016 27.1478 21.541 26.5569 20.9501L22.2085 16.6048C21.6176 16.0139 20.657 16.0139 20.0661 16.6048L18.8874 17.7836C18.2753 18.3957 17.2996 18.4563 16.6147 17.923C15.2602 16.8684 13.9178 15.6836 12.6179 14.3837C11.3179 13.0837 10.1331 11.7413 9.07857 10.3868C8.54522 9.70196 8.60583 8.72926 9.21796 8.11412L10.3967 6.93537C10.9876 6.34448 10.9876 5.3839 10.3967 4.793L6.04835 0.444635C5.45746 -0.146258 4.49688 -0.146258 3.90598 0.444635L3.25146 1.09916L0.44244 3.90818C0.0303 4.32032 -0.10606 4.92939 0.084844 5.48089Z" fill="#404452"/>
</g>
<defs>
<clipPath id="clip0_393_294">
<rect width="27" height="27" fill="white"/>
</clipPath>
</defs>
</svg>
