<svg width="150" height="52" viewBox="0 0 150 52" fill="none" xmlns="http://www.w3.org/2000/svg">
<path d="M0 0H150V52H0V0Z" fill="#E55E04"/>
<path d="M36.24 35L30.288 18.536H34.152L37.704 29.048C37.768 29.224 37.84 29.44 37.92 29.696C38 29.936 38.08 30.176 38.16 30.416C38.24 30.656 38.304 30.872 38.352 31.064H38.496C38.56 30.888 38.624 30.688 38.688 30.464C38.768 30.224 38.84 29.984 38.904 29.744C38.984 29.504 39.056 29.28 39.12 29.072L42.672 18.536H46.392L40.416 35H36.24ZM52.6939 35.288C51.3019 35.288 50.1339 35.056 49.1899 34.592C48.2459 34.112 47.5339 33.384 47.0539 32.408C46.5739 31.432 46.3339 30.192 46.3339 28.688C46.3339 27.168 46.5739 25.928 47.0539 24.968C47.5339 23.992 48.2379 23.272 49.1659 22.808C50.1099 22.328 51.2619 22.088 52.6219 22.088C53.9019 22.088 54.9819 22.32 55.8619 22.784C56.7419 23.232 57.4059 23.936 57.8539 24.896C58.3019 25.84 58.5259 27.064 58.5259 28.568V29.432H49.7179C49.7499 30.168 49.8619 30.792 50.0539 31.304C50.2619 31.816 50.5739 32.2 50.9899 32.456C51.4219 32.696 51.9899 32.816 52.6939 32.816C53.0779 32.816 53.4219 32.768 53.7259 32.672C54.0459 32.576 54.3179 32.432 54.5419 32.24C54.7659 32.048 54.9419 31.808 55.0699 31.52C55.1979 31.232 55.2619 30.904 55.2619 30.536H58.5259C58.5259 31.336 58.3819 32.032 58.0939 32.624C57.8059 33.216 57.4059 33.712 56.8939 34.112C56.3819 34.496 55.7659 34.792 55.0459 35C54.3419 35.192 53.5579 35.288 52.6939 35.288ZM49.7659 27.32H55.0939C55.0939 26.84 55.0299 26.424 54.9019 26.072C54.7899 25.72 54.6299 25.432 54.4219 25.208C54.2139 24.984 53.9579 24.824 53.6539 24.728C53.3659 24.616 53.0379 24.56 52.6699 24.56C52.0619 24.56 51.5499 24.664 51.1339 24.872C50.7339 25.064 50.4219 25.368 50.1979 25.784C49.9899 26.184 49.8459 26.696 49.7659 27.32ZM60.9735 35V22.376H63.7335L63.9975 24.104H64.1655C64.4535 23.688 64.7975 23.328 65.1975 23.024C65.6135 22.72 66.0775 22.488 66.5895 22.328C67.1015 22.168 67.6615 22.088 68.2695 22.088C69.1015 22.088 69.8295 22.24 70.4535 22.544C71.0775 22.848 71.5575 23.328 71.8935 23.984C72.2455 24.64 72.4215 25.496 72.4215 26.552V35H69.0855V27.08C69.0855 26.68 69.0375 26.344 68.9415 26.072C68.8455 25.784 68.7015 25.552 68.5095 25.376C68.3335 25.184 68.1095 25.048 67.8375 24.968C67.5655 24.888 67.2615 24.848 66.9255 24.848C66.4295 24.848 65.9815 24.968 65.5815 25.208C65.1815 25.448 64.8695 25.776 64.6455 26.192C64.4215 26.608 64.3095 27.088 64.3095 27.632V35H60.9735ZM79.179 35.288C78.379 35.288 77.731 35.144 77.235 34.856C76.739 34.568 76.379 34.184 76.155 33.704C75.931 33.208 75.819 32.664 75.819 32.072V24.944H74.259V22.376H75.939L76.563 18.776H79.155V22.376H81.459V24.944H79.155V31.52C79.155 31.904 79.243 32.2 79.419 32.408C79.595 32.6 79.883 32.696 80.283 32.696H81.459V34.904C81.267 34.968 81.043 35.024 80.787 35.072C80.531 35.136 80.259 35.184 79.971 35.216C79.683 35.264 79.419 35.288 79.179 35.288ZM89.4221 35.288C88.0461 35.288 86.8781 35.056 85.9181 34.592C84.9581 34.112 84.2301 33.384 83.7341 32.408C83.2381 31.416 82.9901 30.176 82.9901 28.688C82.9901 27.168 83.2381 25.928 83.7341 24.968C84.2301 23.992 84.9581 23.272 85.9181 22.808C86.8781 22.328 88.0461 22.088 89.4221 22.088C90.8301 22.088 92.0061 22.328 92.9501 22.808C93.9101 23.272 94.6381 23.992 95.1341 24.968C95.6301 25.928 95.8781 27.168 95.8781 28.688C95.8781 30.176 95.6301 31.416 95.1341 32.408C94.6381 33.384 93.9101 34.112 92.9501 34.592C92.0061 35.056 90.8301 35.288 89.4221 35.288ZM89.4221 32.696C90.1581 32.696 90.7421 32.56 91.1741 32.288C91.6221 32.016 91.9501 31.6 92.1581 31.04C92.3661 30.48 92.4701 29.792 92.4701 28.976V28.4C92.4701 27.584 92.3661 26.896 92.1581 26.336C91.9501 25.776 91.6221 25.36 91.1741 25.088C90.7421 24.8 90.1581 24.656 89.4221 24.656C88.7021 24.656 88.1181 24.8 87.6701 25.088C87.2381 25.36 86.9181 25.776 86.7101 26.336C86.5021 26.896 86.3981 27.584 86.3981 28.4V28.976C86.3981 29.792 86.5021 30.48 86.7101 31.04C86.9181 31.6 87.2381 32.016 87.6701 32.288C88.1181 32.56 88.7021 32.696 89.4221 32.696ZM98.3329 35V22.376H101.093L101.357 24.344H101.525C101.685 23.928 101.893 23.552 102.149 23.216C102.405 22.864 102.725 22.584 103.109 22.376C103.493 22.168 103.941 22.064 104.453 22.064C104.725 22.064 104.973 22.096 105.197 22.16C105.421 22.208 105.589 22.256 105.701 22.304V25.328H104.669C104.173 25.328 103.733 25.4 103.349 25.544C102.981 25.672 102.669 25.88 102.413 26.168C102.157 26.456 101.965 26.808 101.837 27.224C101.725 27.64 101.669 28.128 101.669 28.688V35H98.3329ZM110.552 35.288C110.136 35.288 109.688 35.24 109.208 35.144C108.744 35.048 108.304 34.88 107.888 34.64C107.472 34.384 107.128 34.024 106.856 33.56C106.6 33.08 106.472 32.472 106.472 31.736C106.472 30.856 106.664 30.128 107.048 29.552C107.432 28.976 107.976 28.528 108.68 28.208C109.4 27.872 110.256 27.64 111.248 27.512C112.24 27.384 113.336 27.32 114.536 27.32V26.384C114.536 26.016 114.472 25.696 114.344 25.424C114.232 25.152 114.024 24.936 113.72 24.776C113.432 24.616 113.024 24.536 112.496 24.536C111.968 24.536 111.536 24.6 111.2 24.728C110.88 24.856 110.648 25.024 110.504 25.232C110.376 25.424 110.312 25.64 110.312 25.88V26.168H107.072C107.056 26.088 107.048 26.016 107.048 25.952C107.048 25.872 107.048 25.776 107.048 25.664C107.048 24.928 107.272 24.296 107.72 23.768C108.168 23.224 108.8 22.808 109.616 22.52C110.432 22.232 111.384 22.088 112.472 22.088C113.64 22.088 114.616 22.24 115.4 22.544C116.2 22.848 116.808 23.296 117.224 23.888C117.656 24.48 117.872 25.224 117.872 26.12V31.856C117.872 32.144 117.952 32.36 118.112 32.504C118.288 32.632 118.48 32.696 118.688 32.696H119.48V34.88C119.32 34.96 119.072 35.04 118.736 35.12C118.4 35.216 117.992 35.264 117.512 35.264C117.048 35.264 116.632 35.192 116.264 35.048C115.912 34.92 115.616 34.736 115.376 34.496C115.136 34.24 114.968 33.936 114.872 33.584H114.704C114.432 33.92 114.096 34.216 113.696 34.472C113.312 34.728 112.856 34.928 112.328 35.072C111.816 35.216 111.224 35.288 110.552 35.288ZM111.68 32.768C112.128 32.768 112.528 32.704 112.88 32.576C113.232 32.432 113.528 32.248 113.768 32.024C114.008 31.784 114.192 31.496 114.32 31.16C114.464 30.824 114.536 30.464 114.536 30.08V29.384C113.64 29.384 112.84 29.448 112.136 29.576C111.432 29.688 110.872 29.888 110.456 30.176C110.056 30.464 109.856 30.864 109.856 31.376C109.856 31.664 109.928 31.912 110.072 32.12C110.216 32.328 110.424 32.488 110.696 32.6C110.968 32.712 111.296 32.768 111.68 32.768Z" fill="white"/>
</svg>
